<?xml version="1.0" encoding="utf-8"?>
<!-- Generator: Adobe Illustrator 24.2.1, SVG Export Plug-In . SVG Version: 6.00 Build 0)  -->
<svg version="1.1" id="图层_1" xmlns="http://www.w3.org/2000/svg" xmlns:xlink="http://www.w3.org/1999/xlink" x="0px" y="0px"
	 viewBox="0 0 1024 1024" style="enable-background:new 0 0 1024 1024;" xml:space="preserve">
<style type="text/css">
	.st0{fill:url(#SVGID_1_);}
	.st1{opacity:0.2;fill:#FFFFFF;}
	.st2{fill:#FFFFFF;}
	.st3{fill:#48BCD4;}
	.st4{fill:url(#SVGID_2_);}
	.st5{fill:url(#SVGID_3_);}
	.st6{opacity:0.2;fill:url(#SVGID_4_);}
</style>
<linearGradient id="SVGID_1_" gradientUnits="userSpaceOnUse" x1="512" y1="64" x2="512" y2="960">
	<stop  offset="0" style="stop-color:#3DDFAE"/>
	<stop  offset="1" style="stop-color:#4AB6DA"/>
</linearGradient>
<circle class="st0" cx="512" cy="512" r="448"/>
<path class="st1" d="M235.5,159.5l720.1,415.7c2.9-20.7,4.4-41.8,4.4-63.2c0-22-1.6-43.6-4.6-64.7L346.3,95.7
	C306.2,111.6,268.9,133.2,235.5,159.5z"/>
<path class="st1" d="M150.3,247.6L921.9,693c8.4-18.9,15.5-38.5,21.2-58.7L190.6,199.9C176.1,214.8,162.7,230.7,150.3,247.6z"/>
<path class="st1" d="M64.1,501.3l681.1,393.2c29.8-18.2,57.3-39.8,82-64.2L78.6,398.1C69.9,431.2,65,465.8,64.1,501.3z"/>
<path class="st2" d="M512,923.3c-55.5,0-109.4-10.9-160.1-32.3c-49-20.7-93-50.4-130.7-88.2c-37.8-37.8-67.4-81.8-88.2-130.7
	c-21.4-50.7-32.3-104.6-32.3-160.1c0-55.5,10.9-109.4,32.3-160.1c20.7-49,50.4-93,88.2-130.7c37.8-37.8,81.8-67.4,130.7-88.2
	c50.7-21.4,104.6-32.3,160.1-32.3c55.5,0,109.4,10.9,160.1,32.3c49,20.7,93,50.4,130.7,88.2c37.8,37.8,67.4,81.8,88.2,130.7
	c21.4,50.7,32.3,104.6,32.3,160.1c0,55.5-10.9,109.4-32.3,160.1c-20.7,49-50.4,93-88.2,130.7s-81.8,67.4-130.7,88.2
	C621.4,912.5,567.5,923.3,512,923.3z M512,104.7c-224.6,0-407.3,182.7-407.3,407.3S287.4,919.3,512,919.3S919.3,736.6,919.3,512
	S736.6,104.7,512,104.7z"/>
<path class="st2" d="M304.1,688c-13.5,0-24.6-11-24.6-24.6V401.1c0-13.5,11-24.6,24.6-24.6h424.4c13.5,0,24.6,11,24.6,24.6v262.4
	c0,13.5-11,24.6-24.6,24.6H304.1z"/>
<path class="st3" d="M728.5,381.6c10.8,0,19.6,8.8,19.6,19.6v262.4c0,10.8-8.8,19.6-19.6,19.6H304.1c-10.8,0-19.6-8.8-19.6-19.6
	V401.1c0-10.8,8.8-19.6,19.6-19.6H728.5 M728.5,371.6H304.1c-16.3,0-29.6,13.3-29.6,29.6v262.4c0,16.3,13.3,29.6,29.6,29.6h424.4
	c16.3,0,29.6-13.3,29.6-29.6V401.1C758.1,384.9,744.8,371.6,728.5,371.6L728.5,371.6z"/>
<path class="st2" d="M428.4,376.3l14.6-51.7c1.5-5.4,5.7-9.1,10.3-9.1h126c4.6,0,8.8,3.6,10.3,9.1l14.6,51.7H428.4z"/>
<path class="st3" d="M579.3,320.5c2.3,0,4.6,2.2,5.5,5.4l12.8,45.4H435l12.8-45.4c0.9-3.2,3.2-5.4,5.5-5.4H579.3 M579.3,310.5h-126
	c-6.9,0-13,5.1-15.1,12.7l-16.4,58.1h189l-16.4-58.1C592.3,315.6,586.2,310.5,579.3,310.5L579.3,310.5z"/>
<linearGradient id="SVGID_2_" gradientUnits="userSpaceOnUse" x1="512" y1="432.3325" x2="512" y2="633.1475">
	<stop  offset="0" style="stop-color:#3DDFAE"/>
	<stop  offset="1" style="stop-color:#4AB6DA"/>
</linearGradient>
<circle class="st4" cx="512" cy="532.7" r="100.4"/>
<path class="st3" d="M512,437.3c52.6,0,95.4,42.8,95.4,95.4s-42.8,95.4-95.4,95.4c-52.6,0-95.4-42.8-95.4-95.4
	S459.4,437.3,512,437.3 M512,427.3c-58.2,0-105.4,47.2-105.4,105.4S453.8,638.1,512,638.1c58.2,0,105.4-47.2,105.4-105.4
	S570.2,427.3,512,427.3L512,427.3z"/>
<circle class="st2" cx="512" cy="532.7" r="23.4"/>
<path class="st3" d="M512,512.4c11.2,0,20.4,9.1,20.4,20.4s-9.1,20.4-20.4,20.4s-20.4-9.1-20.4-20.4S500.8,512.4,512,512.4
	 M512,506.4c-14.6,0-26.4,11.8-26.4,26.4c0,14.6,11.8,26.4,26.4,26.4c14.6,0,26.4-11.8,26.4-26.4C538.4,518.2,526.6,506.4,512,506.4
	L512,506.4z"/>
<linearGradient id="SVGID_3_" gradientUnits="userSpaceOnUse" x1="358.2224" y1="418.3335" x2="358.2224" y2="439.8892">
	<stop  offset="0" style="stop-color:#3DDFAE"/>
	<stop  offset="1" style="stop-color:#4AB6DA"/>
</linearGradient>
<path class="st5" d="M332.9,439.9c-5.9,0-10.8-4.8-10.8-10.8s4.8-10.8,10.8-10.8h50.7c5.9,0,10.8,4.8,10.8,10.8s-4.8,10.8-10.8,10.8
	H332.9z"/>
<path class="st3" d="M383.6,421.3c4.3,0,7.8,3.5,7.8,7.8s-3.5,7.8-7.8,7.8h-50.7c-4.3,0-7.8-3.5-7.8-7.8s3.5-7.8,7.8-7.8H383.6
	 M383.6,415.3h-50.7c-7.6,0-13.8,6.2-13.8,13.8s6.2,13.8,13.8,13.8h50.7c7.6,0,13.8-6.2,13.8-13.8S391.1,415.3,383.6,415.3
	L383.6,415.3z"/>
<linearGradient id="SVGID_4_" gradientUnits="userSpaceOnUse" x1="512" y1="100.667" x2="512" y2="923.333">
	<stop  offset="0" style="stop-color:#3DDFAE"/>
	<stop  offset="1" style="stop-color:#4AB6DA"/>
</linearGradient>
<circle class="st6" cx="512" cy="512" r="411.3"/>
</svg>
