<?xml version="1.0" encoding="utf-8"?>
<!-- Generator: Adobe Illustrator 24.2.1, SVG Export Plug-In . SVG Version: 6.00 Build 0)  -->
<svg version="1.1" id="图层_1" xmlns="http://www.w3.org/2000/svg" xmlns:xlink="http://www.w3.org/1999/xlink" x="0px" y="0px"
	 viewBox="0 0 1024 1024" style="enable-background:new 0 0 1024 1024;" xml:space="preserve">
<style type="text/css">
	.st0{fill:url(#SVGID_1_);}
	.st1{opacity:0.2;fill:#FFFFFF;}
	.st2{fill:#FFFFFF;}
	.st3{fill:#44A5F7;}
	.st4{fill:url(#SVGID_2_);}
	.st5{fill:url(#SVGID_3_);}
	.st6{fill:url(#SVGID_4_);}
	.st7{fill:url(#SVGID_5_);}
	.st8{fill:url(#SVGID_6_);}
	.st9{fill:url(#SVGID_7_);}
	.st10{fill:url(#SVGID_8_);}
	.st11{fill:url(#SVGID_9_);}
	.st12{fill:url(#SVGID_10_);}
	.st13{opacity:0.2;fill:url(#SVGID_11_);}
</style>
<linearGradient id="SVGID_1_" gradientUnits="userSpaceOnUse" x1="511.5" y1="64.7757" x2="511.5" y2="960.7757">
	<stop  offset="0" style="stop-color:#62D0F1"/>
	<stop  offset="1" style="stop-color:#41A1F7"/>
</linearGradient>
<circle class="st0" cx="511.5" cy="512.8" r="448"/>
<path class="st1" d="M235,160.3L955.1,576c2.9-20.7,4.4-41.8,4.4-63.2c0-22-1.6-43.6-4.6-64.7L345.8,96.4
	C305.7,112.4,268.4,134,235,160.3z"/>
<path class="st1" d="M149.8,248.3l771.6,445.5c8.4-18.9,15.5-38.5,21.2-58.7L190.1,200.6C175.6,215.6,162.2,231.5,149.8,248.3z"/>
<path class="st1" d="M63.6,502.1l681.1,393.2c29.8-18.2,57.3-39.8,82-64.2L78.1,398.9C69.4,432,64.5,466.5,63.6,502.1z"/>
<path class="st2" d="M511.5,924.1c-55.5,0-109.4-10.9-160.1-32.3c-49-20.7-93-50.4-130.7-88.2c-37.8-37.8-67.4-81.8-88.2-130.7
	c-21.4-50.7-32.3-104.6-32.3-160.1c0-55.5,10.9-109.4,32.3-160.1c20.7-49,50.4-93,88.2-130.7c37.8-37.8,81.8-67.4,130.7-88.2
	c50.7-21.4,104.6-32.3,160.1-32.3c55.5,0,109.4,10.9,160.1,32.3c49,20.7,93,50.4,130.7,88.2c37.8,37.8,67.4,81.8,88.2,130.7
	c21.4,50.7,32.3,104.6,32.3,160.1c0,55.5-10.9,109.4-32.3,160.1c-20.7,49-50.4,93-88.2,130.7s-81.8,67.4-130.7,88.2
	C620.9,913.2,567,924.1,511.5,924.1z M511.5,105.4c-224.6,0-407.3,182.7-407.3,407.3s182.7,407.3,407.3,407.3
	s407.3-182.7,407.3-407.3S736.1,105.4,511.5,105.4z"/>
<path class="st2" d="M683.3,665.2c-28.4,0-55.7-8.5-79-24.5c-22.7-15.7-40.2-37.5-50.4-63l-1.3-3.1h-74.8l-1.3,3.1
	c-10.2,25.5-27.7,47.3-50.4,63c-23.3,16-50.6,24.5-79,24.5c-76.8,0-139.3-62.5-139.3-139.3c0-76.8,62.5-139.3,139.3-139.3h338.9
	l1.6,0.1c36.2,1.2,70.1,16.2,95.4,42.2c25.4,26.1,39.3,60.6,39.3,97C822.6,602.7,760.1,665.2,683.3,665.2z"/>
<path class="st3" d="M685.2,391.6l2.5,0.1c34.9,1.1,67.6,15.6,92,40.7c24.4,25.2,37.9,58.4,37.9,93.5c0,35.9-14,69.6-39.3,95
	c-25.4,25.4-59.1,39.3-95,39.3c-27.4,0-53.7-8.2-76.1-23.6c-21.9-15.1-38.7-36.1-48.6-60.7l-2.5-6.3h-6.8h-68h-6.8l-2.5,6.3
	c-9.9,24.6-26.7,45.6-48.6,60.7c-22.4,15.5-48.8,23.6-76.1,23.6c-35.9,0-69.6-14-95-39.3c-25.4-25.4-39.3-59.1-39.3-95
	s14-69.6,39.3-95c25.4-25.4,59.1-39.3,95-39.3H685.2 M688,381.6H347.3c-79.7,0-144.3,64.6-144.3,144.3s64.6,144.3,144.3,144.3
	c60.7,0,112.7-37.5,134-90.7h68c21.3,53.1,73.3,90.7,134,90.7c79.7,0,144.3-64.6,144.3-144.3C827.6,447.8,765.5,384.2,688,381.6
	L688,381.6L688,381.6z"/>
<path class="st2" d="M470.8,386.6v-19.1c0-8.3,6.7-15,15-15h52.4c8.3,0,15,6.7,15,15v19.1H470.8z"/>
<path class="st3" d="M538.2,357.6c5.5,0,10,4.5,10,10v14.1h-72.4v-14.1c0-5.5,4.5-10,10-10H538.2 M538.2,347.6h-52.4
	c-11,0-20,9-20,20v24.1h92.4v-24.1C558.2,356.5,549.3,347.6,538.2,347.6L538.2,347.6z"/>
<path class="st3" d="M521.1,347.6h-20v-46c0-5.5,4.5-10,10-10l0,0c5.5,0,10,4.5,10,10V347.6z"/>
<linearGradient id="SVGID_2_" gradientUnits="userSpaceOnUse" x1="272.7131" y1="523.2359" x2="406.2784" y2="523.2359">
	<stop  offset="0" style="stop-color:#62D0F1"/>
	<stop  offset="1" style="stop-color:#41A1F7"/>
</linearGradient>
<path class="st4" d="M389.4,540.2h-99.7c-9.3,0-16.9-7.6-16.9-16.9l0,0c0-9.3,7.6-16.9,16.9-16.9h99.7c9.3,0,16.9,7.6,16.9,16.9l0,0
	C406.3,532.6,398.7,540.2,389.4,540.2z"/>
<linearGradient id="SVGID_3_" gradientUnits="userSpaceOnUse" x1="272.7131" y1="523.2359" x2="406.2784" y2="523.2359" gradientTransform="matrix(4.489659e-11 -1 1 4.489659e-11 -183.7402 862.7316)">
	<stop  offset="0" style="stop-color:#62D0F1"/>
	<stop  offset="1" style="stop-color:#41A1F7"/>
</linearGradient>
<path class="st5" d="M356.4,473.4v99.7c0,9.3-7.6,16.9-16.9,16.9h0c-9.3,0-16.9-7.6-16.9-16.9v-99.7c0-9.3,7.6-16.9,16.9-16.9h0
	C348.8,456.5,356.4,464,356.4,473.4z"/>
<linearGradient id="SVGID_4_" gradientUnits="userSpaceOnUse" x1="669.8481" y1="478.6332" x2="710.3" y2="478.6332">
	<stop  offset="0" style="stop-color:#62D0F1"/>
	<stop  offset="1" style="stop-color:#41A1F7"/>
</linearGradient>
<circle class="st6" cx="690.1" cy="478.6" r="20.2"/>
<linearGradient id="SVGID_5_" gradientUnits="userSpaceOnUse" x1="669.8481" y1="572.6999" x2="710.3" y2="572.6999">
	<stop  offset="0" style="stop-color:#62D0F1"/>
	<stop  offset="1" style="stop-color:#41A1F7"/>
</linearGradient>
<circle class="st7" cx="690.1" cy="572.7" r="20.2"/>
<linearGradient id="SVGID_6_" gradientUnits="userSpaceOnUse" x1="670.8483" y1="479.6333" x2="711.3001" y2="479.6333" gradientTransform="matrix(4.489659e-11 -1 1 4.489659e-11 163.4074 1216.7407)">
	<stop  offset="0" style="stop-color:#62D0F1"/>
	<stop  offset="1" style="stop-color:#41A1F7"/>
</linearGradient>
<circle class="st8" cx="643" cy="525.7" r="20.2"/>
<linearGradient id="SVGID_7_" gradientUnits="userSpaceOnUse" x1="670.8483" y1="573.7" x2="711.3001" y2="573.7" gradientTransform="matrix(4.489659e-11 -1 1 4.489659e-11 163.4074 1216.7407)">
	<stop  offset="0" style="stop-color:#62D0F1"/>
	<stop  offset="1" style="stop-color:#41A1F7"/>
</linearGradient>
<circle class="st9" cx="737.1" cy="525.7" r="20.2"/>
<linearGradient id="SVGID_8_" gradientUnits="userSpaceOnUse" x1="491.6006" y1="449.2637" x2="534.5185" y2="449.2637">
	<stop  offset="0" style="stop-color:#62D0F1"/>
	<stop  offset="1" style="stop-color:#41A1F7"/>
</linearGradient>
<path class="st10" d="M527.3,456.5h-28.5c-4,0-7.2-3.2-7.2-7.2l0,0c0-4,3.2-7.2,7.2-7.2h28.5c4,0,7.2,3.2,7.2,7.2l0,0
	C534.5,453.2,531.3,456.5,527.3,456.5z"/>
<linearGradient id="SVGID_9_" gradientUnits="userSpaceOnUse" x1="491.6006" y1="480.5875" x2="534.5185" y2="480.5875">
	<stop  offset="0" style="stop-color:#62D0F1"/>
	<stop  offset="1" style="stop-color:#41A1F7"/>
</linearGradient>
<path class="st11" d="M527.3,487.8h-28.5c-4,0-7.2-3.2-7.2-7.2v0c0-4,3.2-7.2,7.2-7.2h28.5c4,0,7.2,3.2,7.2,7.2v0
	C534.5,484.6,531.3,487.8,527.3,487.8z"/>
<linearGradient id="SVGID_10_" gradientUnits="userSpaceOnUse" x1="491.6006" y1="511.1986" x2="534.5185" y2="511.1986">
	<stop  offset="0" style="stop-color:#62D0F1"/>
	<stop  offset="1" style="stop-color:#41A1F7"/>
</linearGradient>
<path class="st12" d="M527.3,518.4h-28.5c-4,0-7.2-3.2-7.2-7.2v0c0-4,3.2-7.2,7.2-7.2h28.5c4,0,7.2,3.2,7.2,7.2v0
	C534.5,515.2,531.3,518.4,527.3,518.4z"/>
<linearGradient id="SVGID_11_" gradientUnits="userSpaceOnUse" x1="512" y1="100.667" x2="512" y2="923.333">
	<stop  offset="0" style="stop-color:#62D0F1"/>
	<stop  offset="1" style="stop-color:#41A1F7"/>
</linearGradient>
<circle class="st13" cx="512" cy="512" r="411.3"/>
</svg>
