<?xml version="1.0" encoding="utf-8"?>
<!-- Generator: Adobe Illustrator 24.2.1, SVG Export Plug-In . SVG Version: 6.00 Build 0)  -->
<svg version="1.1" id="图层_1" xmlns="http://www.w3.org/2000/svg" xmlns:xlink="http://www.w3.org/1999/xlink" x="0px" y="0px"
	 viewBox="0 0 1024 1024" style="enable-background:new 0 0 1024 1024;" xml:space="preserve">
<style type="text/css">
	.st0{fill:url(#SVGID_1_);}
	.st1{opacity:0.2;fill:#FFFFFF;}
	.st2{fill:#FFFFFF;}
	.st3{fill:#44A5F7;}
	.st4{fill:url(#SVGID_2_);}
	.st5{opacity:0.2;fill:url(#SVGID_3_);}
</style>
<linearGradient id="SVGID_1_" gradientUnits="userSpaceOnUse" x1="511.5" y1="64.0012" x2="511.5" y2="960.0012">
	<stop  offset="0" style="stop-color:#62D0F1"/>
	<stop  offset="1" style="stop-color:#41A1F7"/>
</linearGradient>
<circle class="st0" cx="511.5" cy="512" r="448"/>
<path class="st1" d="M235,159.5l720.1,415.7c2.9-20.7,4.4-41.8,4.4-63.2c0-22-1.6-43.6-4.6-64.7L345.8,95.7
	C305.7,111.6,268.4,133.2,235,159.5z"/>
<path class="st1" d="M149.8,247.6L921.4,693c8.4-18.9,15.5-38.5,21.2-58.7L190.1,199.9C175.6,214.8,162.2,230.7,149.8,247.6z"/>
<path class="st1" d="M63.6,501.3l681.1,393.2c29.8-18.2,57.3-39.8,82-64.2L78.1,398.1C69.4,431.2,64.5,465.8,63.6,501.3z"/>
<path class="st2" d="M511.5,923.3c-55.5,0-109.4-10.9-160.1-32.3c-49-20.7-93-50.4-130.7-88.2c-37.8-37.8-67.4-81.8-88.2-130.7
	C111,621.4,100.2,567.5,100.2,512c0-55.5,10.9-109.4,32.3-160.1c20.7-49,50.4-93,88.2-130.7c37.8-37.8,81.8-67.4,130.7-88.2
	c50.7-21.4,104.6-32.3,160.1-32.3c55.5,0,109.4,10.9,160.1,32.3c49,20.7,93,50.4,130.7,88.2c37.8,37.8,67.4,81.8,88.2,130.7
	c21.4,50.7,32.3,104.6,32.3,160.1c0,55.5-10.9,109.4-32.3,160.1c-20.7,49-50.4,93-88.2,130.7s-81.8,67.4-130.7,88.2
	C620.9,912.5,567,923.3,511.5,923.3z M511.5,104.7c-224.6,0-407.3,182.7-407.3,407.3s182.7,407.3,407.3,407.3S918.8,736.6,918.8,512
	S736.1,104.7,511.5,104.7z"/>
<path class="st2" d="M512,761.4c-1.9,0-3.8-0.2-5.6-0.6c-14.6-3.2-52.7-13.9-92-43.9c-49.2-37.5-82.7-91.1-99.4-159.2
	c-3.4-13.8-5.1-28.2-5.1-43V343.2c0-11.3,9.2-20.6,20.6-20.6c0.2,0,0.5,0,0.7,0c3.6,0.1,7.3,0.2,11,0.2c46.6,0,111.8-9.6,157.9-55.3
	c3.2-3.2,7.4-4.9,11.9-4.9c0,0,0,0,0,0c4.5,0,8.7,1.7,11.9,4.9c46.1,45.7,111.3,55.3,157.9,55.3c3.7,0,7.4-0.1,11-0.2
	c0.2,0,0.5,0,0.7,0c11.4,0,20.6,9.2,20.6,20.6v171.6c0,14.8-1.7,29.2-5.1,43c-16.8,68.1-50.2,121.7-99.4,159.2
	c-39.3,30-77.4,40.7-92,43.9C515.8,761.2,513.9,761.4,512,761.4z"/>
<path class="st3" d="M512,267.6c3.1,0,6.1,1.2,8.4,3.5c47.3,46.9,113.9,56.8,161.4,56.8c3.7,0,7.5-0.1,11.2-0.2c0.2,0,0.4,0,0.6,0
	c8.6,0,15.6,7,15.6,15.6v171.6c0,14.4-1.7,28.4-5,41.8c-9,36.4-23,69.1-41.7,96.9c-15.5,23-34.3,43-55.9,59.5
	c-38.5,29.3-75.8,39.8-90,43c-1.5,0.3-3,0.5-4.5,0.5s-3-0.2-4.5-0.5c-14.2-3.1-51.5-13.6-90-43c-21.6-16.5-40.4-36.5-55.9-59.5
	c-18.7-27.9-32.8-60.5-41.7-96.9c-3.3-13.4-5-27.4-5-41.8V343.2c0-4.2,1.6-8.1,4.6-11c3-2.9,6.9-4.5,11-4.5c0.2,0,0.4,0,0.6,0
	c3.7,0.1,7.4,0.2,11.2,0.2c47.5,0,114.1-9.8,161.4-56.8C505.9,268.8,508.9,267.6,512,267.6 M512,257.6c-5.6,0-11.1,2.1-15.4,6.4
	c-46.2,45.8-113,53.9-154.4,53.9c-3.8,0-7.5-0.1-10.8-0.2c-0.3,0-0.6,0-0.9,0c-14.1,0-25.6,11.4-25.6,25.6v171.6
	c0,14.9,1.7,29.7,5.2,44.2C350.2,721.9,475,759,505.3,765.7c2.2,0.5,4.4,0.7,6.7,0.7c2.2,0,4.5-0.2,6.7-0.7
	c30.3-6.7,155.1-43.8,195.2-206.8c3.6-14.5,5.2-29.3,5.2-44.2V343.2c0-14.2-11.5-25.6-25.6-25.6c-0.3,0-0.6,0-0.9,0
	c-3.4,0.1-7,0.2-10.8,0.2c-41.3,0-108.2-8.1-154.4-53.9C523.1,259.7,517.6,257.6,512,257.6L512,257.6z"/>
<linearGradient id="SVGID_2_" gradientUnits="userSpaceOnUse" x1="519.8" y1="410.1865" x2="519.8" y2="605.584">
	<stop  offset="0" style="stop-color:#62D0F1"/>
	<stop  offset="1" style="stop-color:#41A1F7"/>
</linearGradient>
<path class="st4" d="M494.5,605.6c-3,0-5.8-1-8.2-2.8l-80.9-63c-5.8-4.5-6.8-12.9-2.3-18.7c2.5-3.3,6.4-5.1,10.5-5.1
	c3,0,5.8,1,8.2,2.8l70.4,54.8l123.2-158.3c2.5-3.3,6.4-5.1,10.5-5.1c3,0,5.8,1,8.2,2.8c5.8,4.5,6.8,12.9,2.3,18.7L505.1,600.5
	C502.5,603.7,498.7,605.6,494.5,605.6C494.5,605.6,494.5,605.6,494.5,605.6z"/>
<path class="st3" d="M626,415.2c1.3,0,3.2,0.3,5.1,1.7c3.6,2.8,4.3,8.1,1.5,11.7L501.1,597.4c-1.6,2-4,3.2-6.6,3.2
	c-1.3,0-3.2-0.3-5.1-1.7l-80.9-63c-3.6-2.8-4.3-8.1-1.5-11.7c1.6-2,4-3.2,6.6-3.2c1.3,0,3.2,0.3,5.1,1.7l66.4,51.7l7.9,6.1l6.1-7.9
	l120.1-154.3C620.9,416.3,623.4,415.2,626,415.2 M626,405.2c-5.5,0-10.9,2.4-14.5,7L491.3,566.6l-66.4-51.7
	c-3.3-2.6-7.3-3.8-11.2-3.8c-5.5,0-10.9,2.4-14.5,7v0c-6.2,8-4.8,19.5,3.2,25.7l80.9,63c3.3,2.6,7.3,3.8,11.2,3.8
	c5.5,0,10.9-2.4,14.5-7l0,0c0,0,0,0,0,0l131.4-168.8c6.2-8,4.8-19.5-3.2-25.7v0C633.9,406.4,629.9,405.2,626,405.2L626,405.2z"/>
<linearGradient id="SVGID_3_" gradientUnits="userSpaceOnUse" x1="512" y1="100.667" x2="512" y2="923.333">
	<stop  offset="0" style="stop-color:#62D0F1"/>
	<stop  offset="1" style="stop-color:#41A1F7"/>
</linearGradient>
<circle class="st5" cx="512" cy="512" r="411.3"/>
</svg>
