<?xml version="1.0" encoding="utf-8"?>
<!-- Generator: Adobe Illustrator 24.2.1, SVG Export Plug-In . SVG Version: 6.00 Build 0)  -->
<svg version="1.1" id="图层_1" xmlns="http://www.w3.org/2000/svg" xmlns:xlink="http://www.w3.org/1999/xlink" x="0px" y="0px"
	 viewBox="0 0 1024 1024" style="enable-background:new 0 0 1024 1024;" xml:space="preserve">
<style type="text/css">
	.st0{fill:url(#SVGID_1_);}
	.st1{opacity:0.2;fill:#FFFFFF;}
	.st2{fill:#FFFFFF;}
	.st3{fill:#FF8002;}
	.st4{fill:url(#SVGID_2_);}
	.st5{fill:url(#SVGID_3_);}
	.st6{opacity:0.2;fill:url(#SVGID_4_);}
</style>
<linearGradient id="SVGID_1_" gradientUnits="userSpaceOnUse" x1="512.6345" y1="64.3308" x2="512.6345" y2="960.3308">
	<stop  offset="0" style="stop-color:#FFDF00"/>
	<stop  offset="1" style="stop-color:#FF7002"/>
</linearGradient>
<circle class="st0" cx="512.6" cy="512.3" r="448"/>
<path class="st1" d="M236.1,159.8l720.1,415.7c2.9-20.7,4.4-41.8,4.4-63.2c0-22-1.6-43.6-4.6-64.7L346.9,96
	C306.8,112,269.6,133.6,236.1,159.8z"/>
<path class="st1" d="M151,247.9l771.6,445.5c8.4-18.9,15.5-38.5,21.2-58.7L191.3,200.2C176.8,215.1,163.3,231.1,151,247.9z"/>
<path class="st1" d="M64.8,501.7l681.1,393.2c29.8-18.2,57.3-39.8,82-64.2L79.2,398.5C70.6,431.5,65.6,466.1,64.8,501.7z"/>
<path class="st2" d="M512.6,923.7c-55.5,0-109.4-10.9-160.1-32.3c-49-20.7-93-50.4-130.7-88.2c-37.8-37.8-67.4-81.8-88.2-130.7
	c-21.4-50.7-32.3-104.6-32.3-160.1c0-55.5,10.9-109.4,32.3-160.1c20.7-49,50.4-93,88.2-130.7c37.8-37.8,81.8-67.4,130.7-88.2
	c50.7-21.4,104.6-32.3,160.1-32.3c55.5,0,109.4,10.9,160.1,32.3c49,20.7,93,50.4,130.7,88.2c37.8,37.8,67.4,81.8,88.2,130.7
	c21.4,50.7,32.3,104.6,32.3,160.1c0,55.5-10.9,109.4-32.3,160.1c-20.7,49-50.4,93-88.2,130.7s-81.8,67.4-130.7,88.2
	C622,912.8,568.2,923.7,512.6,923.7z M512.6,105C288,105,105.3,287.7,105.3,512.3S288,919.7,512.6,919.7S920,736.9,920,512.3
	S737.2,105,512.6,105z"/>
<path class="st2" d="M351.1,709.9c-8.2,0-15.9-3.4-21.1-9.3c-4.7-5.4-6.9-12.1-6-19L354,438.8c1.6-12.8,13.2-22.5,27.1-22.5h240.2
	c13.9,0,25.5,9.7,27.1,22.5l30.1,242.8c0.9,6.9-1.3,13.6-6,19c-5.2,5.9-12.9,9.3-21.1,9.3H351.1z"/>
<path class="st3" d="M621.4,421.3c11.4,0,20.9,7.8,22.2,18.1l30.1,242.8c0.7,5.5-1,10.8-4.8,15.1c-4.3,4.8-10.6,7.6-17.3,7.6H351.1
	c-6.8,0-13.1-2.8-17.3-7.6c-3.8-4.3-5.5-9.6-4.8-15.1L359,439.4c1.3-10.3,10.8-18.1,22.2-18.1H621.4 M621.4,411.3H381.2
	c-16.4,0-30.2,11.5-32.1,26.9L319,681c-2.2,18.1,12.8,33.9,32.1,33.9h300.4c19.3,0,34.3-15.8,32.1-33.9l-30.1-242.8
	C651.6,422.8,637.8,411.3,621.4,411.3L621.4,411.3z"/>
<linearGradient id="SVGID_2_" gradientUnits="userSpaceOnUse" x1="421.3228" y1="463.0186" x2="421.3228" y2="507.3311">
	<stop  offset="0" style="stop-color:#FFDF00"/>
	<stop  offset="1" style="stop-color:#FF7002"/>
</linearGradient>
<circle class="st4" cx="421.3" cy="485.2" r="22.2"/>
<path class="st3" d="M421.3,468c9.5,0,17.2,7.7,17.2,17.2c0,9.5-7.7,17.2-17.2,17.2s-17.2-7.7-17.2-17.2
	C404.2,475.7,411.9,468,421.3,468 M421.3,458c-15,0-27.2,12.2-27.2,27.2s12.2,27.2,27.2,27.2c15,0,27.2-12.2,27.2-27.2
	S436.3,458,421.3,458L421.3,458z"/>
<linearGradient id="SVGID_3_" gradientUnits="userSpaceOnUse" x1="581.5117" y1="463.0186" x2="581.5117" y2="507.3311">
	<stop  offset="0" style="stop-color:#FFDF00"/>
	<stop  offset="1" style="stop-color:#FF7002"/>
</linearGradient>
<circle class="st5" cx="581.5" cy="485.2" r="22.2"/>
<path class="st3" d="M581.5,468c9.5,0,17.2,7.7,17.2,17.2c0,9.5-7.7,17.2-17.2,17.2s-17.2-7.7-17.2-17.2
	C564.4,475.7,572.1,468,581.5,468 M581.5,458c-15,0-27.2,12.2-27.2,27.2s12.2,27.2,27.2,27.2s27.2-12.2,27.2-27.2
	S596.5,458,581.5,458L581.5,458z"/>
<path class="st2" d="M589.4,415.7v-15.4c0-24.9-9.1-48.4-25.8-66.1c-16.7-17.9-38.8-27.7-62.3-27.7c-23.5,0-45.6,9.8-62.3,27.7
	c-16.6,17.8-25.8,41.2-25.8,66.1v15.4h-23.2v-15.4c0-65.7,49.9-119.2,111.1-119.2s111.1,53.5,111.1,119.2v15.4H589.4z"/>
<path class="st3" d="M501.3,286.2c28.1,0,54.6,11.8,74.7,33.3c20.2,21.7,31.4,50.4,31.4,80.9v10.4h-13v-10.4
	c0-26.1-9.6-50.8-27.1-69.5c-17.7-18.9-41.1-29.3-65.9-29.3c-24.9,0-48.3,10.4-65.9,29.3c-17.5,18.7-27.1,43.4-27.1,69.5v10.4h-13.2
	v-10.4c0-30.5,11.2-59.2,31.4-80.9C446.6,298,473.2,286.2,501.3,286.2 M501.3,276.2c-63.8,0-116.1,55.8-116.1,124.2v20.4h33.2v-20.4
	c0-23.6,8.7-45.9,24.4-62.7c15.8-16.8,36.6-26.1,58.6-26.1c22.1,0,42.9,9.3,58.6,26.1c15.8,16.8,24.4,39.2,24.4,62.7v20.4h33v-20.4
	C617.4,332.1,565.2,276.2,501.3,276.2L501.3,276.2z M418.3,420.7L418.3,420.7L418.3,420.7L418.3,420.7z M418.3,420.7L418.3,420.7
	L418.3,420.7z"/>
<linearGradient id="SVGID_4_" gradientUnits="userSpaceOnUse" x1="512" y1="100.667" x2="512" y2="923.333">
	<stop  offset="0" style="stop-color:#FFDF00"/>
	<stop  offset="1" style="stop-color:#FF7002"/>
</linearGradient>
<circle class="st6" cx="512" cy="512" r="411.3"/>
</svg>
