<?xml version="1.0" encoding="utf-8"?>
<!-- Generator: Adobe Illustrator 24.2.1, SVG Export Plug-In . SVG Version: 6.00 Build 0)  -->
<svg version="1.1" id="图层_1" xmlns="http://www.w3.org/2000/svg" xmlns:xlink="http://www.w3.org/1999/xlink" x="0px" y="0px"
	 viewBox="0 0 1024 1024" style="enable-background:new 0 0 1024 1024;" xml:space="preserve">
<style type="text/css">
	.st0{fill:url(#SVGID_1_);}
	.st1{opacity:0.2;fill:#FFFFFF;}
	.st2{fill:#FFFFFF;}
	.st3{fill:#FF8002;}
	.st4{fill:url(#SVGID_2_);}
	.st5{opacity:0.2;fill:url(#SVGID_3_);}
</style>
<linearGradient id="SVGID_1_" gradientUnits="userSpaceOnUse" x1="512.7808" y1="64" x2="512.7808" y2="960">
	<stop  offset="0" style="stop-color:#FFDF00"/>
	<stop  offset="1" style="stop-color:#FF7002"/>
</linearGradient>
<circle class="st0" cx="512.8" cy="512" r="448"/>
<path class="st1" d="M236.3,159.5l720.1,415.7c2.9-20.7,4.4-41.8,4.4-63.2c0-22-1.6-43.6-4.6-64.7L347.1,95.7
	C307,111.6,269.7,133.2,236.3,159.5z"/>
<path class="st1" d="M151.1,247.6L922.7,693c8.4-18.9,15.5-38.5,21.2-58.7L191.4,199.9C176.9,214.8,163.4,230.7,151.1,247.6z"/>
<path class="st1" d="M64.9,501.3L746,894.6c29.8-18.2,57.3-39.8,82-64.2L79.4,398.1C70.7,431.2,65.7,465.8,64.9,501.3z"/>
<path class="st2" d="M512.8,923.3c-55.5,0-109.4-10.9-160.1-32.3c-49-20.7-93-50.4-130.7-88.2c-37.8-37.8-67.4-81.8-88.2-130.7
	c-21.4-50.7-32.3-104.6-32.3-160.1c0-55.5,10.9-109.4,32.3-160.1c20.7-49,50.4-93,88.2-130.7c37.8-37.8,81.8-67.4,130.7-88.2
	c50.7-21.4,104.6-32.3,160.1-32.3c55.5,0,109.4,10.9,160.1,32.3c49,20.7,93,50.4,130.7,88.2c37.8,37.8,67.4,81.8,88.2,130.7
	c21.4,50.7,32.3,104.6,32.3,160.1c0,55.5-10.9,109.4-32.3,160.1c-20.7,49-50.4,93-88.2,130.7s-81.8,67.4-130.7,88.2
	C622.2,912.5,568.3,923.3,512.8,923.3z M512.8,104.7c-224.6,0-407.3,182.7-407.3,407.3s182.7,407.3,407.3,407.3
	S920.1,736.6,920.1,512S737.4,104.7,512.8,104.7z"/>
<path class="st2" d="M358.9,680.9c-63.1,0-114.4-51.3-114.4-114.4c0-41.9,23.1-80.5,60.2-100.7l3.3-1.8l-0.8-3.6
	c-1.6-7.4-2.4-15.1-2.4-22.7c0-60.8,49.5-110.3,110.3-110.3c18.6,0,36.9,4.7,53.1,13.6l3.5,1.9l2.7-2.9
	c27.5-30.3,66.8-47.7,107.7-47.7c80.2,0,145.5,65.3,145.5,145.5c0,9.1-0.9,18.3-2.6,27.3l-0.6,3.3l2.8,1.8
	c33.1,21.3,52.9,57.3,52.9,96.4c0,63.1-51.3,114.4-114.4,114.4H358.9z"/>
<path class="st3" d="M582.1,297.1c37.5,0,72.8,14.6,99.3,41.1c26.5,26.5,41.1,61.8,41.1,99.3c0,8.8-0.8,17.7-2.5,26.4l-1.3,6.6
	l5.7,3.6c15.2,9.8,27.9,23.2,36.7,39c9.1,16.2,13.9,34.6,13.9,53.2c0,29.1-11.4,56.5-32.2,77.3c-20.7,20.7-48.2,32.2-77.3,32.2
	H358.9c-29.1,0-56.5-11.4-77.3-32.2c-20.7-20.7-32.2-48.2-32.2-77.3c0-40.1,22.1-77,57.6-96.3l6.5-3.6l-1.5-7.3
	c-1.5-7.1-2.2-14.4-2.2-21.7c0-58.1,47.2-105.3,105.3-105.3c17.7,0,35.2,4.5,50.7,13l6.9,3.8l5.3-5.8c13-14.4,28.6-25.7,46.2-33.7
	C542.4,301.3,561.9,297.1,582.1,297.1 M582.1,287.1c-44.2,0-83.9,19-111.4,49.3c-16.5-9.1-35.4-14.2-55.5-14.2
	c-63.7,0-115.3,51.6-115.3,115.3c0,8.1,0.9,16.1,2.5,23.8c-37.3,20.3-62.8,59.8-62.8,105.1v0c0,65.7,53.7,119.4,119.4,119.4h306.8
	c65.7,0,119.4-53.7,119.4-119.4v0c0-42.1-22.1-79.3-55.2-100.6c1.7-9.2,2.7-18.6,2.7-28.3C732.5,354.5,665.2,287.1,582.1,287.1
	L582.1,287.1z"/>
<linearGradient id="SVGID_2_" gradientUnits="userSpaceOnUse" x1="517.1199" y1="416.9331" x2="517.1199" y2="618.2129">
	<stop  offset="0" style="stop-color:#FFDF00"/>
	<stop  offset="1" style="stop-color:#FF7002"/>
</linearGradient>
<polygon class="st4" points="478.5,618.2 478.5,490.4 455.6,490.4 517.1,416.9 578.6,490.4 555.8,490.4 555.8,618.2 "/>
<path class="st3" d="M517.1,424.7l28.4,34l22.4,26.7h-7.1h-10v10v117.8h-67.3V495.4v-10h-10h-7.1l22.4-26.7L517.1,424.7
	 M517.1,409.1L481,452.3l-36.1,43.1h28.5v127.8h87.3V495.4h28.5l-36.1-43.1L517.1,409.1L517.1,409.1z"/>
<linearGradient id="SVGID_3_" gradientUnits="userSpaceOnUse" x1="508.1628" y1="106.3599" x2="508.1628" y2="929.0259">
	<stop  offset="0" style="stop-color:#FFDF00"/>
	<stop  offset="1" style="stop-color:#FF7002"/>
</linearGradient>
<circle class="st5" cx="508.2" cy="517.7" r="411.3"/>
</svg>
