<?xml version="1.0" encoding="utf-8"?>
<!-- Generator: Adobe Illustrator 24.2.1, SVG Export Plug-In . SVG Version: 6.00 Build 0)  -->
<svg version="1.1" id="图层_1" xmlns="http://www.w3.org/2000/svg" xmlns:xlink="http://www.w3.org/1999/xlink" x="0px" y="0px"
	 viewBox="0 0 1024 1024" style="enable-background:new 0 0 1024 1024;" xml:space="preserve">
<style type="text/css">
	.st0{fill:url(#SVGID_1_);}
	.st1{opacity:0.2;fill:#FFFFFF;}
	.st2{fill:#FFFFFF;}
	.st3{fill:#44A5F7;}
	.st4{fill:url(#SVGID_2_);}
	.st5{opacity:0.2;fill:url(#SVGID_3_);}
</style>
<linearGradient id="SVGID_1_" gradientUnits="userSpaceOnUse" x1="512.5001" y1="64.3352" x2="512.5001" y2="960.3352">
	<stop  offset="0" style="stop-color:#62D0F1"/>
	<stop  offset="1" style="stop-color:#41A1F7"/>
</linearGradient>
<circle class="st0" cx="512.5" cy="512.3" r="448"/>
<path class="st1" d="M236,159.8l720.1,415.7c2.9-20.7,4.4-41.8,4.4-63.2c0-22-1.6-43.6-4.6-64.7L346.8,96
	C306.7,112,269.4,133.6,236,159.8z"/>
<path class="st1" d="M150.8,247.9l771.6,445.5c8.4-18.9,15.5-38.5,21.2-58.7L191.1,200.2C176.6,215.1,163.2,231.1,150.8,247.9z"/>
<path class="st1" d="M64.6,501.7l681.1,393.2c29.8-18.2,57.3-39.8,82-64.2L79.1,398.5C70.4,431.5,65.5,466.1,64.6,501.7z"/>
<path class="st2" d="M512.5,923.7c-55.5,0-109.4-10.9-160.1-32.3c-49-20.7-93-50.4-130.7-88.2c-37.8-37.8-67.4-81.8-88.2-130.7
	c-21.4-50.7-32.3-104.6-32.3-160.1c0-55.5,10.9-109.4,32.3-160.1c20.7-49,50.4-93,88.2-130.7c37.8-37.8,81.8-67.4,130.7-88.2
	C403.1,111.9,457,101,512.5,101c55.5,0,109.4,10.9,160.1,32.3c49,20.7,93,50.4,130.7,88.2c37.8,37.8,67.4,81.8,88.2,130.7
	c21.4,50.7,32.3,104.6,32.3,160.1c0,55.5-10.9,109.4-32.3,160.1c-20.7,49-50.4,93-88.2,130.7s-81.8,67.4-130.7,88.2
	C621.9,912.8,568,923.7,512.5,923.7z M512.5,105c-224.6,0-407.3,182.7-407.3,407.3s182.7,407.3,407.3,407.3s407.3-182.7,407.3-407.3
	S737.1,105,512.5,105z"/>
<path class="st2" d="M456.3,762.1c-9.8,0-17.8-8-17.8-17.8V469h147v275.3c0,9.8-8,17.8-17.8,17.8H456.3z"/>
<path class="st3" d="M580.5,474v270.3c0,7.1-5.7,12.8-12.8,12.8H456.3c-7.1,0-12.8-5.7-12.8-12.8V474H580.5 M590.5,464h-157v280.3
	c0,12.6,10.2,22.8,22.8,22.8h111.4c12.6,0,22.8-10.2,22.8-22.8V464L590.5,464z"/>
<path class="st2" d="M437,468.8l-34-96v-22.9c0-5,3.6-9.1,8.1-9.1h201.8c4.5,0,8.1,4.1,8.1,9.1v22.9l-34,96H437z"/>
<path class="st3" d="M612.9,345.8c1.7,0,3.1,1.9,3.1,4.1v22l-32.6,91.9H440.5L408,371.9v-22c0-2.2,1.4-4.1,3.1-4.1H612.9
	 M612.9,335.8H411.1c-7.2,0-13.1,6.3-13.1,14.1v23.7l35.5,100.2h157L626,373.6v-23.7C626,342.1,620.1,335.8,612.9,335.8L612.9,335.8
	z"/>
<path class="st2" d="M415.6,311.6c-6.9,0-12.6-5.6-12.6-12.6s5.6-12.6,12.6-12.6h192.9c6.9,0,12.6,5.6,12.6,12.6
	s-5.6,12.6-12.6,12.6H415.6z"/>
<path class="st3" d="M608.4,291.5c4.2,0,7.6,3.4,7.6,7.6c0,4.2-3.4,7.6-7.6,7.6H415.6c-4.2,0-7.6-3.4-7.6-7.6s3.4-7.6,7.6-7.6H608.4
	 M608.4,281.5H415.6c-9.7,0-17.6,7.9-17.6,17.6v0c0,9.7,7.9,17.6,17.6,17.6h192.9c9.7,0,17.6-7.9,17.6-17.6v0
	C626,289.4,618.1,281.5,608.4,281.5L608.4,281.5z"/>
<linearGradient id="SVGID_2_" gradientUnits="userSpaceOnUse" x1="512" y1="504.7788" x2="512" y2="594.334">
	<stop  offset="0" style="stop-color:#62D0F1"/>
	<stop  offset="1" style="stop-color:#41A1F7"/>
</linearGradient>
<path class="st4" d="M512,594.3c-8.8,0-15.9-7.1-15.9-15.9v-57.8c0-8.8,7.1-15.9,15.9-15.9c8.8,0,15.9,7.1,15.9,15.9v57.8
	C527.9,587.2,520.8,594.3,512,594.3z"/>
<path class="st3" d="M512,509.8c6,0,10.9,4.9,10.9,10.9v57.8c0,6-4.9,10.9-10.9,10.9c-6,0-10.9-4.9-10.9-10.9v-57.8
	C501.1,514.7,506,509.8,512,509.8 M512,499.8L512,499.8c-11.5,0-20.9,9.4-20.9,20.9v57.8c0,11.5,9.4,20.9,20.9,20.9h0
	c11.5,0,20.9-9.4,20.9-20.9v-57.8C532.9,509.2,523.5,499.8,512,499.8L512,499.8z"/>
<linearGradient id="SVGID_3_" gradientUnits="userSpaceOnUse" x1="512" y1="100.667" x2="512" y2="923.333">
	<stop  offset="0" style="stop-color:#62D0F1"/>
	<stop  offset="1" style="stop-color:#41A1F7"/>
</linearGradient>
<circle class="st5" cx="512" cy="512" r="411.3"/>
</svg>
