<?xml version="1.0" encoding="utf-8"?>
<!-- Generator: Adobe Illustrator 24.2.1, SVG Export Plug-In . SVG Version: 6.00 Build 0)  -->
<svg version="1.1" id="图层_1" xmlns="http://www.w3.org/2000/svg" xmlns:xlink="http://www.w3.org/1999/xlink" x="0px" y="0px"
	 viewBox="0 0 1024 1024" style="enable-background:new 0 0 1024 1024;" xml:space="preserve">
<style type="text/css">
	.st0{fill:url(#SVGID_1_);}
	.st1{opacity:0.2;fill:#FFFFFF;}
	.st2{fill:#FFFFFF;}
	.st3{fill:#FF8002;}
	.st4{fill:url(#SVGID_2_);}
	.st5{fill:url(#SVGID_3_);}
	.st6{opacity:0.2;fill:url(#SVGID_4_);}
</style>
<linearGradient id="SVGID_1_" gradientUnits="userSpaceOnUse" x1="512" y1="64" x2="512" y2="960">
	<stop  offset="0" style="stop-color:#FFDF00"/>
	<stop  offset="1" style="stop-color:#FF7002"/>
</linearGradient>
<circle class="st0" cx="512" cy="512" r="448"/>
<path class="st1" d="M235.5,159.5l720.1,415.7c2.9-20.7,4.4-41.8,4.4-63.2c0-22-1.6-43.6-4.6-64.7L346.3,95.7
	C306.2,111.6,268.9,133.2,235.5,159.5z"/>
<path class="st1" d="M150.3,247.6L921.9,693c8.4-18.9,15.5-38.5,21.2-58.7L190.6,199.9C176.1,214.8,162.7,230.7,150.3,247.6z"/>
<path class="st1" d="M64.1,501.3l681.1,393.2c29.8-18.2,57.3-39.8,82-64.2L78.6,398.1C69.9,431.2,65,465.8,64.1,501.3z"/>
<path class="st2" d="M301.2,693.8c-25.1,0-45.5-20.4-45.5-45.5V375.7c0-25.1,20.4-45.5,45.5-45.5h421.7c25.1,0,45.5,20.4,45.5,45.5
	v272.6c0,25.1-20.4,45.5-45.5,45.5H301.2z"/>
<path class="st3" d="M722.8,335.2c22.3,0,40.5,18.2,40.5,40.5v272.6c0,22.3-18.2,40.5-40.5,40.5H301.2c-22.3,0-40.5-18.2-40.5-40.5
	V375.7c0-22.3,18.2-40.5,40.5-40.5H722.8 M722.8,325.2H301.2c-27.9,0-50.5,22.6-50.5,50.5v272.6c0,27.9,22.6,50.5,50.5,50.5h421.7
	c27.9,0,50.5-22.6,50.5-50.5V375.7C773.3,347.8,750.7,325.2,722.8,325.2L722.8,325.2z"/>
<linearGradient id="SVGID_2_" gradientUnits="userSpaceOnUse" x1="477.8325" y1="473.3477" x2="477.8325" y2="637.0801">
	<stop  offset="0" style="stop-color:#FFDF00"/>
	<stop  offset="1" style="stop-color:#FF7002"/>
</linearGradient>
<polygon class="st4" points="311.3,637.1 419.3,473.3 513.1,615.7 571.6,526.8 644.3,637.1 "/>
<path class="st3" d="M419.3,482.4l50.2,76.1l35.3,53.5l8.3,12.7l8.3-12.7l17.6-26.8l32.6-49.4l32.6,49.4l30.8,46.8h-63.3h-0.2h-35.1
	h-46.8h-70.3h-0.3h-98.5l48.5-73.5L419.3,482.4 M419.4,464l-0.2,0.2l-0.2-0.2v0.5l-58.4,88.6l-58.7,89h117h0.3h70.3h46.8h35.1h0.2
	h81.9l-41-62.3l-40.8-61.9v-0.3l-0.1,0.2l-0.1-0.2v0.3l-40.8,61.9l-17.6,26.8l-35.3-53.5l-58.4-88.6V464L419.4,464z"/>
<linearGradient id="SVGID_3_" gradientUnits="userSpaceOnUse" x1="648.4302" y1="384.2495" x2="648.4302" y2="483">
	<stop  offset="0" style="stop-color:#FFDF00"/>
	<stop  offset="1" style="stop-color:#FF7002"/>
</linearGradient>
<path class="st5" d="M648.4,483c-27.2,0-49.4-22.1-49.4-49.4s22.1-49.4,49.4-49.4s49.4,22.1,49.4,49.4S675.7,483,648.4,483z"/>
<path class="st3" d="M648.4,389.2c24.5,0,44.4,19.9,44.4,44.4S672.9,478,648.4,478s-44.4-19.9-44.4-44.4S624,389.2,648.4,389.2
	 M648.4,379.2c-30,0-54.4,24.3-54.4,54.4s24.3,54.4,54.4,54.4c30,0,54.4-24.3,54.4-54.4S678.5,379.2,648.4,379.2L648.4,379.2z"/>
<path class="st2" d="M512,923.3c-55.5,0-109.4-10.9-160.1-32.3c-49-20.7-93-50.4-130.7-88.2c-37.8-37.8-67.4-81.8-88.2-130.7
	c-21.4-50.7-32.3-104.6-32.3-160.1c0-55.5,10.9-109.4,32.3-160.1c20.7-49,50.4-93,88.2-130.7c37.8-37.8,81.8-67.4,130.7-88.2
	c50.7-21.4,104.6-32.3,160.1-32.3c55.5,0,109.4,10.9,160.1,32.3c49,20.7,93,50.4,130.7,88.2c37.8,37.8,67.4,81.8,88.2,130.7
	c21.4,50.7,32.3,104.6,32.3,160.1c0,55.5-10.9,109.4-32.3,160.1c-20.7,49-50.4,93-88.2,130.7s-81.8,67.4-130.7,88.2
	C621.4,912.5,567.5,923.3,512,923.3z M512,104.7c-224.6,0-407.3,182.7-407.3,407.3S287.4,919.3,512,919.3S919.3,736.6,919.3,512
	S736.6,104.7,512,104.7z"/>
<linearGradient id="SVGID_4_" gradientUnits="userSpaceOnUse" x1="512" y1="100.667" x2="512" y2="923.333">
	<stop  offset="0" style="stop-color:#FFDF00"/>
	<stop  offset="1" style="stop-color:#FF7002"/>
</linearGradient>
<circle class="st6" cx="512" cy="512" r="411.3"/>
</svg>
