<?xml version="1.0" encoding="utf-8"?>
<!-- Generator: Adobe Illustrator 24.2.1, SVG Export Plug-In . SVG Version: 6.00 Build 0)  -->
<svg version="1.1" id="图层_1" xmlns="http://www.w3.org/2000/svg" xmlns:xlink="http://www.w3.org/1999/xlink" x="0px" y="0px"
	 viewBox="0 0 1024 1024" style="enable-background:new 0 0 1024 1024;" xml:space="preserve">
<style type="text/css">
	.st0{fill:url(#SVGID_1_);}
	.st1{opacity:0.2;fill:#FFFFFF;}
	.st2{fill:#FFFFFF;}
	.st3{fill:#FF8002;}
	.st4{opacity:0.2;fill:url(#SVGID_2_);}
</style>
<linearGradient id="SVGID_1_" gradientUnits="userSpaceOnUse" x1="512.0063" y1="63.7503" x2="512.0063" y2="959.7503">
	<stop  offset="0" style="stop-color:#FFDF00"/>
	<stop  offset="1" style="stop-color:#FF7002"/>
</linearGradient>
<circle class="st0" cx="512" cy="511.8" r="448"/>
<path class="st1" d="M235.5,159.2L955.6,575c2.9-20.7,4.4-41.8,4.4-63.2c0-22-1.6-43.6-4.6-64.7L346.3,95.4
	C306.2,111.4,268.9,133,235.5,159.2z"/>
<path class="st1" d="M150.3,247.3l771.6,445.5c8.4-18.9,15.5-38.5,21.2-58.7L190.6,199.6C176.1,214.5,162.7,230.5,150.3,247.3z"/>
<path class="st1" d="M64.1,501.1l681.1,393.2c29.8-18.2,57.3-39.8,82-64.2L78.6,397.9C69.9,431,65,465.5,64.1,501.1z"/>
<path class="st2" d="M512,923.1c-55.5,0-109.4-10.9-160.1-32.3c-49-20.7-93-50.4-130.7-88.2c-37.8-37.8-67.4-81.8-88.2-130.7
	c-21.4-50.7-32.3-104.6-32.3-160.1c0-55.5,10.9-109.4,32.3-160.1c20.7-49,50.4-93,88.2-130.7c37.8-37.8,81.8-67.4,130.7-88.2
	c50.7-21.4,104.6-32.3,160.1-32.3c55.5,0,109.4,10.9,160.1,32.3c49,20.7,93,50.4,130.7,88.2c37.8,37.8,67.4,81.8,88.2,130.7
	c21.4,50.7,32.3,104.6,32.3,160.1c0,55.5-10.9,109.4-32.3,160.1c-20.7,49-50.4,93-88.2,130.7s-81.8,67.4-130.7,88.2
	C621.4,912.2,567.5,923.1,512,923.1z M512,104.4c-224.6,0-407.3,182.7-407.3,407.3S287.4,919.1,512,919.1s407.3-182.7,407.3-407.3
	S736.6,104.4,512,104.4z"/>
<path class="st2" d="M300.7,678.3c-21.5,0-39-17.5-39-39V384.7c0-3.7,0.5-7.4,1.5-10.9l234.7,212.7c3.6,3.2,8.3,5,13.3,5
	c5,0,9.7-1.8,13.3-5l236-213.9c1.3,3.9,1.9,8,1.9,12.1v254.7c0,21.5-17.5,39-39,39H300.7z"/>
<path class="st3" d="M757.2,382.2c0.1,0.8,0.1,1.6,0.1,2.5v254.7c0,18.7-15.3,34-34,34H300.7c-18.7,0-34-15.3-34-34V384.7
	c0-0.3,0-0.7,0-1l227.8,206.5c4.5,4.1,10.4,6.3,16.6,6.3c6.2,0,12.1-2.2,16.6-6.3L757.2,382.2 M762.2,364.2L521,582.8
	c-2.7,2.5-6.3,3.7-9.9,3.7s-7.2-1.2-9.9-3.7h0c0,0,0,0,0,0l-240-217.6c-2.9,5.9-4.6,12.5-4.6,19.4v254.7c0,24.2,19.8,44,44,44h422.7
	c24.2,0,44-19.8,44-44V384.7C767.3,377.3,765.5,370.3,762.2,364.2L762.2,364.2z"/>
<path class="st2" d="M288.7,347.6c3.8-1.2,7.9-1.9,11.9-1.9h422.7c3.6,0,7.2,0.5,10.6,1.5l-222.8,202L288.7,347.6z"/>
<path class="st3" d="M722.6,350.7L511.1,542.4L299.6,350.7c0.3,0,0.7,0,1,0H722.6 M723.3,340.7H300.7c-7.6,0-14.8,2-21,5.4
	l231.5,209.9l232.1-210.4C737.3,342.4,730.5,340.7,723.3,340.7L723.3,340.7z"/>
<linearGradient id="SVGID_2_" gradientUnits="userSpaceOnUse" x1="512" y1="100.667" x2="512" y2="923.333">
	<stop  offset="0" style="stop-color:#FFDF00"/>
	<stop  offset="1" style="stop-color:#FF7002"/>
</linearGradient>
<circle class="st4" cx="512" cy="512" r="411.3"/>
</svg>
