<?xml version="1.0" encoding="utf-8"?>
<!-- Generator: Adobe Illustrator 24.2.1, SVG Export Plug-In . SVG Version: 6.00 Build 0)  -->
<svg version="1.1" id="图层_1" xmlns="http://www.w3.org/2000/svg" xmlns:xlink="http://www.w3.org/1999/xlink" x="0px" y="0px"
	 viewBox="0 0 1024 1024" style="enable-background:new 0 0 1024 1024;" xml:space="preserve">
<style type="text/css">
	.st0{fill:url(#SVGID_1_);}
	.st1{opacity:0.2;fill:#FFFFFF;}
	.st2{fill:#FFFFFF;}
	.st3{fill:#44A5F7;}
	.st4{fill:url(#SVGID_2_);}
	.st5{fill:url(#SVGID_3_);}
	.st6{fill:url(#SVGID_4_);}
	.st7{fill:url(#SVGID_5_);}
	.st8{fill:url(#SVGID_6_);}
	.st9{fill:url(#SVGID_7_);}
	.st10{fill:url(#SVGID_8_);}
	.st11{fill:url(#SVGID_9_);}
	.st12{fill:url(#SVGID_10_);}
	.st13{fill:url(#SVGID_11_);}
	.st14{opacity:0.2;fill:url(#SVGID_12_);}
</style>
<linearGradient id="SVGID_1_" gradientUnits="userSpaceOnUse" x1="512.1104" y1="64.6665" x2="512.1104" y2="960.6664">
	<stop  offset="0" style="stop-color:#62D0F1"/>
	<stop  offset="1" style="stop-color:#41A1F7"/>
</linearGradient>
<circle class="st0" cx="512.1" cy="512.7" r="448"/>
<path class="st1" d="M235.6,160.2l720.1,415.7c2.9-20.7,4.4-41.8,4.4-63.2c0-22-1.6-43.6-4.6-64.7L346.4,96.3
	C306.3,112.3,269,133.9,235.6,160.2z"/>
<path class="st1" d="M150.4,248.2L922,693.7c8.4-18.9,15.5-38.5,21.2-58.7L190.8,200.5C176.2,215.5,162.8,231.4,150.4,248.2z"/>
<path class="st1" d="M64.2,502l681.1,393.2c29.8-18.2,57.3-39.8,82-64.2L78.7,398.8C70.1,431.9,65.1,466.4,64.2,502z"/>
<path class="st2" d="M512.1,924c-55.5,0-109.4-10.9-160.1-32.3c-49-20.7-93-50.4-130.7-88.2c-37.8-37.8-67.4-81.8-88.2-130.7
	c-21.4-50.7-32.3-104.6-32.3-160.1c0-55.5,10.9-109.4,32.3-160.1c20.7-49,50.4-93,88.2-130.7C259,184,303,154.4,352,133.7
	c50.7-21.4,104.6-32.3,160.1-32.3c55.5,0,109.4,10.9,160.1,32.3c49,20.7,93,50.4,130.7,88.2c37.8,37.8,67.4,81.8,88.2,130.7
	c21.4,50.7,32.3,104.6,32.3,160.1c0,55.5-10.9,109.4-32.3,160.1c-20.7,49-50.4,93-88.2,130.7s-81.8,67.4-130.7,88.2
	C621.5,913.1,567.6,924,512.1,924z M512.1,105.3c-224.6,0-407.3,182.7-407.3,407.3S287.5,920,512.1,920s407.3-182.7,407.3-407.3
	S736.7,105.3,512.1,105.3z"/>
<path class="st2" d="M364.4,751.9c-17.1,0-31-13.9-31-31V303.1c0-17.1,13.9-31,31-31h288.9c17.1,0,31,13.9,31,31v417.8
	c0,17.1-13.9,31-31,31H364.4z"/>
<path class="st3" d="M653.3,277.1c14.3,0,26,11.7,26,26v417.8c0,14.3-11.7,26-26,26H364.4c-14.3,0-26-11.7-26-26V303.1
	c0-14.3,11.7-26,26-26H653.3 M653.3,267.1H364.4c-19.9,0-36,16.1-36,36v417.8c0,19.9,16.1,36,36,36h288.9c19.9,0,36-16.1,36-36
	V303.1C689.3,283.2,673.2,267.1,653.3,267.1L653.3,267.1z"/>
<linearGradient id="SVGID_2_" gradientUnits="userSpaceOnUse" x1="508.8889" y1="321.7417" x2="508.8889" y2="395.2969">
	<stop  offset="0" style="stop-color:#62D0F1"/>
	<stop  offset="1" style="stop-color:#41A1F7"/>
</linearGradient>
<path class="st4" d="M385.8,395.3c-6.6,0-12-5.4-12-12v-49.5c0-6.6,5.4-12,12-12H632c6.6,0,12,5.4,12,12v49.5c0,6.6-5.4,12-12,12
	H385.8z"/>
<path class="st3" d="M632,326.7c3.9,0,7,3.2,7,7v49.5c0,3.9-3.2,7-7,7H385.8c-3.9,0-7-3.2-7-7v-49.5c0-3.9,3.2-7,7-7H632 M632,316.7
	H385.8c-9.4,0-17,7.6-17,17v49.5c0,9.4,7.6,17,17,17H632c9.4,0,17-7.6,17-17v-49.5C649,324.4,641.4,316.7,632,316.7L632,316.7z"/>
<linearGradient id="SVGID_3_" gradientUnits="userSpaceOnUse" x1="402.6296" y1="443.3706" x2="402.6296" y2="501.1479">
	<stop  offset="0" style="stop-color:#62D0F1"/>
	<stop  offset="1" style="stop-color:#41A1F7"/>
</linearGradient>
<path class="st5" d="M402.6,501.1c-15.9,0-28.9-13-28.9-28.9s13-28.9,28.9-28.9c15.9,0,28.9,13,28.9,28.9S418.6,501.1,402.6,501.1z"
	/>
<path class="st3" d="M402.6,448.4c13.2,0,23.9,10.7,23.9,23.9s-10.7,23.9-23.9,23.9s-23.9-10.7-23.9-23.9S389.5,448.4,402.6,448.4
	 M402.6,438.4c-18.7,0-33.9,15.2-33.9,33.9c0,18.7,15.2,33.9,33.9,33.9s33.9-15.2,33.9-33.9C436.5,453.5,421.3,438.4,402.6,438.4
	L402.6,438.4z"/>
<linearGradient id="SVGID_4_" gradientUnits="userSpaceOnUse" x1="508.8887" y1="443.3706" x2="508.8887" y2="501.1479">
	<stop  offset="0" style="stop-color:#62D0F1"/>
	<stop  offset="1" style="stop-color:#41A1F7"/>
</linearGradient>
<circle class="st6" cx="508.9" cy="472.3" r="28.9"/>
<path class="st3" d="M508.9,448.4c13.2,0,23.9,10.7,23.9,23.9s-10.7,23.9-23.9,23.9c-13.2,0-23.9-10.7-23.9-23.9
	S495.7,448.4,508.9,448.4 M508.9,438.4c-18.7,0-33.9,15.2-33.9,33.9c0,18.7,15.2,33.9,33.9,33.9s33.9-15.2,33.9-33.9
	C542.8,453.5,527.6,438.4,508.9,438.4L508.9,438.4z"/>
<linearGradient id="SVGID_5_" gradientUnits="userSpaceOnUse" x1="615.1484" y1="443.3706" x2="615.1484" y2="501.1479">
	<stop  offset="0" style="stop-color:#62D0F1"/>
	<stop  offset="1" style="stop-color:#41A1F7"/>
</linearGradient>
<circle class="st7" cx="615.1" cy="472.3" r="28.9"/>
<path class="st3" d="M615.1,448.4c13.2,0,23.9,10.7,23.9,23.9s-10.7,23.9-23.9,23.9s-23.9-10.7-23.9-23.9S602,448.4,615.1,448.4
	 M615.1,438.4c-18.7,0-33.9,15.2-33.9,33.9c0,18.7,15.2,33.9,33.9,33.9S649,491,649,472.3C649,453.5,633.9,438.4,615.1,438.4
	L615.1,438.4z"/>
<linearGradient id="SVGID_6_" gradientUnits="userSpaceOnUse" x1="402.6296" y1="537.2197" x2="402.6296" y2="594.998">
	<stop  offset="0" style="stop-color:#62D0F1"/>
	<stop  offset="1" style="stop-color:#41A1F7"/>
</linearGradient>
<path class="st8" d="M402.6,595c-15.9,0-28.9-13-28.9-28.9s13-28.9,28.9-28.9c15.9,0,28.9,13,28.9,28.9S418.6,595,402.6,595z"/>
<path class="st3" d="M402.6,542.2c13.2,0,23.9,10.7,23.9,23.9c0,13.2-10.7,23.9-23.9,23.9s-23.9-10.7-23.9-23.9
	C378.7,552.9,389.5,542.2,402.6,542.2 M402.6,532.2c-18.7,0-33.9,15.2-33.9,33.9s15.2,33.9,33.9,33.9s33.9-15.2,33.9-33.9
	S421.3,532.2,402.6,532.2L402.6,532.2z"/>
<linearGradient id="SVGID_7_" gradientUnits="userSpaceOnUse" x1="508.8887" y1="537.2197" x2="508.8887" y2="594.998">
	<stop  offset="0" style="stop-color:#62D0F1"/>
	<stop  offset="1" style="stop-color:#41A1F7"/>
</linearGradient>
<path class="st9" d="M508.9,595c-15.9,0-28.9-13-28.9-28.9s13-28.9,28.9-28.9c15.9,0,28.9,13,28.9,28.9S524.8,595,508.9,595z"/>
<path class="st3" d="M508.9,542.2c13.2,0,23.9,10.7,23.9,23.9c0,13.2-10.7,23.9-23.9,23.9c-13.2,0-23.9-10.7-23.9-23.9
	C485,552.9,495.7,542.2,508.9,542.2 M508.9,532.2c-18.7,0-33.9,15.2-33.9,33.9s15.2,33.9,33.9,33.9s33.9-15.2,33.9-33.9
	S527.6,532.2,508.9,532.2L508.9,532.2z"/>
<linearGradient id="SVGID_8_" gradientUnits="userSpaceOnUse" x1="615.1484" y1="537.2197" x2="615.1484" y2="594.998">
	<stop  offset="0" style="stop-color:#62D0F1"/>
	<stop  offset="1" style="stop-color:#41A1F7"/>
</linearGradient>
<path class="st10" d="M615.1,595c-15.9,0-28.9-13-28.9-28.9s13-28.9,28.9-28.9s28.9,13,28.9,28.9S631.1,595,615.1,595z"/>
<path class="st3" d="M615.1,542.2c13.2,0,23.9,10.7,23.9,23.9c0,13.2-10.7,23.9-23.9,23.9s-23.9-10.7-23.9-23.9
	C591.3,552.9,602,542.2,615.1,542.2 M615.1,532.2c-18.7,0-33.9,15.2-33.9,33.9s15.2,33.9,33.9,33.9s33.9-15.2,33.9-33.9
	S633.9,532.2,615.1,532.2L615.1,532.2z"/>
<linearGradient id="SVGID_9_" gradientUnits="userSpaceOnUse" x1="402.6296" y1="637.8877" x2="402.6296" y2="695.665">
	<stop  offset="0" style="stop-color:#62D0F1"/>
	<stop  offset="1" style="stop-color:#41A1F7"/>
</linearGradient>
<path class="st11" d="M402.6,695.7c-15.9,0-28.9-13-28.9-28.9s13-28.9,28.9-28.9c15.9,0,28.9,13,28.9,28.9S418.6,695.7,402.6,695.7z
	"/>
<path class="st3" d="M402.6,642.9c13.2,0,23.9,10.7,23.9,23.9c0,13.2-10.7,23.9-23.9,23.9s-23.9-10.7-23.9-23.9
	C378.7,653.6,389.5,642.9,402.6,642.9 M402.6,632.9c-18.7,0-33.9,15.2-33.9,33.9s15.2,33.9,33.9,33.9s33.9-15.2,33.9-33.9
	S421.3,632.9,402.6,632.9L402.6,632.9z"/>
<linearGradient id="SVGID_10_" gradientUnits="userSpaceOnUse" x1="508.8887" y1="637.8877" x2="508.8887" y2="695.665">
	<stop  offset="0" style="stop-color:#62D0F1"/>
	<stop  offset="1" style="stop-color:#41A1F7"/>
</linearGradient>
<circle class="st12" cx="508.9" cy="666.8" r="28.9"/>
<path class="st3" d="M508.9,642.9c13.2,0,23.9,10.7,23.9,23.9c0,13.2-10.7,23.9-23.9,23.9c-13.2,0-23.9-10.7-23.9-23.9
	C485,653.6,495.7,642.9,508.9,642.9 M508.9,632.9c-18.7,0-33.9,15.2-33.9,33.9s15.2,33.9,33.9,33.9s33.9-15.2,33.9-33.9
	S527.6,632.9,508.9,632.9L508.9,632.9z"/>
<linearGradient id="SVGID_11_" gradientUnits="userSpaceOnUse" x1="615.1484" y1="637.8877" x2="615.1484" y2="695.665">
	<stop  offset="0" style="stop-color:#62D0F1"/>
	<stop  offset="1" style="stop-color:#41A1F7"/>
</linearGradient>
<circle class="st13" cx="615.1" cy="666.8" r="28.9"/>
<path class="st3" d="M615.1,642.9c13.2,0,23.9,10.7,23.9,23.9c0,13.2-10.7,23.9-23.9,23.9s-23.9-10.7-23.9-23.9
	C591.3,653.6,602,642.9,615.1,642.9 M615.1,632.9c-18.7,0-33.9,15.2-33.9,33.9s15.2,33.9,33.9,33.9s33.9-15.2,33.9-33.9
	S633.9,632.9,615.1,632.9L615.1,632.9z"/>
<linearGradient id="SVGID_12_" gradientUnits="userSpaceOnUse" x1="512" y1="100.667" x2="512" y2="923.333">
	<stop  offset="0" style="stop-color:#62D0F1"/>
	<stop  offset="1" style="stop-color:#41A1F7"/>
</linearGradient>
<circle class="st14" cx="512" cy="512" r="411.3"/>
</svg>
