<?xml version="1.0" encoding="utf-8"?>
<!-- Generator: Adobe Illustrator 24.2.1, SVG Export Plug-In . SVG Version: 6.00 Build 0)  -->
<svg version="1.1" id="图层_1" xmlns="http://www.w3.org/2000/svg" xmlns:xlink="http://www.w3.org/1999/xlink" x="0px" y="0px"
	 viewBox="0 0 1024 1024" style="enable-background:new 0 0 1024 1024;" xml:space="preserve">
<style type="text/css">
	.st0{fill:url(#SVGID_1_);}
	.st1{opacity:0.2;fill:#FFFFFF;}
	.st2{fill:#FFFFFF;}
	.st3{fill:#FF3D60;}
	.st4{opacity:0.2;fill:url(#SVGID_2_);}
</style>
<linearGradient id="SVGID_1_" gradientUnits="userSpaceOnUse" x1="512" y1="63.5" x2="512" y2="959.5">
	<stop  offset="0" style="stop-color:#FFA8B4"/>
	<stop  offset="1" style="stop-color:#FF3358"/>
</linearGradient>
<circle class="st0" cx="512" cy="511.5" r="448"/>
<path class="st1" d="M235.5,159l720.1,415.7c2.9-20.7,4.4-41.8,4.4-63.2c0-22-1.6-43.6-4.6-64.7L346.3,95.2
	C306.2,111.1,268.9,132.7,235.5,159z"/>
<path class="st1" d="M150.3,247.1l771.6,445.5c8.4-18.9,15.5-38.5,21.2-58.7L190.6,199.4C176.1,214.3,162.7,230.2,150.3,247.1z"/>
<path class="st1" d="M64.1,500.8l681.1,393.2c29.8-18.2,57.3-39.8,82-64.2L78.6,397.6C69.9,430.7,65,465.3,64.1,500.8z"/>
<path class="st2" d="M512,922.8c-55.5,0-109.4-10.9-160.1-32.3c-49-20.7-93-50.4-130.7-88.2c-37.8-37.8-67.4-81.8-88.2-130.7
	c-21.4-50.7-32.3-104.6-32.3-160.1c0-55.5,10.9-109.4,32.3-160.1c20.7-49,50.4-93,88.2-130.7c37.8-37.8,81.8-67.4,130.7-88.2
	c50.7-21.4,104.6-32.3,160.1-32.3c55.5,0,109.4,10.9,160.1,32.3c49,20.7,93,50.4,130.7,88.2c37.8,37.8,67.4,81.8,88.2,130.7
	c21.4,50.7,32.3,104.6,32.3,160.1c0,55.5-10.9,109.4-32.3,160.1c-20.7,49-50.4,93-88.2,130.7s-81.8,67.4-130.7,88.2
	C621.4,912,567.5,922.8,512,922.8z M512,104.2c-224.6,0-407.3,182.7-407.3,407.3S287.4,918.8,512,918.8s407.3-182.7,407.3-407.3
	S736.6,104.2,512,104.2z"/>
<path class="st2" d="M512,305.3c55.2,0,107.1,21.5,146.1,60.5s60.5,90.9,60.5,146.1c0,55.2-21.5,107.1-60.5,146.1
	s-90.9,60.5-146.1,60.5s-107.1-21.5-146.1-60.5s-60.5-90.9-60.5-146.1c0-55.2,21.5-107.1,60.5-146.1S456.8,305.3,512,305.3
	 M512,245.3c-147.3,0-266.7,119.4-266.7,266.7c0,147.3,119.4,266.7,266.7,266.7S778.7,659.3,778.7,512
	C778.7,364.7,659.3,245.3,512,245.3L512,245.3z"/>
<path class="st3" d="M512,783.7c-72.6,0-140.8-28.3-192.1-79.6S240.3,584.6,240.3,512c0-72.6,28.3-140.8,79.6-192.1
	s119.5-79.6,192.1-79.6c72.6,0,140.8,28.3,192.1,79.6c51.3,51.3,79.6,119.5,79.6,192.1s-28.3,140.8-79.6,192.1
	C652.8,755.4,584.6,783.7,512,783.7z M512,250.3c-144.3,0-261.7,117.4-261.7,261.7c0,144.3,117.4,261.7,261.7,261.7
	c144.3,0,261.7-117.4,261.7-261.7C773.7,367.7,656.3,250.3,512,250.3z M512,723.7c-56.5,0-109.7-22-149.7-62
	c-40-40-62-93.1-62-149.7s22-109.7,62-149.7c40-40,93.1-62,149.7-62c56.5,0,109.7,22,149.7,62s62,93.1,62,149.7s-22,109.7-62,149.7
	S568.5,723.7,512,723.7z M512,310.3c-53.9,0-104.5,21-142.6,59.1c-38.1,38.1-59.1,88.7-59.1,142.6c0,53.9,21,104.5,59.1,142.6
	c38.1,38.1,88.7,59.1,142.6,59.1c53.9,0,104.5-21,142.6-59.1s59.1-88.7,59.1-142.6s-21-104.5-59.1-142.6S565.9,310.3,512,310.3z"/>
<g>
	<path class="st2" d="M581.9,636.3c-2.7,0-5.3-0.7-7.8-2l-49.7-26.1c-3.8-2-8.1-3.1-12.4-3.1c-4.3,0-8.6,1.1-12.4,3.1l-49.7,26.1
		c-2.5,1.3-5.1,2-7.8,2c-4.8,0-9.6-2.3-12.8-6.1c-3.2-3.8-4.5-8.6-3.6-13.5l9.5-55.4c1.5-8.7-1.4-17.5-7.7-23.6l-40.2-39.2
		c-4.7-4.5-6.2-10.9-4.2-17.1c2-6.2,7-10.4,13.5-11.4l55.6-8.1c8.7-1.3,16.2-6.7,20.1-14.6L497,397c2.9-5.8,8.5-9.3,15-9.3
		c6.5,0,12.1,3.5,15,9.3l24.9,50.4c3.9,7.9,11.4,13.3,20.1,14.6l55.6,8.1c6.4,0.9,11.5,5.2,13.5,11.4c2,6.2,0.4,12.6-4.2,17.1
		l-40.2,39.2c-6.3,6.1-9.2,15-7.7,23.6l9.5,55.4c0.8,4.9-0.4,9.7-3.6,13.5C591.6,634.1,586.8,636.3,581.9,636.3z"/>
</g>
<g>
	<g>
		<path class="st3" d="M512,392.7c4.6,0,8.5,2.4,10.5,6.5l24.9,50.4c4.6,9.4,13.5,15.8,23.9,17.3l55.6,8.1c4.5,0.7,8,3.6,9.4,8
			c1.4,4.3,0.3,8.8-3,12l-40.2,39.2c-7.5,7.3-10.9,17.8-9.1,28.1l9.5,55.4c0.8,4.4-0.9,7.6-2.5,9.4c-2.3,2.7-5.6,4.3-9,4.3
			c-1.9,0-3.7-0.5-5.4-1.4l-49.7-26.1c-4.5-2.4-9.6-3.6-14.7-3.6s-10.2,1.3-14.7,3.6l-49.7,26.1c-1.8,0.9-3.6,1.4-5.4,1.4
			c-3.4,0-6.8-1.6-9-4.3c-1.6-1.9-3.3-5-2.5-9.4l9.5-55.4c1.8-10.3-1.6-20.8-9.1-28.1l-40.2-39.2c-3.3-3.2-4.4-7.7-3-12
			c1.4-4.3,4.9-7.3,9.4-8l55.6-8.1c10.3-1.5,19.2-8,23.9-17.3l24.9-50.4C503.5,395.1,507.4,392.7,512,392.7 M512,382.7
			c-7.7,0-15.5,4-19.5,12.1l-24.9,50.4c-3.2,6.4-9.3,10.8-16.3,11.9l-55.6,8.1c-17.8,2.6-24.9,24.5-12,37l40.2,39.2
			c5.1,5,7.4,12.2,6.2,19.2l-9.5,55.4c-2.4,14,8.7,25.4,21.4,25.4c3.3,0,6.8-0.8,10.1-2.5l49.7-26.1c3.2-1.7,6.6-2.5,10.1-2.5
			c3.5,0,6.9,0.8,10.1,2.5l49.7,26.1c3.3,1.7,6.8,2.5,10.1,2.5c12.6,0,23.8-11.4,21.4-25.4l-9.5-55.4c-1.2-7,1.1-14.2,6.2-19.2
			l40.2-39.2c12.9-12.6,5.8-34.4-12-37l-55.6-8.1c-7.1-1-13.2-5.5-16.3-11.9l-24.9-50.4C527.5,386.7,519.7,382.7,512,382.7
			L512,382.7z"/>
	</g>
</g>
<linearGradient id="SVGID_2_" gradientUnits="userSpaceOnUse" x1="512" y1="100.667" x2="512" y2="923.333">
	<stop  offset="0" style="stop-color:#FFA8B4"/>
	<stop  offset="1" style="stop-color:#FF3358"/>
</linearGradient>
<circle class="st4" cx="512" cy="512" r="411.3"/>
</svg>
