<?xml version="1.0" encoding="utf-8"?>
<!-- Generator: Adobe Illustrator 24.2.1, SVG Export Plug-In . SVG Version: 6.00 Build 0)  -->
<svg version="1.1" id="图层_1" xmlns="http://www.w3.org/2000/svg" xmlns:xlink="http://www.w3.org/1999/xlink" x="0px" y="0px"
	 viewBox="0 0 1024 1024" style="enable-background:new 0 0 1024 1024;" xml:space="preserve">
<style type="text/css">
	.st0{fill:url(#SVGID_1_);}
	.st1{opacity:0.2;fill:#FFFFFF;}
	.st2{fill:#FFFFFF;}
	.st3{fill:#FF8002;}
	.st4{fill:url(#SVGID_2_);}
	.st5{opacity:0.2;fill:url(#SVGID_3_);}
</style>
<linearGradient id="SVGID_1_" gradientUnits="userSpaceOnUse" x1="511.5" y1="64" x2="511.5" y2="960">
	<stop  offset="0" style="stop-color:#FFDF00"/>
	<stop  offset="1" style="stop-color:#FF7002"/>
</linearGradient>
<circle class="st0" cx="511.5" cy="512" r="448"/>
<path class="st1" d="M235,159.5l720.1,415.7c2.9-20.7,4.4-41.8,4.4-63.2c0-22-1.6-43.6-4.6-64.7L345.8,95.7
	C305.7,111.6,268.4,133.2,235,159.5z"/>
<path class="st1" d="M149.8,247.6L921.4,693c8.4-18.9,15.5-38.5,21.2-58.7L190.1,199.9C175.6,214.8,162.2,230.7,149.8,247.6z"/>
<path class="st1" d="M63.6,501.3l681.1,393.2c29.8-18.2,57.3-39.8,82-64.2L78.1,398.1C69.4,431.2,64.5,465.8,63.6,501.3z"/>
<path class="st2" d="M511.5,923.3c-55.5,0-109.4-10.9-160.1-32.3c-49-20.7-93-50.4-130.7-88.2c-37.8-37.8-67.4-81.8-88.2-130.7
	C111,621.4,100.2,567.5,100.2,512c0-55.5,10.9-109.4,32.3-160.1c20.7-49,50.4-93,88.2-130.7c37.8-37.8,81.8-67.4,130.7-88.2
	c50.7-21.4,104.6-32.3,160.1-32.3c55.5,0,109.4,10.9,160.1,32.3c49,20.7,93,50.4,130.7,88.2c37.8,37.8,67.4,81.8,88.2,130.7
	c21.4,50.7,32.3,104.6,32.3,160.1c0,55.5-10.9,109.4-32.3,160.1c-20.7,49-50.4,93-88.2,130.7s-81.8,67.4-130.7,88.2
	C620.9,912.5,567,923.3,511.5,923.3z M511.5,104.7c-224.6,0-407.3,182.7-407.3,407.3s182.7,407.3,407.3,407.3S918.8,736.6,918.8,512
	S736.1,104.7,511.5,104.7z"/>
<path class="st2" d="M436.1,636.4c-43.3,0-85.4-15.4-118.6-43.4c-37.5-31.7-60.4-76.1-64.5-125c-4.1-48.9,11.1-96.5,42.8-134
	c35-41.4,86.2-65.2,140.5-65.2c43.3,0,85.4,15.4,118.6,43.4c77.4,65.4,87.2,181.6,21.7,259C541.6,612.6,490.4,636.4,436.1,636.4z"/>
<path class="st3" d="M436.3,273.7c20.7,0,41,3.5,60.4,10.5c20,7.2,38.5,17.9,55,31.8c36.5,30.8,58.8,74,62.8,121.6
	c4,47.6-10.8,93.9-41.6,130.4c-34.1,40.3-83.9,63.4-136.7,63.4c-20.7,0-41-3.5-60.4-10.5c-20-7.2-38.5-17.9-55-31.8
	c-36.5-30.8-58.8-74-62.8-121.6c-4-47.6,10.8-93.9,41.6-130.4C333.6,296.8,383.5,273.7,436.3,273.7L436.3,273.7 M436.3,263.7
	c-53.7,0-107,22.8-144.3,66.9c-67.3,79.6-57.3,198.8,22.3,266.1c35.5,30,78.7,44.6,121.8,44.6c53.7,0,107-22.8,144.3-66.9
	c67.3-79.6,57.3-198.8-22.3-266.1C522.6,278.4,479.3,263.7,436.3,263.7L436.3,263.7z"/>
<rect x="598.6" y="542.2" transform="matrix(0.6455 -0.7638 0.7638 0.6455 -244.5825 698.2158)" class="st2" width="62.5" height="140.7"/>
<path class="st3" d="M596.9,550.3l99.8,84.4l-33.9,40.1L563,590.5L596.9,550.3 M595.7,536.2l-46.8,55.4L664,688.9l46.8-55.4
	L595.7,536.2L595.7,536.2z"/>
<path class="st2" d="M722.4,731.7c-9.6,0-19-3.4-26.3-9.6l-39.3-33.2l52.7-62.4l39.3,33.2c17.2,14.5,19.4,40.3,4.8,57.5
	C745.8,726.4,734.5,731.7,722.4,731.7z"/>
<path class="st3" d="M710.1,633.5l35.4,29.9c15.1,12.7,17,35.4,4.2,50.5c-6.8,8.1-16.8,12.7-27.4,12.7c-8.4,0-16.6-3-23.1-8.5
	l-35.4-29.9L710.1,633.5 M708.9,619.4l-59.2,70l43.1,36.4c8.6,7.3,19.1,10.8,29.6,10.8c13,0,26-5.5,35-16.2l0,0
	c16.3-19.3,13.9-48.2-5.4-64.6L708.9,619.4L708.9,619.4z"/>
<linearGradient id="SVGID_2_" gradientUnits="userSpaceOnUse" x1="436.1653" y1="347.4785" x2="436.1653" y2="557.5928">
	<stop  offset="0" style="stop-color:#FFDF00"/>
	<stop  offset="1" style="stop-color:#FF7002"/>
</linearGradient>
<path class="st4" d="M436.1,557.6c-24.8,0-48.8-8.8-67.8-24.8c-21.4-18.1-34.5-43.5-36.9-71.5c-2.3-28,6.3-55.2,24.4-76.6
	c20-23.7,49.3-37.2,80.3-37.2c24.8,0,48.8,8.8,67.8,24.8c21.4,18.1,34.5,43.5,36.9,71.5c2.3,28-6.3,55.2-24.4,76.6
	C496.4,544,467.1,557.6,436.1,557.6z"/>
<path class="st3" d="M436.2,352.5c23.6,0,46.5,8.4,64.5,23.6c20.4,17.3,32.9,41.4,35.1,68.1c2.2,26.6-6,52.5-23.3,73
	c-19.1,22.5-46.9,35.5-76.5,35.5c-23.6,0-46.5-8.4-64.5-23.6c-42.1-35.6-47.4-98.9-11.8-141C378.8,365.4,406.7,352.5,436.2,352.5
	L436.2,352.5 M436.2,342.5c-31.3,0-62.3,13.3-84.1,39c-39.2,46.4-33.4,115.9,13,155.1c20.7,17.5,45.9,26,71,26
	c31.3,0,62.3-13.3,84.1-39c39.2-46.4,33.4-115.9-13-155.1C486.5,351,461.3,342.5,436.2,342.5L436.2,342.5z"/>
<linearGradient id="SVGID_3_" gradientUnits="userSpaceOnUse" x1="512" y1="100.667" x2="512" y2="923.333">
	<stop  offset="0" style="stop-color:#FFDF00"/>
	<stop  offset="1" style="stop-color:#FF7002"/>
</linearGradient>
<circle class="st5" cx="512" cy="512" r="411.3"/>
</svg>
