<?xml version="1.0" encoding="utf-8"?>
<!-- Generator: Adobe Illustrator 24.2.1, SVG Export Plug-In . SVG Version: 6.00 Build 0)  -->
<svg version="1.1" id="图层_1" xmlns="http://www.w3.org/2000/svg" xmlns:xlink="http://www.w3.org/1999/xlink" x="0px" y="0px"
	 viewBox="0 0 1024 1024" style="enable-background:new 0 0 1024 1024;" xml:space="preserve">
<style type="text/css">
	.st0{fill:url(#SVGID_1_);}
	.st1{opacity:0.2;fill:#FFFFFF;}
	.st2{fill:#FFFFFF;}
	.st3{fill:#7579EA;}
	.st4{fill:url(#SVGID_2_);}
	.st5{opacity:0.2;fill:url(#SVGID_3_);}
</style>
<linearGradient id="SVGID_1_" gradientUnits="userSpaceOnUse" x1="512.2096" y1="64.5625" x2="512.2096" y2="960.5624">
	<stop  offset="0" style="stop-color:#D776EA"/>
	<stop  offset="1" style="stop-color:#607AEA"/>
</linearGradient>
<circle class="st0" cx="512.2" cy="512.6" r="448"/>
<path class="st1" d="M235.7,160l720.1,415.7c2.9-20.7,4.4-41.8,4.4-63.2c0-22-1.6-43.6-4.6-64.7L346.5,96.2
	C306.4,112.2,269.1,133.8,235.7,160z"/>
<path class="st1" d="M150.5,248.1l771.6,445.5c8.4-18.9,15.5-38.5,21.2-58.7L190.8,200.4C176.3,215.4,162.9,231.3,150.5,248.1z"/>
<path class="st1" d="M64.3,501.9l681.1,393.2c29.8-18.2,57.3-39.8,82-64.2L78.8,398.7C70.2,431.8,65.2,466.3,64.3,501.9z"/>
<path class="st2" d="M512.2,923.9c-55.5,0-109.4-10.9-160.1-32.3c-49-20.7-93-50.4-130.7-88.2c-37.8-37.8-67.4-81.8-88.2-130.7
	c-21.4-50.7-32.3-104.6-32.3-160.1c0-55.5,10.9-109.4,32.3-160.1c20.7-49,50.4-93,88.2-130.7c37.8-37.8,81.8-67.4,130.7-88.2
	c50.7-21.4,104.6-32.3,160.1-32.3c55.5,0,109.4,10.9,160.1,32.3c49,20.7,93,50.4,130.7,88.2c37.8,37.8,67.4,81.8,88.2,130.7
	c21.4,50.7,32.3,104.6,32.3,160.1c0,55.5-10.9,109.4-32.3,160.1c-20.7,49-50.4,93-88.2,130.7s-81.8,67.4-130.7,88.2
	C621.6,913,567.7,923.9,512.2,923.9z M512.2,105.2c-224.6,0-407.3,182.7-407.3,407.3s182.7,407.3,407.3,407.3
	s407.3-182.7,407.3-407.3S736.8,105.2,512.2,105.2z"/>
<path class="st2" d="M512,757.7c-65.6,0-127.3-25.6-173.7-72s-72-108.1-72-173.7s25.6-127.3,72-173.7c46.4-46.4,108.1-72,173.7-72
	s127.3,25.6,173.7,72s72,108.1,72,173.7s-25.6,127.3-72,173.7S577.6,757.7,512,757.7z"/>
<path class="st3" d="M512,271.3c32.5,0,64,6.4,93.7,18.9c28.7,12.1,54.4,29.5,76.5,51.6c22.1,22.1,39.5,47.8,51.6,76.5
	c12.5,29.7,18.9,61.2,18.9,93.7s-6.4,64-18.9,93.7c-12.1,28.7-29.5,54.4-51.6,76.5c-22.1,22.1-47.8,39.5-76.5,51.6
	c-29.7,12.5-61.2,18.9-93.7,18.9c-32.5,0-64-6.4-93.7-18.9c-28.7-12.1-54.4-29.5-76.5-51.6c-22.1-22.1-39.5-47.8-51.6-76.5
	c-12.5-29.7-18.9-61.2-18.9-93.7s6.4-64,18.9-93.7c12.1-28.7,29.5-54.4,51.6-76.5c22.1-22.1,47.8-39.5,76.5-51.6
	C448,277.7,479.5,271.3,512,271.3 M512,261.3c-138.4,0-250.7,112.2-250.7,250.7S373.6,762.7,512,762.7S762.7,650.4,762.7,512
	S650.4,261.3,512,261.3L512,261.3z"/>
<linearGradient id="SVGID_2_" gradientUnits="userSpaceOnUse" x1="449.9639" y1="512" x2="594.0381" y2="512">
	<stop  offset="0" style="stop-color:#D776EA"/>
	<stop  offset="1" style="stop-color:#607AEA"/>
</linearGradient>
<path class="st4" d="M468.7,600.7c-9,0-18.7-7.1-18.7-18.7V442c0-11.5,9.7-18.7,18.7-18.7c3.6,0,7.1,1.1,10.2,3.1l106.8,70
	c5.4,3.5,8.4,9.2,8.4,15.6c0,6.4-3.1,12.1-8.4,15.6l-106.8,70C475.7,599.6,472.2,600.7,468.7,600.7
	C468.7,600.7,468.7,600.7,468.7,600.7z"/>
<path class="st3" d="M468.7,428.3c2.6,0,5.1,0.8,7.4,2.3l50.2,32.9l56.6,37.1c3.9,2.6,6.2,6.7,6.2,11.4c0,4.7-2.2,8.8-6.2,11.4
	l-56.6,37.1l-50.2,32.9c-2.3,1.5-4.8,2.3-7.4,2.3c-6.6,0-13.7-5.2-13.7-13.7v-70v-70C455,433.5,462.1,428.3,468.7,428.3
	 M468.7,418.3c-12.3,0-23.7,9.8-23.7,23.7v70v70c0,13.9,11.4,23.7,23.7,23.7c4.3,0,8.8-1.2,12.9-3.9l50.2-32.9l56.6-37.1
	c14.2-9.3,14.2-30.2,0-39.5l-56.6-37.1l-50.2-32.9C477.5,419.5,473,418.3,468.7,418.3L468.7,418.3z"/>
<linearGradient id="SVGID_3_" gradientUnits="userSpaceOnUse" x1="512" y1="100.667" x2="512" y2="923.333">
	<stop  offset="0" style="stop-color:#D776EA"/>
	<stop  offset="1" style="stop-color:#607AEA"/>
</linearGradient>
<circle class="st5" cx="512" cy="512" r="411.3"/>
</svg>
