<?xml version="1.0" encoding="utf-8"?>
<!-- Generator: Adobe Illustrator 24.2.1, SVG Export Plug-In . SVG Version: 6.00 Build 0)  -->
<svg version="1.1" id="图层_1" xmlns="http://www.w3.org/2000/svg" xmlns:xlink="http://www.w3.org/1999/xlink" x="0px" y="0px"
	 viewBox="0 0 1024 1024" style="enable-background:new 0 0 1024 1024;" xml:space="preserve">
<style type="text/css">
	.st0{fill:url(#SVGID_1_);}
	.st1{opacity:0.2;fill:#FFFFFF;}
	.st2{fill:#FFFFFF;}
	.st3{fill:#7579EA;}
	.st4{fill:url(#SVGID_2_);}
	.st5{opacity:0.2;fill:url(#SVGID_3_);}
</style>
<linearGradient id="SVGID_1_" gradientUnits="userSpaceOnUse" x1="512.7776" y1="64.695" x2="512.7776" y2="960.695">
	<stop  offset="0" style="stop-color:#D776EA"/>
	<stop  offset="1" style="stop-color:#607AEA"/>
</linearGradient>
<circle class="st0" cx="512.8" cy="512.7" r="448"/>
<path class="st1" d="M236.3,160.2l720.1,415.7c2.9-20.7,4.4-41.8,4.4-63.2c0-22-1.6-43.6-4.6-64.7L347.1,96.4
	C307,112.3,269.7,133.9,236.3,160.2z"/>
<path class="st1" d="M151.1,248.3l771.6,445.5c8.4-18.9,15.5-38.5,21.2-58.7L191.4,200.6C176.9,215.5,163.4,231.4,151.1,248.3z"/>
<path class="st1" d="M64.9,502L746,895.3c29.8-18.2,57.3-39.8,82-64.2L79.4,398.8C70.7,431.9,65.7,466.5,64.9,502z"/>
<path class="st2" d="M512.8,924c-55.5,0-109.4-10.9-160.1-32.3c-49-20.7-93-50.4-130.7-88.2c-37.8-37.8-67.4-81.8-88.2-130.7
	c-21.4-50.7-32.3-104.6-32.3-160.1c0-55.5,10.9-109.4,32.3-160.1c20.7-49,50.4-93,88.2-130.7c37.8-37.8,81.8-67.4,130.7-88.2
	c50.7-21.4,104.6-32.3,160.1-32.3c55.5,0,109.4,10.9,160.1,32.3c49,20.7,93,50.4,130.7,88.2c37.8,37.8,67.4,81.8,88.2,130.7
	c21.4,50.7,32.3,104.6,32.3,160.1c0,55.5-10.9,109.4-32.3,160.1c-20.7,49-50.4,93-88.2,130.7s-81.8,67.4-130.7,88.2
	C622.2,913.2,568.3,924,512.8,924z M512.8,105.4c-224.6,0-407.3,182.7-407.3,407.3S288.2,920,512.8,920s407.3-182.7,407.3-407.3
	S737.4,105.4,512.8,105.4z"/>
<path class="st2" d="M475.2,303.4V254c0-4.2,3.4-7.7,7.7-7.7h62.7c4.2,0,7.7,3.4,7.7,7.7v49.4H475.2z"/>
<path class="st3" d="M545.6,251.3c1.5,0,2.7,1.2,2.7,2.7v44.4h-68V254c0-1.5,1.2-2.7,2.7-2.7H545.6 M545.6,241.3h-62.7
	c-7,0-12.7,5.7-12.7,12.7v54.4h88V254C558.2,247,552.6,241.3,545.6,241.3L545.6,241.3z"/>
<path class="st2" d="M482.9,777.7c-4.2,0-7.7-3.4-7.7-7.7v-53h78v53c0,4.2-3.4,7.7-7.7,7.7H482.9z"/>
<path class="st3" d="M548.2,722v48c0,1.5-1.2,2.7-2.7,2.7h-62.7c-1.5,0-2.7-1.2-2.7-2.7v-48H548.2 M558.2,712h-88v58
	c0,7,5.7,12.7,12.7,12.7h62.7c7,0,12.7-5.7,12.7-12.7V712L558.2,712z"/>
<path class="st2" d="M304.2,357.1c-3-3-3-7.9,0-10.8l44.3-44.3c1.4-1.4,3.4-2.2,5.4-2.2c2,0,4,0.8,5.4,2.2l39.1,39.1l-55.2,55.2
	L304.2,357.1z"/>
<path class="st3" d="M353.9,304.7c0.5,0,1.2,0.1,1.9,0.8l35.6,35.6l-48.1,48.1l-35.6-35.6c-1-1-1-2.7,0-3.8l44.3-44.3
	C352.7,304.9,353.4,304.7,353.9,304.7 M353.9,294.7c-3.2,0-6.5,1.2-9,3.7l-44.3,44.3c-4.9,4.9-4.9,13,0,17.9l42.7,42.7l62.2-62.2
	l-42.7-42.7C360.4,296,357.2,294.7,353.9,294.7L353.9,294.7z"/>
<path class="st2" d="M674.5,724.3c-2,0-4-0.8-5.4-2.2l-37.3-37.3l55.2-55.2l37.3,37.3c3,3,3,7.9,0,10.8L679.9,722
	C678.5,723.5,676.5,724.3,674.5,724.3z"/>
<path class="st3" d="M686.9,636.6l33.8,33.8c1,1,1,2.7,0,3.8l-44.3,44.3c-0.6,0.6-1.4,0.8-1.9,0.8c-0.5,0-1.2-0.1-1.9-0.8
	l-33.8-33.8L686.9,636.6 M686.9,622.4l-62.2,62.2l40.9,40.9c2.5,2.5,5.7,3.7,9,3.7c3.2,0,6.5-1.2,9-3.7l44.3-44.3
	c4.9-4.9,4.9-13,0-17.9L686.9,622.4L686.9,622.4z"/>
<path class="st2" d="M256.2,551c-4.2,0-7.7-3.4-7.7-7.7v-62.7c0-4.2,3.4-7.7,7.7-7.7h54.3v78H256.2z"/>
<path class="st3" d="M305.6,478v68h-49.3c-1.5,0-2.7-1.2-2.7-2.7v-62.7c0-1.5,1.2-2.7,2.7-2.7H305.6 M315.6,468h-59.3
	c-7,0-12.7,5.7-12.7,12.7v62.7c0,7,5.7,12.7,12.7,12.7h59.3V468L315.6,468z"/>
<path class="st2" d="M715.2,551v-78h57c4.2,0,7.7,3.4,7.7,7.7v62.7c0,4.2-3.4,7.7-7.7,7.7H715.2z"/>
<path class="st3" d="M772.2,478c1.5,0,2.7,1.2,2.7,2.7v62.7c0,1.5-1.2,2.7-2.7,2.7h-52v-68H772.2 M772.2,468h-62v88h62
	c7,0,12.7-5.7,12.7-12.7v-62.7C784.9,473.7,779.2,468,772.2,468L772.2,468z"/>
<path class="st2" d="M353.9,724.3c-2,0-4-0.8-5.4-2.2l-44.3-44.3c-1.4-1.4-2.2-3.4-2.2-5.4s0.8-4,2.2-5.4l35.6-35.6l55.2,55.2
	L359.4,722C357.9,723.5,356,724.3,353.9,724.3z"/>
<path class="st3" d="M339.8,638.4l48.1,48.1l-32,32c-0.6,0.6-1.4,0.8-1.9,0.8c-0.5,0-1.2-0.1-1.9-0.8l-44.3-44.3c-1-1-1-2.7,0-3.8
	L339.8,638.4 M339.8,624.2l-39.1,39.1c-4.9,4.9-4.9,13,0,17.9l44.3,44.3c2.5,2.5,5.7,3.7,9,3.7s6.5-1.2,9-3.7l39.1-39.1L339.8,624.2
	L339.8,624.2z"/>
<path class="st2" d="M631.3,339.8l37.8-37.8c1.4-1.4,3.4-2.2,5.4-2.2s4,0.8,5.4,2.2l44.3,44.3c3,3,3,7.9,0,10.8l-37.8,37.8
	L631.3,339.8z"/>
<path class="st3" d="M674.5,304.7c0.5,0,1.2,0.1,1.9,0.8l44.3,44.3c1,1,1,2.7,0,3.8l-34.3,34.3l-48.1-48.1l34.3-34.3
	C673.3,304.9,674,304.7,674.5,304.7 M674.5,294.7c-3.2,0-6.5,1.2-9,3.7l-41.3,41.3l62.2,62.2l41.3-41.3c4.9-4.9,4.9-13,0-17.9
	l-44.3-44.3C681,296,677.7,294.7,674.5,294.7L674.5,294.7z"/>
<circle class="st2" cx="512" cy="512" r="211"/>
<path class="st3" d="M512,306c27.8,0,54.8,5.4,80.2,16.2c24.5,10.4,46.6,25.2,65.5,44.2s33.8,41,44.2,65.5
	c10.7,25.4,16.2,52.4,16.2,80.2c0,27.8-5.4,54.8-16.2,80.2c-10.4,24.5-25.2,46.6-44.2,65.5s-41,33.8-65.5,44.2
	C566.8,712.6,539.8,718,512,718s-54.8-5.4-80.2-16.2c-24.5-10.4-46.6-25.2-65.5-44.2s-33.8-41-44.2-65.5
	C311.4,566.8,306,539.8,306,512c0-27.8,5.4-54.8,16.2-80.2c10.4-24.5,25.2-46.6,44.2-65.5s41-33.8,65.5-44.2
	C457.2,311.4,484.2,306,512,306 M512,296c-119.3,0-216,96.7-216,216s96.7,216,216,216s216-96.7,216-216S631.3,296,512,296L512,296z"
	/>
<linearGradient id="SVGID_2_" gradientUnits="userSpaceOnUse" x1="512.0002" y1="430.4751" x2="512.0002" y2="593.5254">
	<stop  offset="0" style="stop-color:#D776EA"/>
	<stop  offset="1" style="stop-color:#607AEA"/>
</linearGradient>
<circle class="st4" cx="512" cy="512" r="81.5"/>
<path class="st3" d="M512,435.5c42.2,0,76.5,34.3,76.5,76.5c0,42.2-34.3,76.5-76.5,76.5s-76.5-34.3-76.5-76.5
	C435.5,469.8,469.8,435.5,512,435.5 M512,425.5c-47.8,0-86.5,38.7-86.5,86.5s38.7,86.5,86.5,86.5s86.5-38.7,86.5-86.5
	S559.8,425.5,512,425.5L512,425.5z"/>
<linearGradient id="SVGID_3_" gradientUnits="userSpaceOnUse" x1="512" y1="100.667" x2="512" y2="923.333">
	<stop  offset="0" style="stop-color:#D776EA"/>
	<stop  offset="1" style="stop-color:#607AEA"/>
</linearGradient>
<circle class="st5" cx="512" cy="512" r="411.3"/>
</svg>
