<?xml version="1.0" encoding="utf-8"?>
<!-- Generator: Adobe Illustrator 24.2.1, SVG Export Plug-In . SVG Version: 6.00 Build 0)  -->
<svg version="1.1" id="图层_1" xmlns="http://www.w3.org/2000/svg" xmlns:xlink="http://www.w3.org/1999/xlink" x="0px" y="0px"
	 viewBox="0 0 1024 1024" style="enable-background:new 0 0 1024 1024;" xml:space="preserve">
<style type="text/css">
	.st0{fill:url(#SVGID_1_);}
	.st1{opacity:0.2;fill:#FFFFFF;}
	.st2{fill:#FFFFFF;}
	.st3{fill:#44A5F7;}
	.st4{fill:url(#SVGID_2_);}
	.st5{fill:url(#SVGID_3_);}
	.st6{fill:url(#SVGID_4_);}
	.st7{fill:url(#SVGID_5_);}
	.st8{fill:url(#SVGID_6_);}
	.st9{fill:url(#SVGID_7_);}
	.st10{opacity:0.2;fill:url(#SVGID_8_);}
</style>
<linearGradient id="SVGID_1_" gradientUnits="userSpaceOnUse" x1="511.2303" y1="64.5673" x2="511.2303" y2="960.5673">
	<stop  offset="0" style="stop-color:#62D0F1"/>
	<stop  offset="1" style="stop-color:#41A1F7"/>
</linearGradient>
<circle class="st0" cx="511.2" cy="512.6" r="448"/>
<path class="st1" d="M234.7,160.1l720.1,415.7c2.9-20.7,4.4-41.8,4.4-63.2c0-22-1.6-43.6-4.6-64.7L345.5,96.2
	C305.4,112.2,268.1,133.8,234.7,160.1z"/>
<path class="st1" d="M149.6,248.1l771.6,445.5c8.4-18.9,15.5-38.5,21.2-58.7L189.9,200.4C175.4,215.4,161.9,231.3,149.6,248.1z"/>
<path class="st1" d="M63.4,501.9l681.1,393.2c29.8-18.2,57.3-39.8,82-64.2L77.8,398.7C69.2,431.8,64.2,466.3,63.4,501.9z"/>
<path class="st2" d="M511.2,923.9c-55.5,0-109.4-10.9-160.1-32.3c-49-20.7-93-50.4-130.7-88.2c-37.8-37.8-67.4-81.8-88.2-130.7
	C110.8,622,99.9,568.1,99.9,512.6c0-55.5,10.9-109.4,32.3-160.1c20.7-49,50.4-93,88.2-130.7c37.8-37.8,81.8-67.4,130.7-88.2
	c50.7-21.4,104.6-32.3,160.1-32.3c55.5,0,109.4,10.9,160.1,32.3c49,20.7,93,50.4,130.7,88.2c37.8,37.8,67.4,81.8,88.2,130.7
	c21.4,50.7,32.3,104.6,32.3,160.1c0,55.5-10.9,109.4-32.3,160.1c-20.7,49-50.4,93-88.2,130.7s-81.8,67.4-130.7,88.2
	C620.6,913,566.8,923.9,511.2,923.9z M511.2,105.2c-224.6,0-407.3,182.7-407.3,407.3s182.7,407.3,407.3,407.3
	s407.3-182.7,407.3-407.3S735.8,105.2,511.2,105.2z"/>
<path class="st2" d="M500.1,705.2c-17.1-4.8-67.5-17.3-123.1-17.3c-37.1,0-69.9,5.5-97.5,16.5V337.2c10.5-7.3,56.6-36.9,114.9-36.9
	c37.8,0,73.4,12.4,105.8,36.9V705.2z"/>
<path class="st3" d="M394.4,305.3c35.9,0,69.8,11.6,100.8,34.4v358.9c-21.4-5.6-67.7-15.8-118.1-15.8c-34.7,0-65.8,4.8-92.5,14.3
	V339.9C297.8,331,340.8,305.4,394.4,305.3L394.4,305.3 M394.4,295.3c-61.8,0-109.9,32.2-118.6,38.3c-0.8,0.6-1.4,1.6-1.4,2.7v370.3
	c0,1.9,1.6,3.3,3.4,3.3c0.4,0,0.8-0.1,1.3-0.3c30.9-12.7,65.4-17,97.9-17c57.6,0,109,13.5,123.9,17.7c0.3,0.1,0.7,0.1,1,0.1
	c1.8,0,3.3-1.4,3.3-3.3V336.3c0-1-0.5-2-1.4-2.6C466,305,428.1,295.3,394.4,295.3L394.4,295.3z"/>
<linearGradient id="SVGID_2_" gradientUnits="userSpaceOnUse" x1="334.6463" y1="412.0704" x2="446.2108" y2="412.0704">
	<stop  offset="0" style="stop-color:#62D0F1"/>
	<stop  offset="1" style="stop-color:#41A1F7"/>
</linearGradient>
<path class="st4" d="M437.1,421.2h-93.4c-5,0-9.1-4.1-9.1-9.1l0,0c0-5,4.1-9.1,9.1-9.1h93.4c5,0,9.1,4.1,9.1,9.1l0,0
	C446.2,417.1,442.1,421.2,437.1,421.2z"/>
<linearGradient id="SVGID_3_" gradientUnits="userSpaceOnUse" x1="334.6463" y1="488.0834" x2="446.2108" y2="488.0834">
	<stop  offset="0" style="stop-color:#62D0F1"/>
	<stop  offset="1" style="stop-color:#41A1F7"/>
</linearGradient>
<path class="st5" d="M437.1,497.2h-93.4c-5,0-9.1-4.1-9.1-9.1l0,0c0-5,4.1-9.1,9.1-9.1h93.4c5,0,9.1,4.1,9.1,9.1l0,0
	C446.2,493.1,442.1,497.2,437.1,497.2z"/>
<linearGradient id="SVGID_4_" gradientUnits="userSpaceOnUse" x1="334.6463" y1="564.0055" x2="446.2108" y2="564.0055">
	<stop  offset="0" style="stop-color:#62D0F1"/>
	<stop  offset="1" style="stop-color:#41A1F7"/>
</linearGradient>
<path class="st6" d="M437.1,573.1h-93.4c-5,0-9.1-4.1-9.1-9.1l0,0c0-5,4.1-9.1,9.1-9.1h93.4c5,0,9.1,4.1,9.1,9.1l0,0
	C446.2,569,442.1,573.1,437.1,573.1z"/>
<path class="st2" d="M743.4,705.2c-17.1-4.8-67.5-17.3-123.1-17.3c-37.1,0-69.9,5.5-97.5,16.5V337.2c10.5-7.3,56.6-36.9,114.9-36.9
	c37.8,0,73.4,12.4,105.8,36.9V705.2z"/>
<path class="st3" d="M637.7,305.3c35.9,0,69.8,11.6,100.8,34.4v358.9c-21.4-5.6-67.7-15.8-118.1-15.8c-34.7,0-65.8,4.8-92.5,14.3
	V339.9C541.1,331,584.1,305.4,637.7,305.3L637.7,305.3 M637.7,295.3c-61.8,0-109.9,32.2-118.6,38.3c-0.8,0.6-1.4,1.6-1.4,2.7v370.3
	c0,1.9,1.6,3.3,3.4,3.3c0.4,0,0.8-0.1,1.3-0.3c30.9-12.7,65.4-17,97.9-17c57.6,0,109,13.5,123.9,17.7c0.3,0.1,0.7,0.1,1,0.1
	c1.8,0,3.3-1.4,3.3-3.3V336.3c0-1-0.5-2-1.4-2.6C709.3,305,671.5,295.3,637.7,295.3L637.7,295.3z"/>
<linearGradient id="SVGID_5_" gradientUnits="userSpaceOnUse" x1="577.9607" y1="412.0704" x2="689.5253" y2="412.0704">
	<stop  offset="0" style="stop-color:#62D0F1"/>
	<stop  offset="1" style="stop-color:#41A1F7"/>
</linearGradient>
<path class="st7" d="M680.3,421.2h-93.3c-5,0-9.1-4.1-9.1-9.1l0,0c0-5,4.1-9.1,9.1-9.1h93.4c5,0,9.1,4.1,9.1,9.1l0,0
	C689.4,417.1,685.3,421.2,680.3,421.2z"/>
<linearGradient id="SVGID_6_" gradientUnits="userSpaceOnUse" x1="577.9607" y1="488.0834" x2="689.5253" y2="488.0834">
	<stop  offset="0" style="stop-color:#62D0F1"/>
	<stop  offset="1" style="stop-color:#41A1F7"/>
</linearGradient>
<path class="st8" d="M680.3,497.2h-93.3c-5,0-9.1-4.1-9.1-9.1l0,0c0-5,4.1-9.1,9.1-9.1h93.4c5,0,9.1,4.1,9.1,9.1l0,0
	C689.4,493.1,685.3,497.2,680.3,497.2z"/>
<linearGradient id="SVGID_7_" gradientUnits="userSpaceOnUse" x1="577.9607" y1="564.0055" x2="689.5253" y2="564.0055">
	<stop  offset="0" style="stop-color:#62D0F1"/>
	<stop  offset="1" style="stop-color:#41A1F7"/>
</linearGradient>
<path class="st9" d="M680.3,573.1h-93.3c-5,0-9.1-4.1-9.1-9.1l0,0c0-5,4.1-9.1,9.1-9.1h93.4c5,0,9.1,4.1,9.1,9.1l0,0
	C689.4,569,685.3,573.1,680.3,573.1z"/>
<linearGradient id="SVGID_8_" gradientUnits="userSpaceOnUse" x1="512" y1="100.667" x2="512" y2="923.333">
	<stop  offset="0" style="stop-color:#62D0F1"/>
	<stop  offset="1" style="stop-color:#41A1F7"/>
</linearGradient>
<circle class="st10" cx="512" cy="512" r="411.3"/>
</svg>
