<?xml version="1.0" encoding="utf-8"?>
<!-- Generator: Adobe Illustrator 24.2.1, SVG Export Plug-In . SVG Version: 6.00 Build 0)  -->
<svg version="1.1" id="图层_1" xmlns="http://www.w3.org/2000/svg" xmlns:xlink="http://www.w3.org/1999/xlink" x="0px" y="0px"
	 viewBox="0 0 1024 1024" style="enable-background:new 0 0 1024 1024;" xml:space="preserve">
<style type="text/css">
	.st0{fill:url(#SVGID_1_);}
	.st1{opacity:0.2;fill:#FFFFFF;}
	.st2{fill:#FFFFFF;}
	.st3{fill:url(#SVGID_2_);}
	.st4{fill:url(#SVGID_3_);}
	.st5{fill:url(#SVGID_4_);}
	.st6{fill:url(#SVGID_5_);}
	.st7{fill:url(#SVGID_6_);}
	.st8{fill:url(#SVGID_7_);}
	.st9{fill:url(#SVGID_8_);}
	.st10{fill:url(#SVGID_9_);}
	.st11{fill:url(#SVGID_10_);}
	.st12{fill:url(#SVGID_11_);}
	.st13{opacity:0.2;fill:url(#SVGID_12_);}
</style>
<linearGradient id="SVGID_1_" gradientUnits="userSpaceOnUse" x1="512.1104" y1="64.6665" x2="512.1104" y2="960.6664">
	<stop  offset="0" style="stop-color:#62D0F1"/>
	<stop  offset="1" style="stop-color:#41A1F7"/>
</linearGradient>
<circle class="st0" cx="512.1" cy="512.7" r="448"/>
<path class="st1" d="M235.6,160.2l720.1,415.7c2.9-20.7,4.4-41.8,4.4-63.2c0-22-1.6-43.6-4.6-64.7L346.4,96.3
	C306.3,112.3,269,133.9,235.6,160.2z"/>
<path class="st1" d="M150.4,248.2L922,693.7c8.4-18.9,15.5-38.5,21.2-58.7L190.8,200.5C176.2,215.5,162.8,231.4,150.4,248.2z"/>
<path class="st1" d="M64.2,502l681.1,393.2c29.8-18.2,57.3-39.8,82-64.2L78.7,398.8C70.1,431.9,65.1,466.4,64.2,502z"/>
<path class="st2" d="M512.1,924c-55.5,0-109.4-10.9-160.1-32.3c-49-20.7-93-50.4-130.7-88.2c-37.8-37.8-67.4-81.8-88.2-130.7
	c-21.4-50.7-32.3-104.6-32.3-160.1c0-55.5,10.9-109.4,32.3-160.1c20.7-49,50.4-93,88.2-130.7C259,184,303,154.4,352,133.7
	c50.7-21.4,104.6-32.3,160.1-32.3c55.5,0,109.4,10.9,160.1,32.3c49,20.7,93,50.4,130.7,88.2c37.8,37.8,67.4,81.8,88.2,130.7
	c21.4,50.7,32.3,104.6,32.3,160.1c0,55.5-10.9,109.4-32.3,160.1c-20.7,49-50.4,93-88.2,130.7s-81.8,67.4-130.7,88.2
	C621.5,913.1,567.6,924,512.1,924z M512.1,105.3c-224.6,0-407.3,182.7-407.3,407.3S287.5,920,512.1,920s407.3-182.7,407.3-407.3
	S736.7,105.3,512.1,105.3z"/>
<path class="st2" d="M653.3,756.9H364.4c-19.9,0-36-16.1-36-36V303.1c0-19.9,16.1-36,36-36h288.9c19.9,0,36,16.1,36,36v417.8
	C689.3,740.8,673.2,756.9,653.3,756.9z"/>
<linearGradient id="SVGID_2_" gradientUnits="userSpaceOnUse" x1="508.8889" y1="316.7415" x2="508.8889" y2="400.2971">
	<stop  offset="0" style="stop-color:#62D0F1"/>
	<stop  offset="1" style="stop-color:#41A1F7"/>
</linearGradient>
<path class="st3" d="M632,400.3H385.8c-9.4,0-17-7.6-17-17v-49.5c0-9.4,7.6-17,17-17H632c9.4,0,17,7.6,17,17v49.5
	C649,392.7,641.4,400.3,632,400.3z"/>
<linearGradient id="SVGID_3_" gradientUnits="userSpaceOnUse" x1="402.6295" y1="438.3704" x2="402.6295" y2="506.1479">
	<stop  offset="0" style="stop-color:#62D0F1"/>
	<stop  offset="1" style="stop-color:#41A1F7"/>
</linearGradient>
<circle class="st4" cx="402.6" cy="472.3" r="33.9"/>
<linearGradient id="SVGID_4_" gradientUnits="userSpaceOnUse" x1="508.8889" y1="438.3704" x2="508.8889" y2="506.1479">
	<stop  offset="0" style="stop-color:#62D0F1"/>
	<stop  offset="1" style="stop-color:#41A1F7"/>
</linearGradient>
<circle class="st5" cx="508.9" cy="472.3" r="33.9"/>
<linearGradient id="SVGID_5_" gradientUnits="userSpaceOnUse" x1="615.1483" y1="438.3704" x2="615.1483" y2="506.1479">
	<stop  offset="0" style="stop-color:#62D0F1"/>
	<stop  offset="1" style="stop-color:#41A1F7"/>
</linearGradient>
<circle class="st6" cx="615.1" cy="472.3" r="33.9"/>
<linearGradient id="SVGID_6_" gradientUnits="userSpaceOnUse" x1="402.6295" y1="532.22" x2="402.6295" y2="599.9976">
	<stop  offset="0" style="stop-color:#62D0F1"/>
	<stop  offset="1" style="stop-color:#41A1F7"/>
</linearGradient>
<circle class="st7" cx="402.6" cy="566.1" r="33.9"/>
<linearGradient id="SVGID_7_" gradientUnits="userSpaceOnUse" x1="508.8889" y1="532.22" x2="508.8889" y2="599.9976">
	<stop  offset="0" style="stop-color:#62D0F1"/>
	<stop  offset="1" style="stop-color:#41A1F7"/>
</linearGradient>
<circle class="st8" cx="508.9" cy="566.1" r="33.9"/>
<linearGradient id="SVGID_8_" gradientUnits="userSpaceOnUse" x1="615.1483" y1="532.22" x2="615.1483" y2="599.9976">
	<stop  offset="0" style="stop-color:#62D0F1"/>
	<stop  offset="1" style="stop-color:#41A1F7"/>
</linearGradient>
<circle class="st9" cx="615.1" cy="566.1" r="33.9"/>
<linearGradient id="SVGID_9_" gradientUnits="userSpaceOnUse" x1="402.6295" y1="632.8877" x2="402.6295" y2="700.6653">
	<stop  offset="0" style="stop-color:#62D0F1"/>
	<stop  offset="1" style="stop-color:#41A1F7"/>
</linearGradient>
<circle class="st10" cx="402.6" cy="666.8" r="33.9"/>
<linearGradient id="SVGID_10_" gradientUnits="userSpaceOnUse" x1="508.8889" y1="632.8877" x2="508.8889" y2="700.6653">
	<stop  offset="0" style="stop-color:#62D0F1"/>
	<stop  offset="1" style="stop-color:#41A1F7"/>
</linearGradient>
<circle class="st11" cx="508.9" cy="666.8" r="33.9"/>
<linearGradient id="SVGID_11_" gradientUnits="userSpaceOnUse" x1="615.1483" y1="632.8877" x2="615.1483" y2="700.6653">
	<stop  offset="0" style="stop-color:#62D0F1"/>
	<stop  offset="1" style="stop-color:#41A1F7"/>
</linearGradient>
<circle class="st12" cx="615.1" cy="666.8" r="33.9"/>
<linearGradient id="SVGID_12_" gradientUnits="userSpaceOnUse" x1="512" y1="100.667" x2="512" y2="923.333">
	<stop  offset="0" style="stop-color:#62D0F1"/>
	<stop  offset="1" style="stop-color:#41A1F7"/>
</linearGradient>
<circle class="st13" cx="512" cy="512" r="411.3"/>
</svg>
