<?xml version="1.0" encoding="utf-8"?>
<!-- Generator: Adobe Illustrator 24.2.1, SVG Export Plug-In . SVG Version: 6.00 Build 0)  -->
<svg version="1.1" id="图层_1" xmlns="http://www.w3.org/2000/svg" xmlns:xlink="http://www.w3.org/1999/xlink" x="0px" y="0px"
	 viewBox="0 0 1024 1024" style="enable-background:new 0 0 1024 1024;" xml:space="preserve">
<style type="text/css">
	.st0{fill:url(#SVGID_1_);}
	.st1{opacity:0.2;fill:#FFFFFF;}
	.st2{fill:#FFFFFF;}
	.st3{opacity:0.2;fill:url(#SVGID_2_);}
</style>
<linearGradient id="SVGID_1_" gradientUnits="userSpaceOnUse" x1="511.9251" y1="64.3368" x2="511.9251" y2="960.3369">
	<stop  offset="0" style="stop-color:#D776EA"/>
	<stop  offset="1" style="stop-color:#607AEA"/>
</linearGradient>
<circle class="st0" cx="511.9" cy="512.3" r="448"/>
<path class="st1" d="M235.4,159.8l720.1,415.7c2.9-20.7,4.4-41.8,4.4-63.2c0-22-1.6-43.6-4.6-64.7L346.2,96
	C306.1,112,268.8,133.6,235.4,159.8z"/>
<path class="st1" d="M150.3,247.9l771.6,445.5c8.4-18.9,15.5-38.5,21.2-58.7L190.6,200.2C176.1,215.1,162.6,231.1,150.3,247.9z"/>
<path class="st1" d="M64.1,501.7l681.1,393.2c29.8-18.2,57.3-39.8,82-64.2L78.5,398.5C69.9,431.5,64.9,466.1,64.1,501.7z"/>
<path class="st2" d="M511.9,923.7c-55.5,0-109.4-10.9-160.1-32.3c-49-20.7-93-50.4-130.7-88.2c-37.8-37.8-67.4-81.8-88.2-130.7
	c-21.4-50.7-32.3-104.6-32.3-160.1c0-55.5,10.9-109.4,32.3-160.1c20.7-49,50.4-93,88.2-130.7c37.8-37.8,81.8-67.4,130.7-88.2
	c50.7-21.4,104.6-32.3,160.1-32.3c55.5,0,109.4,10.9,160.1,32.3c49,20.7,93,50.4,130.7,88.2c37.8,37.8,67.4,81.8,88.2,130.7
	c21.4,50.7,32.3,104.6,32.3,160.1c0,55.5-10.9,109.4-32.3,160.1c-20.7,49-50.4,93-88.2,130.7S721,870.6,672,891.3
	C621.3,912.8,567.5,923.7,511.9,923.7z M511.9,105c-224.6,0-407.3,182.7-407.3,407.3s182.7,407.3,407.3,407.3
	s407.3-182.7,407.3-407.3S736.5,105,511.9,105z"/>
<path class="st2" d="M595.6,326.7c6,0,10.9,4.9,10.9,10.9v426.8c0,6-4.9,10.9-10.9,10.9H427.1c-6,0-10.9-4.9-10.9-10.9V337.6
	c0-6,4.9-10.9,10.9-10.9H595.6 M595.6,306.7H427.1c-17.1,0-30.9,13.8-30.9,30.9v426.8c0,17.1,13.8,30.9,30.9,30.9h168.5
	c17.1,0,30.9-13.8,30.9-30.9V337.6C626.5,320.5,612.6,306.7,595.6,306.7L595.6,306.7z"/>
<path class="st2" d="M567.8,297.8H454.9v-31.6c0-8.8,7.1-16,16-16h81c8.8,0,16,7.1,16,16V297.8z"/>
<path class="st2" d="M578.8,413.3H445.2c-6.1,0-11.1-5-11.1-11.1v-35.7c0-6.1,5-11.1,11.1-11.1h133.5c6.1,0,11.1,5,11.1,11.1v35.7
	C589.8,408.4,584.9,413.3,578.8,413.3z"/>
<path class="st2" d="M578.8,496.4H445.2c-6.1,0-11.1-5-11.1-11.1v-35.7c0-6.1,5-11.1,11.1-11.1h133.5c6.1,0,11.1,5,11.1,11.1v35.7
	C589.8,491.5,584.9,496.4,578.8,496.4z"/>
<path class="st2" d="M578.8,579.6H445.2c-6.1,0-11.1-5-11.1-11.1v-35.7c0-6.1,5-11.1,11.1-11.1h133.5c6.1,0,11.1,5,11.1,11.1v35.7
	C589.8,574.6,584.9,579.6,578.8,579.6z"/>
<path class="st2" d="M578.8,662.7H445.2c-6.1,0-11.1-5-11.1-11.1v-35.7c0-6.1,5-11.1,11.1-11.1h133.5c6.1,0,11.1,5,11.1,11.1v35.7
	C589.8,657.7,584.9,662.7,578.8,662.7z"/>
<path class="st2" d="M578.8,745.8H445.2c-6.1,0-11.1-5-11.1-11.1v-35.7c0-6.1,5-11.1,11.1-11.1h133.5c6.1,0,11.1,5,11.1,11.1v35.7
	C589.8,740.8,584.9,745.8,578.8,745.8z"/>
<linearGradient id="SVGID_2_" gradientUnits="userSpaceOnUse" x1="512" y1="100.667" x2="512" y2="923.333">
	<stop  offset="0" style="stop-color:#D776EA"/>
	<stop  offset="1" style="stop-color:#607AEA"/>
</linearGradient>
<circle class="st3" cx="512" cy="512" r="411.3"/>
</svg>
