<?xml version="1.0" encoding="utf-8"?>
<!-- Generator: Adobe Illustrator 24.2.1, SVG Export Plug-In . SVG Version: 6.00 Build 0)  -->
<svg version="1.1" id="图层_1" xmlns="http://www.w3.org/2000/svg" xmlns:xlink="http://www.w3.org/1999/xlink" x="0px" y="0px"
	 viewBox="0 0 1024 1024" style="enable-background:new 0 0 1024 1024;" xml:space="preserve">
<style type="text/css">
	.st0{fill:url(#SVGID_1_);}
	.st1{opacity:0.2;fill:#FFFFFF;}
	.st2{fill:#FFFFFF;}
	.st3{opacity:0.2;fill:url(#SVGID_2_);}
</style>
<linearGradient id="SVGID_1_" gradientUnits="userSpaceOnUse" x1="512.3217" y1="64.3324" x2="512.3217" y2="960.3325">
	<stop  offset="0" style="stop-color:#3DDFAE"/>
	<stop  offset="1" style="stop-color:#4AB6DA"/>
</linearGradient>
<circle class="st0" cx="512.3" cy="512.3" r="448"/>
<path class="st1" d="M235.8,159.8l720.1,415.7c2.9-20.7,4.4-41.8,4.4-63.2c0-22-1.6-43.6-4.6-64.7L346.6,96
	C306.5,112,269.2,133.6,235.8,159.8z"/>
<path class="st1" d="M150.7,247.9l771.6,445.5c8.4-18.9,15.5-38.5,21.2-58.7L191,200.2C176.5,215.1,163,231.1,150.7,247.9z"/>
<path class="st1" d="M64.5,501.7l681.1,393.2c29.8-18.2,57.3-39.8,82-64.2L78.9,398.5C70.3,431.5,65.3,466.1,64.5,501.7z"/>
<path class="st2" d="M512.3,923.7c-55.5,0-109.4-10.9-160.1-32.3c-49-20.7-93-50.4-130.7-88.2c-37.8-37.8-67.4-81.8-88.2-130.7
	C111.9,621.7,101,567.9,101,512.3c0-55.5,10.9-109.4,32.3-160.1c20.7-49,50.4-93,88.2-130.7c37.8-37.8,81.8-67.4,130.7-88.2
	c50.7-21.4,104.6-32.3,160.1-32.3c55.5,0,109.4,10.9,160.1,32.3c49,20.7,93,50.4,130.7,88.2c37.8,37.8,67.4,81.8,88.2,130.7
	c21.4,50.7,32.3,104.6,32.3,160.1c0,55.5-10.9,109.4-32.3,160.1c-20.7,49-50.4,93-88.2,130.7s-81.8,67.4-130.7,88.2
	C621.7,912.8,567.8,923.7,512.3,923.7z M512.3,105C287.7,105,105,287.7,105,512.3s182.7,407.3,407.3,407.3s407.3-182.7,407.3-407.3
	S736.9,105,512.3,105z"/>
<path class="st2" d="M720.7,482.2H295.6c-21,0-38.2-17.2-38.2-38.2v0c0-21,17.2-38.2,38.2-38.2h425.2c21,0,38.2,17.2,38.2,38.2v0
	C759,465,741.8,482.2,720.7,482.2z"/>
<path class="st2" d="M693.9,470.8l-94.7-94.7c-14.9-14.9-14.9-39.2,0-54.1l0,0c14.9-14.9,39.2-14.9,54.1,0l94.7,94.7
	c14.9,14.9,14.9,39.2,0,54.1l0,0C733.1,485.7,708.8,485.7,693.9,470.8z"/>
<path class="st2" d="M295.7,544.7h425.2c21,0,38.2,17.2,38.2,38.2v0c0,21-17.2,38.2-38.2,38.2H295.7c-21,0-38.2-17.2-38.2-38.2v0
	C257.5,561.9,274.7,544.7,295.7,544.7z"/>
<path class="st2" d="M322.5,556.1l94.7,94.7c14.9,14.9,14.9,39.2,0,54.1l0,0c-14.9,14.9-39.2,14.9-54.1,0l-94.7-94.7
	c-14.9-14.9-14.9-39.2,0-54.1l0,0C283.3,541.2,307.7,541.2,322.5,556.1z"/>
<linearGradient id="SVGID_2_" gradientUnits="userSpaceOnUse" x1="512" y1="100.667" x2="512" y2="923.333">
	<stop  offset="0" style="stop-color:#3DDFAE"/>
	<stop  offset="1" style="stop-color:#4AB6DA"/>
</linearGradient>
<circle class="st3" cx="512" cy="512" r="411.3"/>
</svg>
