<?xml version="1.0" encoding="utf-8"?>
<!-- Generator: Adobe Illustrator 24.2.1, SVG Export Plug-In . SVG Version: 6.00 Build 0)  -->
<svg version="1.1" id="图层_1" xmlns="http://www.w3.org/2000/svg" xmlns:xlink="http://www.w3.org/1999/xlink" x="0px" y="0px"
	 viewBox="0 0 1024 1024" style="enable-background:new 0 0 1024 1024;" xml:space="preserve">
<style type="text/css">
	.st0{fill:url(#SVGID_1_);}
	.st1{opacity:0.2;fill:#FFFFFF;}
	.st2{fill:#FFFFFF;}
	.st3{fill:url(#SVGID_2_);}
	.st4{fill:url(#SVGID_3_);}
	.st5{fill:url(#SVGID_4_);}
	.st6{fill:url(#SVGID_5_);}
	.st7{fill:url(#SVGID_6_);}
	.st8{opacity:0.2;fill:url(#SVGID_7_);}
</style>
<linearGradient id="SVGID_1_" gradientUnits="userSpaceOnUse" x1="512.0912" y1="63.5376" x2="512.0912" y2="959.5375">
	<stop  offset="0" style="stop-color:#D776EA"/>
	<stop  offset="1" style="stop-color:#607AEA"/>
</linearGradient>
<circle class="st0" cx="512.1" cy="511.5" r="448"/>
<path class="st1" d="M235.6,159l720.1,415.7c2.9-20.7,4.4-41.8,4.4-63.2c0-22-1.6-43.6-4.6-64.7L346.4,95.2
	C306.3,111.2,269,132.8,235.6,159z"/>
<path class="st1" d="M150.4,247.1L922,692.6c8.4-18.9,15.5-38.5,21.2-58.7L190.7,199.4C176.2,214.3,162.8,230.3,150.4,247.1z"/>
<path class="st1" d="M64.2,500.9l681.1,393.2c29.8-18.2,57.3-39.8,82-64.2L78.7,397.7C70,430.7,65.1,465.3,64.2,500.9z"/>
<path class="st2" d="M512.1,922.9c-55.5,0-109.4-10.9-160.1-32.3c-49-20.7-93-50.4-130.7-88.2c-37.8-37.8-67.4-81.8-88.2-130.7
	c-21.4-50.7-32.3-104.6-32.3-160.1c0-55.5,10.9-109.4,32.3-160.1c20.7-49,50.4-93,88.2-130.7C259,182.9,303,153.2,352,132.5
	c50.7-21.4,104.6-32.3,160.1-32.3c55.5,0,109.4,10.9,160.1,32.3c49,20.7,93,50.4,130.7,88.2c37.8,37.8,67.4,81.8,88.2,130.7
	c21.4,50.7,32.3,104.6,32.3,160.1c0,55.5-10.9,109.4-32.3,160.1c-20.7,49-50.4,93-88.2,130.7s-81.8,67.4-130.7,88.2
	C621.5,912,567.6,922.9,512.1,922.9z M512.1,104.2c-224.6,0-407.3,182.7-407.3,407.3s182.7,407.3,407.3,407.3
	s407.3-182.7,407.3-407.3S736.7,104.2,512.1,104.2z"/>
<path class="st2" d="M720.3,688.7H310.5c-21.8,0-39.5-17.7-39.5-39.5v-240c0-21.8,17.7-39.5,39.5-39.5h409.8
	c21.8,0,39.5,17.7,39.5,39.5v240C759.8,671,742.1,688.7,720.3,688.7z"/>
<linearGradient id="SVGID_2_" gradientUnits="userSpaceOnUse" x1="430.2799" y1="419.0794" x2="430.2799" y2="639.1958">
	<stop  offset="0" style="stop-color:#D776EA"/>
	<stop  offset="1" style="stop-color:#607AEA"/>
</linearGradient>
<circle class="st3" cx="430.3" cy="529.1" r="110.1"/>
<circle class="st2" cx="430.3" cy="529.1" r="47.1"/>
<path class="st2" d="M415.1,722.8h-41.7c-6.1,0-10.9-4.9-10.9-10.9v-23.2h63.6v23.2C426.2,718,421.2,722.8,415.1,722.8z"/>
<path class="st2" d="M662.4,722.8h-41.7c-6.1,0-10.9-4.9-10.9-10.9v-23.2h63.6v23.2C673.4,718,668.4,722.8,662.4,722.8z"/>
<linearGradient id="SVGID_3_" gradientUnits="userSpaceOnUse" x1="565.1483" y1="453.3321" x2="718.3334" y2="453.3321">
	<stop  offset="0" style="stop-color:#D776EA"/>
	<stop  offset="1" style="stop-color:#607AEA"/>
</linearGradient>
<path class="st4" d="M709.8,461.8H573.6c-4.7,0-8.5-3.8-8.5-8.5v0c0-4.7,3.8-8.5,8.5-8.5h136.2c4.7,0,8.5,3.8,8.5,8.5v0
	C718.3,458,714.5,461.8,709.8,461.8z"/>
<path class="st2" d="M622.9,289.8l-96.3,96.3c-3.3,3.3-8.7,3.3-12,0l0,0c-3.3-3.3-3.3-8.7,0-12l96.3-96.3c3.3-3.3,8.7-3.3,12,0l0,0
	C626.2,281.1,626.2,286.5,622.9,289.8z"/>
<path class="st2" d="M488.8,323.8l44.7,40.4c3.5,3.1,3.7,8.5,0.6,12l0,0c-3.1,3.5-8.5,3.7-12,0.6l-44.7-40.4
	c-3.5-3.1-3.7-8.5-0.6-12h0C480,320.9,485.4,320.7,488.8,323.8z"/>
<linearGradient id="SVGID_4_" gradientUnits="userSpaceOnUse" x1="565.1483" y1="503.3568" x2="718.3334" y2="503.3568">
	<stop  offset="0" style="stop-color:#D776EA"/>
	<stop  offset="1" style="stop-color:#607AEA"/>
</linearGradient>
<path class="st5" d="M709.8,511.9H573.6c-4.7,0-8.5-3.8-8.5-8.5v0c0-4.7,3.8-8.5,8.5-8.5h136.2c4.7,0,8.5,3.8,8.5,8.5v0
	C718.3,508,714.5,511.9,709.8,511.9z"/>
<linearGradient id="SVGID_5_" gradientUnits="userSpaceOnUse" x1="565.1483" y1="553.3815" x2="718.3334" y2="553.3815">
	<stop  offset="0" style="stop-color:#D776EA"/>
	<stop  offset="1" style="stop-color:#607AEA"/>
</linearGradient>
<path class="st6" d="M709.8,561.9H573.6c-4.7,0-8.5-3.8-8.5-8.5l0,0c0-4.7,3.8-8.5,8.5-8.5h136.2c4.7,0,8.5,3.8,8.5,8.5l0,0
	C718.3,558.1,714.5,561.9,709.8,561.9z"/>
<linearGradient id="SVGID_6_" gradientUnits="userSpaceOnUse" x1="565.1483" y1="603.4062" x2="718.3334" y2="603.4062">
	<stop  offset="0" style="stop-color:#D776EA"/>
	<stop  offset="1" style="stop-color:#607AEA"/>
</linearGradient>
<path class="st7" d="M709.8,611.9H573.6c-4.7,0-8.5-3.8-8.5-8.5l0,0c0-4.7,3.8-8.5,8.5-8.5h136.2c4.7,0,8.5,3.8,8.5,8.5l0,0
	C718.3,608.1,714.5,611.9,709.8,611.9z"/>
<linearGradient id="SVGID_7_" gradientUnits="userSpaceOnUse" x1="512" y1="100.667" x2="512" y2="923.333">
	<stop  offset="0" style="stop-color:#D776EA"/>
	<stop  offset="1" style="stop-color:#607AEA"/>
</linearGradient>
<circle class="st8" cx="512" cy="512" r="411.3"/>
</svg>
