<?xml version="1.0" encoding="utf-8"?>
<!-- Generator: Adobe Illustrator 24.2.1, SVG Export Plug-In . SVG Version: 6.00 Build 0)  -->
<svg version="1.1" id="图层_1" xmlns="http://www.w3.org/2000/svg" xmlns:xlink="http://www.w3.org/1999/xlink" x="0px" y="0px"
	 viewBox="0 0 1024 1024" style="enable-background:new 0 0 1024 1024;" xml:space="preserve">
<style type="text/css">
	.st0{fill:url(#SVGID_1_);}
	.st1{opacity:0.2;fill:#FFFFFF;}
	.st2{fill:#FFFFFF;}
	.st3{fill:url(#SVGID_2_);}
	.st4{opacity:0.2;fill:url(#SVGID_3_);}
</style>
<linearGradient id="SVGID_1_" gradientUnits="userSpaceOnUse" x1="512.5618" y1="64" x2="512.5618" y2="960">
	<stop  offset="0" style="stop-color:#3DDFAE"/>
	<stop  offset="1" style="stop-color:#4AB6DA"/>
</linearGradient>
<circle class="st0" cx="512.6" cy="512" r="448"/>
<path class="st1" d="M236.1,159.5l720.1,415.7c2.9-20.7,4.4-41.8,4.4-63.2c0-22-1.6-43.6-4.6-64.7L346.8,95.7
	C306.7,111.6,269.5,133.2,236.1,159.5z"/>
<path class="st1" d="M150.9,247.6L922.5,693c8.4-18.9,15.5-38.5,21.2-58.7L191.2,199.9C176.7,214.8,163.2,230.7,150.9,247.6z"/>
<path class="st1" d="M64.7,501.3l681.1,393.2c29.8-18.2,57.3-39.8,82-64.2L79.2,398.1C70.5,431.2,65.5,465.8,64.7,501.3z"/>
<path class="st2" d="M512.6,923.3c-55.5,0-109.4-10.9-160.1-32.3c-49-20.7-93-50.4-130.7-88.2c-37.8-37.8-67.4-81.8-88.2-130.7
	c-21.4-50.7-32.3-104.6-32.3-160.1c0-55.5,10.9-109.4,32.3-160.1c20.7-49,50.4-93,88.2-130.7c37.8-37.8,81.8-67.4,130.7-88.2
	c50.7-21.4,104.6-32.3,160.1-32.3c55.5,0,109.4,10.9,160.1,32.3c49,20.7,93,50.4,130.7,88.2c37.8,37.8,67.4,81.8,88.2,130.7
	c21.4,50.7,32.3,104.6,32.3,160.1c0,55.5-10.9,109.4-32.3,160.1c-20.7,49-50.4,93-88.2,130.7s-81.8,67.4-130.7,88.2
	C622,912.5,568.1,923.3,512.6,923.3z M512.6,104.7C288,104.7,105.2,287.4,105.2,512S288,919.3,512.6,919.3S919.9,736.6,919.9,512
	S737.2,104.7,512.6,104.7z"/>
<path class="st2" d="M647,745.5H377c-23.1,0-41.7-18.7-41.7-41.7V320.2c0-23.1,18.7-41.7,41.7-41.7H647c23.1,0,41.7,18.7,41.7,41.7
	v383.6C688.8,726.9,670.1,745.5,647,745.5z"/>
<linearGradient id="SVGID_2_" gradientUnits="userSpaceOnUse" x1="510.1204" y1="667.2609" x2="510.1204" y2="367.7815">
	<stop  offset="0" style="stop-color:#3DDFAE"/>
	<stop  offset="1" style="stop-color:#4AB6DA"/>
</linearGradient>
<polygon class="st3" points="553.4,566.4 553.4,367.8 466.9,367.8 466.9,566.4 423.8,566.4 467,616.9 510.1,667.3 553.3,616.9 
	596.4,566.4 "/>
<linearGradient id="SVGID_3_" gradientUnits="userSpaceOnUse" x1="512" y1="100.667" x2="512" y2="923.333">
	<stop  offset="0" style="stop-color:#3DDFAE"/>
	<stop  offset="1" style="stop-color:#4AB6DA"/>
</linearGradient>
<circle class="st4" cx="512" cy="512" r="411.3"/>
</svg>
