<?xml version="1.0" encoding="utf-8"?>
<!-- Generator: Adobe Illustrator 24.2.1, SVG Export Plug-In . SVG Version: 6.00 Build 0)  -->
<svg version="1.1" id="图层_1" xmlns="http://www.w3.org/2000/svg" xmlns:xlink="http://www.w3.org/1999/xlink" x="0px" y="0px"
	 viewBox="0 0 1024 1024" style="enable-background:new 0 0 1024 1024;" xml:space="preserve">
<style type="text/css">
	.st0{fill:url(#SVGID_1_);}
	.st1{opacity:0.2;fill:#FFFFFF;}
	.st2{fill:#FFFFFF;}
	.st3{fill:url(#SVGID_2_);}
	.st4{opacity:0.2;fill:url(#SVGID_3_);}
</style>
<linearGradient id="SVGID_1_" gradientUnits="userSpaceOnUse" x1="511.5" y1="63.3345" x2="511.5" y2="959.3345">
	<stop  offset="0" style="stop-color:#FFA8B4"/>
	<stop  offset="1" style="stop-color:#FF3358"/>
</linearGradient>
<circle class="st0" cx="511.5" cy="511.3" r="448"/>
<path class="st1" d="M235,158.8l720.1,415.7c2.9-20.7,4.4-41.8,4.4-63.2c0-22-1.6-43.6-4.6-64.7L345.8,95
	C305.7,111,268.4,132.6,235,158.8z"/>
<path class="st1" d="M149.8,246.9l771.6,445.5c8.4-18.9,15.5-38.5,21.2-58.7L190.1,199.2C175.6,214.1,162.2,230.1,149.8,246.9z"/>
<path class="st1" d="M63.6,500.7l681.1,393.2c29.8-18.2,57.3-39.8,82-64.2L78.1,397.5C69.4,430.5,64.5,465.1,63.6,500.7z"/>
<path class="st2" d="M511.5,922.7c-55.5,0-109.4-10.9-160.1-32.3c-49-20.7-93-50.4-130.7-88.2c-37.8-37.8-67.4-81.8-88.2-130.7
	c-21.4-50.7-32.3-104.6-32.3-160.1c0-55.5,10.9-109.4,32.3-160.1c20.7-49,50.4-93,88.2-130.7c37.8-37.8,81.8-67.4,130.7-88.2
	C402.1,110.9,456,100,511.5,100c55.5,0,109.4,10.9,160.1,32.3c49,20.7,93,50.4,130.7,88.2c37.8,37.8,67.4,81.8,88.2,130.7
	c21.4,50.7,32.3,104.6,32.3,160.1c0,55.5-10.9,109.4-32.3,160.1c-20.7,49-50.4,93-88.2,130.7s-81.8,67.4-130.7,88.2
	C620.9,911.8,567,922.7,511.5,922.7z M511.5,104c-224.6,0-407.3,182.7-407.3,407.3s182.7,407.3,407.3,407.3s407.3-182.7,407.3-407.3
	S736.1,104,511.5,104z"/>
<path class="st2" d="M733.3,442.1c0,122.2-175.1,361.1-221.3,361.1c-42.1,0-221.3-238.8-221.3-361.1S389.8,220.8,512,220.8
	S733.3,319.9,733.3,442.1z"/>
<linearGradient id="SVGID_2_" gradientUnits="userSpaceOnUse" x1="379.2496" y1="425.3333" x2="643.7499" y2="425.3333">
	<stop  offset="0" style="stop-color:#FFA8B4"/>
	<stop  offset="1" style="stop-color:#FF3358"/>
</linearGradient>
<circle class="st3" cx="511.5" cy="425.3" r="132.3"/>
<path class="st2" d="M492.4,452.8L492.4,452.8c-7.1,0-12.9-5.8-12.9-12.9v-69.7c0-7.1,5.8-12.9,12.9-12.9l0,0
	c7.1,0,12.9,5.8,12.9,12.9v69.7C505.3,447.1,499.5,452.8,492.4,452.8z"/>
<path class="st2" d="M479.3,439.9L479.3,439.9c0-7.1,5.8-12.9,12.9-12.9h69.7c7.1,0,12.9,5.8,12.9,12.9v0c0,7.1-5.8,12.9-12.9,12.9
	h-69.7C485.1,452.8,479.3,447.1,479.3,439.9z"/>
<linearGradient id="SVGID_3_" gradientUnits="userSpaceOnUse" x1="512" y1="100.667" x2="512" y2="923.333">
	<stop  offset="0" style="stop-color:#FFA8B4"/>
	<stop  offset="1" style="stop-color:#FF3358"/>
</linearGradient>
<circle class="st4" cx="512" cy="512" r="411.3"/>
</svg>
