<?xml version="1.0" encoding="utf-8"?>
<!-- Generator: Adobe Illustrator 24.2.1, SVG Export Plug-In . SVG Version: 6.00 Build 0)  -->
<svg version="1.1" id="图层_1" xmlns="http://www.w3.org/2000/svg" xmlns:xlink="http://www.w3.org/1999/xlink" x="0px" y="0px"
	 viewBox="0 0 1024 1024" style="enable-background:new 0 0 1024 1024;" xml:space="preserve">
<style type="text/css">
	.st0{fill:url(#SVGID_1_);}
	.st1{opacity:0.2;fill:#FFFFFF;}
	.st2{fill:#FFFFFF;}
	.st3{fill:url(#SVGID_2_);}
	.st4{opacity:0.2;fill:url(#SVGID_3_);}
</style>
<linearGradient id="SVGID_1_" gradientUnits="userSpaceOnUse" x1="512.3312" y1="64.7817" x2="512.3312" y2="960.7817">
	<stop  offset="0" style="stop-color:#3DDFAE"/>
	<stop  offset="1" style="stop-color:#4AB6DA"/>
</linearGradient>
<circle class="st0" cx="512.3" cy="512.8" r="448"/>
<path class="st1" d="M235.8,160.3L955.9,576c2.9-20.7,4.4-41.8,4.4-63.2c0-22-1.6-43.6-4.6-64.7L346.6,96.4
	C306.5,112.4,269.3,134,235.8,160.3z"/>
<path class="st1" d="M150.7,248.3l771.6,445.5c8.4-18.9,15.5-38.5,21.2-58.7L191,200.6C176.5,215.6,163,231.5,150.7,248.3z"/>
<path class="st1" d="M64.5,502.1l681.1,393.2c29.8-18.2,57.3-39.8,82-64.2L78.9,398.9C70.3,432,65.3,466.5,64.5,502.1z"/>
<path class="st2" d="M512.3,924.1c-55.5,0-109.4-10.9-160.1-32.3c-49-20.7-93-50.4-130.7-88.2c-37.8-37.8-67.4-81.8-88.2-130.7
	C111.9,622.2,101,568.3,101,512.8c0-55.5,10.9-109.4,32.3-160.1c20.7-49,50.4-93,88.2-130.7c37.8-37.8,81.8-67.4,130.7-88.2
	c50.7-21.4,104.6-32.3,160.1-32.3c55.5,0,109.4,10.9,160.1,32.3c49,20.7,93,50.4,130.7,88.2c37.8,37.8,67.4,81.8,88.2,130.7
	c21.4,50.7,32.3,104.6,32.3,160.1c0,55.5-10.9,109.4-32.3,160.1c-20.7,49-50.4,93-88.2,130.7s-81.8,67.4-130.7,88.2
	C621.7,913.2,567.9,924.1,512.3,924.1z M512.3,105.4C287.7,105.4,105,288.2,105,512.8s182.7,407.3,407.3,407.3
	s407.3-182.7,407.3-407.3S736.9,105.4,512.3,105.4z"/>
<path class="st2" d="M673.5,745.3H350.5c-17.5,0-31.9-14.3-31.9-31.9V430.8c0-17.5,14.3-31.9,31.9-31.9h322.9
	c17.5,0,31.9,14.3,31.9,31.9v282.7C705.3,731,691,745.3,673.5,745.3z"/>
<path class="st2" d="M412,398.9v-12.3c0-55.1,44.9-100,100-100c55.1,0,100,44.9,100,100v12.3h40v-12.3c0-77.2-62.8-140-140-140
	s-140,62.8-140,140v12.3H412z"/>
<linearGradient id="SVGID_2_" gradientUnits="userSpaceOnUse" x1="512" y1="465.777" x2="512" y2="690.0002">
	<stop  offset="0" style="stop-color:#3DDFAE"/>
	<stop  offset="1" style="stop-color:#4AB6DA"/>
</linearGradient>
<path class="st3" d="M574.8,528.6c0-34.7-28.1-62.8-62.8-62.8c-34.7,0-62.8,28.1-62.8,62.8c0,23.3,12.8,43.7,31.7,54.5v75.8
	c0,17.2,13.9,31.1,31.1,31.1h0c17.2,0,31.1-13.9,31.1-31.1v-75.8C562,572.3,574.8,551.9,574.8,528.6z"/>
<linearGradient id="SVGID_3_" gradientUnits="userSpaceOnUse" x1="512" y1="100.667" x2="512" y2="923.333">
	<stop  offset="0" style="stop-color:#3DDFAE"/>
	<stop  offset="1" style="stop-color:#4AB6DA"/>
</linearGradient>
<circle class="st4" cx="512" cy="512" r="411.3"/>
</svg>
