<?xml version="1.0" encoding="utf-8"?>
<!-- Generator: Adobe Illustrator 24.2.1, SVG Export Plug-In . SVG Version: 6.00 Build 0)  -->
<svg version="1.1" id="图层_1" xmlns="http://www.w3.org/2000/svg" xmlns:xlink="http://www.w3.org/1999/xlink" x="0px" y="0px"
	 viewBox="0 0 1024 1024" style="enable-background:new 0 0 1024 1024;" xml:space="preserve">
<style type="text/css">
	.st0{fill:url(#SVGID_1_);}
	.st1{opacity:0.2;fill:#FFFFFF;}
	.st2{fill:#FFFFFF;}
	.st3{fill:url(#SVGID_2_);}
	.st4{fill:url(#SVGID_3_);}
	.st5{fill:url(#SVGID_4_);}
	.st6{fill:url(#SVGID_5_);}
	.st7{fill:url(#SVGID_6_);}
	.st8{fill:url(#SVGID_7_);}
	.st9{fill:url(#SVGID_8_);}
	.st10{fill:url(#SVGID_9_);}
	.st11{fill:url(#SVGID_10_);}
	.st12{fill:url(#SVGID_11_);}
	.st13{fill:url(#SVGID_12_);}
	.st14{opacity:0.2;fill:url(#SVGID_13_);}
</style>
<linearGradient id="SVGID_1_" gradientUnits="userSpaceOnUse" x1="512.6846" y1="64.6756" x2="512.6846" y2="960.6755">
	<stop  offset="0" style="stop-color:#FFA8B4"/>
	<stop  offset="1" style="stop-color:#FF3358"/>
</linearGradient>
<circle class="st0" cx="512.7" cy="512.7" r="448"/>
<path class="st1" d="M236.2,160.2l720.1,415.7c2.9-20.7,4.4-41.8,4.4-63.2c0-22-1.6-43.6-4.6-64.7L347,96.3
	C306.9,112.3,269.6,133.9,236.2,160.2z"/>
<path class="st1" d="M151,248.2l771.6,445.5c8.4-18.9,15.5-38.5,21.2-58.7L191.3,200.5C176.8,215.5,163.3,231.4,151,248.2z"/>
<path class="st1" d="M64.8,502l681.1,393.2c29.8-18.2,57.3-39.8,82-64.2L79.3,398.8C70.6,431.9,65.6,466.4,64.8,502z"/>
<path class="st2" d="M512.7,924c-55.5,0-109.4-10.9-160.1-32.3c-49-20.7-93-50.4-130.7-88.2c-37.8-37.8-67.4-81.8-88.2-130.7
	c-21.4-50.7-32.3-104.6-32.3-160.1c0-55.5,10.9-109.4,32.3-160.1c20.7-49,50.4-93,88.2-130.7c37.8-37.8,81.8-67.4,130.7-88.2
	c50.7-21.4,104.6-32.3,160.1-32.3c55.5,0,109.4,10.9,160.1,32.3c49,20.7,93,50.4,130.7,88.2c37.8,37.8,67.4,81.8,88.2,130.7
	c21.4,50.7,32.3,104.6,32.3,160.1c0,55.5-10.9,109.4-32.3,160.1c-20.7,49-50.4,93-88.2,130.7s-81.8,67.4-130.7,88.2
	C622.1,913.1,568.2,924,512.7,924z M512.7,105.3c-224.6,0-407.3,182.7-407.3,407.3S288.1,920,512.7,920S920,737.3,920,512.7
	S737.3,105.3,512.7,105.3z"/>
<circle class="st2" cx="512" cy="512" r="245.3"/>
<linearGradient id="SVGID_2_" gradientUnits="userSpaceOnUse" x1="512" y1="292.222" x2="512" y2="334.116">
	<stop  offset="0" style="stop-color:#FFA8B4"/>
	<stop  offset="1" style="stop-color:#FF3358"/>
</linearGradient>
<path class="st3" d="M512,334.1L512,334.1c-5,0-9.1-4.1-9.1-9.1v-23.7c0-5,4.1-9.1,9.1-9.1l0,0c5,0,9.1,4.1,9.1,9.1V325
	C521.1,330,517,334.1,512,334.1z"/>
<linearGradient id="SVGID_3_" gradientUnits="userSpaceOnUse" x1="512" y1="686.8887" x2="512" y2="728.7827">
	<stop  offset="0" style="stop-color:#FFA8B4"/>
	<stop  offset="1" style="stop-color:#FF3358"/>
</linearGradient>
<path class="st4" d="M512,728.8L512,728.8c-5,0-9.1-4.1-9.1-9.1V696c0-5,4.1-9.1,9.1-9.1l0,0c5,0,9.1,4.1,9.1,9.1v23.7
	C521.1,724.7,517,728.8,512,728.8z"/>
<linearGradient id="SVGID_4_" gradientUnits="userSpaceOnUse" x1="512" y1="292.222" x2="512" y2="334.116" gradientTransform="matrix(0.7071 -0.7071 0.7071 0.7071 -211.0183 511.5613)">
	<stop  offset="0" style="stop-color:#FFA8B4"/>
	<stop  offset="1" style="stop-color:#FF3358"/>
</linearGradient>
<path class="st5" d="M387.3,385.8L387.3,385.8c-3.5,3.5-9.3,3.5-12.8,0L357.7,369c-3.5-3.5-3.5-9.3,0-12.8l0,0
	c3.5-3.5,9.3-3.5,12.8,0l16.8,16.8C390.8,376.5,390.8,382.2,387.3,385.8z"/>
<linearGradient id="SVGID_5_" gradientUnits="userSpaceOnUse" x1="512" y1="686.8887" x2="512" y2="728.7827" gradientTransform="matrix(0.7071 -0.7071 0.7071 0.7071 -211.0183 511.5613)">
	<stop  offset="0" style="stop-color:#FFA8B4"/>
	<stop  offset="1" style="stop-color:#FF3358"/>
</linearGradient>
<path class="st6" d="M666.3,664.8L666.3,664.8c-3.5,3.5-9.3,3.5-12.8,0l-16.8-16.8c-3.5-3.5-3.5-9.3,0-12.8l0,0
	c3.5-3.5,9.3-3.5,12.8,0l16.8,16.8C669.9,655.6,669.9,661.3,666.3,664.8z"/>
<linearGradient id="SVGID_6_" gradientUnits="userSpaceOnUse" x1="512" y1="292.222" x2="512" y2="334.116" gradientTransform="matrix(4.489659e-11 -1 1 4.489659e-11 1.4977 1022.5023)">
	<stop  offset="0" style="stop-color:#FFA8B4"/>
	<stop  offset="1" style="stop-color:#FF3358"/>
</linearGradient>
<path class="st7" d="M335.6,510.5L335.6,510.5c0,5-4.1,9.1-9.1,9.1h-23.7c-5,0-9.1-4.1-9.1-9.1l0,0c0-5,4.1-9.1,9.1-9.1h23.7
	C331.5,501.4,335.6,505.5,335.6,510.5z"/>
<linearGradient id="SVGID_7_" gradientUnits="userSpaceOnUse" x1="512" y1="686.8887" x2="512" y2="728.7827" gradientTransform="matrix(4.489659e-11 -1 1 4.489659e-11 1.4977 1022.5023)">
	<stop  offset="0" style="stop-color:#FFA8B4"/>
	<stop  offset="1" style="stop-color:#FF3358"/>
</linearGradient>
<path class="st8" d="M730.3,510.5L730.3,510.5c0,5-4.1,9.1-9.1,9.1h-23.7c-5,0-9.1-4.1-9.1-9.1l0,0c0-5,4.1-9.1,9.1-9.1h23.7
	C726.2,501.4,730.3,505.5,730.3,510.5z"/>
<linearGradient id="SVGID_8_" gradientUnits="userSpaceOnUse" x1="512" y1="292.222" x2="512" y2="334.116" gradientTransform="matrix(-0.7071 -0.7071 0.7071 -0.7071 513.059 1233.5206)">
	<stop  offset="0" style="stop-color:#FFA8B4"/>
	<stop  offset="1" style="stop-color:#FF3358"/>
</linearGradient>
<path class="st9" d="M387.3,635.2L387.3,635.2c3.5,3.5,3.5,9.3,0,12.8l-16.8,16.8c-3.5,3.5-9.3,3.5-12.8,0l0,0
	c-3.5-3.5-3.5-9.3,0-12.8l16.8-16.8C378,631.7,383.7,631.7,387.3,635.2z"/>
<linearGradient id="SVGID_9_" gradientUnits="userSpaceOnUse" x1="512" y1="686.8887" x2="512" y2="728.7827" gradientTransform="matrix(-0.7071 -0.7071 0.7071 -0.7071 513.059 1233.5206)">
	<stop  offset="0" style="stop-color:#FFA8B4"/>
	<stop  offset="1" style="stop-color:#FF3358"/>
</linearGradient>
<path class="st10" d="M666.3,356.2L666.3,356.2c3.5,3.5,3.5,9.3,0,12.8l-16.8,16.8c-3.5,3.5-9.3,3.5-12.8,0v0
	c-3.5-3.5-3.5-9.3,0-12.8l16.8-16.8C657,352.6,662.8,352.6,666.3,356.2z"/>
<linearGradient id="SVGID_10_" gradientUnits="userSpaceOnUse" x1="512" y1="377.4815" x2="512" y2="496.5926">
	<stop  offset="0" style="stop-color:#FFA8B4"/>
	<stop  offset="1" style="stop-color:#FF3358"/>
</linearGradient>
<path class="st11" d="M522,496.6h-20V387.5c0-5.5,4.5-10,10-10l0,0c5.5,0,10,4.5,10,10V496.6z"/>
<linearGradient id="SVGID_11_" gradientUnits="userSpaceOnUse" x1="472.9584" y1="479.5018" x2="472.9584" y2="598.6129" gradientTransform="matrix(-0.7071 0.7071 -0.7071 -0.7071 1275.6033 607.4239)">
	<stop  offset="0" style="stop-color:#FFA8B4"/>
	<stop  offset="1" style="stop-color:#FF3358"/>
</linearGradient>
<path class="st12" d="M510.8,525.6l14.1-14.1l77.2,77.2c3.9,3.9,3.9,10.2,0,14.1l0,0c-3.9,3.9-10.2,3.9-14.1,0L510.8,525.6z"/>
<linearGradient id="SVGID_12_" gradientUnits="userSpaceOnUse" x1="512" y1="489.735" x2="512" y2="534.2651">
	<stop  offset="0" style="stop-color:#FFA8B4"/>
	<stop  offset="1" style="stop-color:#FF3358"/>
</linearGradient>
<circle class="st13" cx="512" cy="512" r="22.3"/>
<linearGradient id="SVGID_13_" gradientUnits="userSpaceOnUse" x1="512" y1="100.667" x2="512" y2="923.333">
	<stop  offset="0" style="stop-color:#FFA8B4"/>
	<stop  offset="1" style="stop-color:#FF3358"/>
</linearGradient>
<circle class="st14" cx="512" cy="512" r="411.3"/>
</svg>
