<?xml version="1.0" encoding="utf-8"?>
<!-- Generator: Adobe Illustrator 24.2.1, SVG Export Plug-In . SVG Version: 6.00 Build 0)  -->
<svg version="1.1" id="图层_1" xmlns="http://www.w3.org/2000/svg" xmlns:xlink="http://www.w3.org/1999/xlink" x="0px" y="0px"
	 viewBox="0 0 1024 1024" style="enable-background:new 0 0 1024 1024;" xml:space="preserve">
<style type="text/css">
	.st0{fill:url(#SVGID_1_);}
	.st1{opacity:0.2;fill:#FFFFFF;}
	.st2{fill:#FFFFFF;}
	.st3{fill:url(#SVGID_2_);}
	.st4{fill:url(#SVGID_3_);}
	.st5{fill:url(#SVGID_4_);}
	.st6{fill:url(#SVGID_5_);}
	.st7{opacity:0.2;fill:url(#SVGID_6_);}
</style>
<linearGradient id="SVGID_1_" gradientUnits="userSpaceOnUse" x1="512" y1="64" x2="512" y2="960">
	<stop  offset="0" style="stop-color:#F1A977"/>
	<stop  offset="1" style="stop-color:#FE609F"/>
</linearGradient>
<circle class="st0" cx="512" cy="512" r="448"/>
<path class="st1" d="M235.5,159.5l720.1,415.7c2.9-20.7,4.4-41.8,4.4-63.2c0-22-1.6-43.6-4.6-64.7L346.3,95.7
	C306.2,111.6,268.9,133.2,235.5,159.5z"/>
<path class="st1" d="M150.3,247.6L921.9,693c8.4-18.9,15.5-38.5,21.2-58.7L190.6,199.9C176.1,214.8,162.7,230.7,150.3,247.6z"/>
<path class="st1" d="M64.1,501.3l681.1,393.2c29.8-18.2,57.3-39.8,82-64.2L78.6,398.1C69.9,431.2,65,465.8,64.1,501.3z"/>
<path class="st2" d="M512,923.3c-55.5,0-109.4-10.9-160.1-32.3c-49-20.7-93-50.4-130.7-88.2c-37.8-37.8-67.4-81.8-88.2-130.7
	c-21.4-50.7-32.3-104.6-32.3-160.1c0-55.5,10.9-109.4,32.3-160.1c20.7-49,50.4-93,88.2-130.7c37.8-37.8,81.8-67.4,130.7-88.2
	c50.7-21.4,104.6-32.3,160.1-32.3c55.5,0,109.4,10.9,160.1,32.3c49,20.7,93,50.4,130.7,88.2c37.8,37.8,67.4,81.8,88.2,130.7
	c21.4,50.7,32.3,104.6,32.3,160.1c0,55.5-10.9,109.4-32.3,160.1c-20.7,49-50.4,93-88.2,130.7s-81.8,67.4-130.7,88.2
	C621.4,912.5,567.5,923.3,512,923.3z M512,104.7c-224.6,0-407.3,182.7-407.3,407.3S287.4,919.3,512,919.3S919.3,736.6,919.3,512
	S736.6,104.7,512,104.7z"/>
<path class="st2" d="M674.5,761h-325c-18.6,0-33.8-15.2-33.8-33.8V296.8c0-18.6,15.2-33.8,33.8-33.8h325c18.6,0,33.8,15.2,33.8,33.8
	v430.4C708.3,745.8,693.1,761,674.5,761z"/>
<linearGradient id="SVGID_2_" gradientUnits="userSpaceOnUse" x1="512" y1="345.3325" x2="512" y2="385.3325">
	<stop  offset="0" style="stop-color:#F1A977"/>
	<stop  offset="1" style="stop-color:#FE609F"/>
</linearGradient>
<path class="st3" d="M627.9,385.3H396.1c-11,0-20-9-20-20v0c0-11,9-20,20-20h231.7c11,0,20,9,20,20v0
	C647.9,376.3,638.9,385.3,627.9,385.3z"/>
<linearGradient id="SVGID_3_" gradientUnits="userSpaceOnUse" x1="512" y1="445.2303" x2="512" y2="485.2303">
	<stop  offset="0" style="stop-color:#F1A977"/>
	<stop  offset="1" style="stop-color:#FE609F"/>
</linearGradient>
<path class="st4" d="M627.9,485.2H396.1c-11,0-20-9-20-20v0c0-11,9-20,20-20h231.7c11,0,20,9,20,20v0
	C647.9,476.2,638.9,485.2,627.9,485.2z"/>
<linearGradient id="SVGID_4_" gradientUnits="userSpaceOnUse" x1="512" y1="545.1281" x2="512" y2="585.1281">
	<stop  offset="0" style="stop-color:#F1A977"/>
	<stop  offset="1" style="stop-color:#FE609F"/>
</linearGradient>
<path class="st5" d="M627.9,585.1H396.1c-11,0-20-9-20-20l0,0c0-11,9-20,20-20h231.7c11,0,20,9,20,20l0,0
	C647.9,576.1,638.9,585.1,627.9,585.1z"/>
<linearGradient id="SVGID_5_" gradientUnits="userSpaceOnUse" x1="512" y1="645.0258" x2="512" y2="685.0258">
	<stop  offset="0" style="stop-color:#F1A977"/>
	<stop  offset="1" style="stop-color:#FE609F"/>
</linearGradient>
<path class="st6" d="M627.9,685H396.1c-11,0-20-9-20-20v0c0-11,9-20,20-20h231.7c11,0,20,9,20,20v0C647.9,676,638.9,685,627.9,685z"
	/>
<linearGradient id="SVGID_6_" gradientUnits="userSpaceOnUse" x1="512" y1="100.667" x2="512" y2="923.333">
	<stop  offset="0" style="stop-color:#F1A977"/>
	<stop  offset="1" style="stop-color:#FE609F"/>
</linearGradient>
<circle class="st7" cx="512" cy="512" r="411.3"/>
</svg>
