<?xml version="1.0" encoding="utf-8"?>
<!-- Generator: Adobe Illustrator 24.2.1, SVG Export Plug-In . SVG Version: 6.00 Build 0)  -->
<svg version="1.1" id="图层_1" xmlns="http://www.w3.org/2000/svg" xmlns:xlink="http://www.w3.org/1999/xlink" x="0px" y="0px"
	 viewBox="0 0 1024 1024" style="enable-background:new 0 0 1024 1024;" xml:space="preserve">
<style type="text/css">
	.st0{fill:url(#SVGID_1_);}
	.st1{opacity:0.2;fill:#FFFFFF;}
	.st2{fill:#FFFFFF;}
	.st3{fill:url(#SVGID_2_);}
	.st4{opacity:0.2;fill:url(#SVGID_3_);}
</style>
<linearGradient id="SVGID_1_" gradientUnits="userSpaceOnUse" x1="512.7808" y1="64" x2="512.7808" y2="960">
	<stop  offset="0" style="stop-color:#FFDF00"/>
	<stop  offset="1" style="stop-color:#FF7002"/>
</linearGradient>
<circle class="st0" cx="512.8" cy="512" r="448"/>
<path class="st1" d="M236.3,159.5l720.1,415.7c2.9-20.7,4.4-41.8,4.4-63.2c0-22-1.6-43.6-4.6-64.7L347.1,95.7
	C307,111.6,269.7,133.2,236.3,159.5z"/>
<path class="st1" d="M151.1,247.6L922.7,693c8.4-18.9,15.5-38.5,21.2-58.7L191.4,199.9C176.9,214.8,163.4,230.7,151.1,247.6z"/>
<path class="st1" d="M64.9,501.3L746,894.6c29.8-18.2,57.3-39.8,82-64.2L79.4,398.1C70.7,431.2,65.7,465.8,64.9,501.3z"/>
<path class="st2" d="M512.8,923.3c-55.5,0-109.4-10.9-160.1-32.3c-49-20.7-93-50.4-130.7-88.2c-37.8-37.8-67.4-81.8-88.2-130.7
	c-21.4-50.7-32.3-104.6-32.3-160.1c0-55.5,10.9-109.4,32.3-160.1c20.7-49,50.4-93,88.2-130.7c37.8-37.8,81.8-67.4,130.7-88.2
	c50.7-21.4,104.6-32.3,160.1-32.3c55.5,0,109.4,10.9,160.1,32.3c49,20.7,93,50.4,130.7,88.2c37.8,37.8,67.4,81.8,88.2,130.7
	c21.4,50.7,32.3,104.6,32.3,160.1c0,55.5-10.9,109.4-32.3,160.1c-20.7,49-50.4,93-88.2,130.7s-81.8,67.4-130.7,88.2
	C622.2,912.5,568.3,923.3,512.8,923.3z M512.8,104.7c-224.6,0-407.3,182.7-407.3,407.3s182.7,407.3,407.3,407.3
	S920.1,736.6,920.1,512S737.4,104.7,512.8,104.7z"/>
<path class="st2" d="M665.7,685.9H358.9c-65.7,0-119.4-53.7-119.4-119.4v0c0-65.7,53.7-119.4,119.4-119.4h306.8
	c65.7,0,119.4,53.7,119.4,119.4v0C785.1,632.1,731.4,685.9,665.7,685.9z"/>
<circle class="st2" cx="415.2" cy="437.6" r="115.3"/>
<circle class="st2" cx="582.1" cy="437.6" r="150.5"/>
<linearGradient id="SVGID_2_" gradientUnits="userSpaceOnUse" x1="517.1203" y1="409.1451" x2="517.1203" y2="623.2133">
	<stop  offset="0" style="stop-color:#FFDF00"/>
	<stop  offset="1" style="stop-color:#FF7002"/>
</linearGradient>
<polygon class="st3" points="589.3,495.4 553.2,452.3 517.1,409.1 481,452.3 444.9,495.4 473.5,495.4 473.5,623.2 560.8,623.2 
	560.8,495.4 "/>
<linearGradient id="SVGID_3_" gradientUnits="userSpaceOnUse" x1="508.1628" y1="106.3599" x2="508.1628" y2="929.0259">
	<stop  offset="0" style="stop-color:#FFDF00"/>
	<stop  offset="1" style="stop-color:#FF7002"/>
</linearGradient>
<circle class="st4" cx="508.2" cy="517.7" r="411.3"/>
</svg>
