<?xml version="1.0" encoding="utf-8"?>
<!-- Generator: Adobe Illustrator 24.2.1, SVG Export Plug-In . SVG Version: 6.00 Build 0)  -->
<svg version="1.1" id="图层_1" xmlns="http://www.w3.org/2000/svg" xmlns:xlink="http://www.w3.org/1999/xlink" x="0px" y="0px"
	 viewBox="0 0 1024 1024" style="enable-background:new 0 0 1024 1024;" xml:space="preserve">
<style type="text/css">
	.st0{fill:url(#SVGID_1_);}
	.st1{opacity:0.2;fill:#FFFFFF;}
	.st2{fill:#FFFFFF;}
	.st3{fill:#7579EA;}
	.st4{opacity:0.2;fill:url(#SVGID_2_);}
</style>
<linearGradient id="SVGID_1_" gradientUnits="userSpaceOnUse" x1="511.9251" y1="64.3368" x2="511.9251" y2="960.3369">
	<stop  offset="0" style="stop-color:#D776EA"/>
	<stop  offset="1" style="stop-color:#607AEA"/>
</linearGradient>
<circle class="st0" cx="511.9" cy="512.3" r="448"/>
<path class="st1" d="M235.4,159.8l720.1,415.7c2.9-20.7,4.4-41.8,4.4-63.2c0-22-1.6-43.6-4.6-64.7L346.2,96
	C306.1,112,268.8,133.6,235.4,159.8z"/>
<path class="st1" d="M150.3,247.9l771.6,445.5c8.4-18.9,15.5-38.5,21.2-58.7L190.6,200.2C176.1,215.1,162.6,231.1,150.3,247.9z"/>
<path class="st1" d="M64.1,501.7l681.1,393.2c29.8-18.2,57.3-39.8,82-64.2L78.5,398.5C69.9,431.5,64.9,466.1,64.1,501.7z"/>
<path class="st2" d="M511.9,923.7c-55.5,0-109.4-10.9-160.1-32.3c-49-20.7-93-50.4-130.7-88.2c-37.8-37.8-67.4-81.8-88.2-130.7
	c-21.4-50.7-32.3-104.6-32.3-160.1c0-55.5,10.9-109.4,32.3-160.1c20.7-49,50.4-93,88.2-130.7c37.8-37.8,81.8-67.4,130.7-88.2
	c50.7-21.4,104.6-32.3,160.1-32.3c55.5,0,109.4,10.9,160.1,32.3c49,20.7,93,50.4,130.7,88.2c37.8,37.8,67.4,81.8,88.2,130.7
	c21.4,50.7,32.3,104.6,32.3,160.1c0,55.5-10.9,109.4-32.3,160.1c-20.7,49-50.4,93-88.2,130.7S721,870.6,672,891.3
	C621.3,912.8,567.5,923.7,511.9,923.7z M511.9,105c-224.6,0-407.3,182.7-407.3,407.3s182.7,407.3,407.3,407.3
	s407.3-182.7,407.3-407.3S736.5,105,511.9,105z"/>
<path class="st2" d="M595.6,326.7c6,0,10.9,4.9,10.9,10.9v426.8c0,6-4.9,10.9-10.9,10.9H427.1c-6,0-10.9-4.9-10.9-10.9V337.6
	c0-6,4.9-10.9,10.9-10.9H595.6 M595.6,306.7H427.1c-17.1,0-30.9,13.8-30.9,30.9v426.8c0,17.1,13.8,30.9,30.9,30.9h168.5
	c17.1,0,30.9-13.8,30.9-30.9V337.6C626.5,320.5,612.6,306.7,595.6,306.7L595.6,306.7z"/>
<path class="st3" d="M595.6,797.2H427.1c-18.1,0-32.9-14.8-32.9-32.9V337.6c0-18.1,14.8-32.9,32.9-32.9h168.5
	c18.1,0,32.9,14.8,32.9,32.9v426.8C628.5,782.5,613.7,797.2,595.6,797.2z M427.1,308.7c-15.9,0-28.9,13-28.9,28.9v426.8
	c0,15.9,13,28.9,28.9,28.9h168.5c15.9,0,28.9-13,28.9-28.9V337.6c0-15.9-13-28.9-28.9-28.9H427.1z M595.6,777.2H427.1
	c-7.1,0-12.9-5.8-12.9-12.9V337.6c0-7.1,5.8-12.9,12.9-12.9h168.5c7.1,0,12.9,5.8,12.9,12.9v426.8
	C608.5,771.4,602.7,777.2,595.6,777.2z M427.1,328.7c-4.9,0-8.9,4-8.9,8.9v426.8c0,4.9,4,8.9,8.9,8.9h168.5c4.9,0,8.9-4,8.9-8.9
	V337.6c0-4.9-4-8.9-8.9-8.9H427.1z"/>
<path class="st2" d="M459.9,292.8v-26.6c0-6,4.9-11,11-11h81c6,0,11,4.9,11,11v26.6H459.9z"/>
<path class="st3" d="M551.8,260.2c3.3,0,6,2.7,6,6v21.6h-92.9v-21.6c0-3.3,2.7-6,6-6H551.8 M551.8,250.2h-81c-8.8,0-16,7.1-16,16
	v31.6h112.9v-31.6C567.8,257.4,560.6,250.2,551.8,250.2L551.8,250.2z"/>
<path class="st2" d="M445.2,408.3c-3.3,0-6.1-2.7-6.1-6.1v-35.7c0-3.3,2.7-6.1,6.1-6.1h133.5c3.3,0,6.1,2.7,6.1,6.1v35.7
	c0,3.3-2.7,6.1-6.1,6.1H445.2z"/>
<path class="st3" d="M578.8,365.6c0.6,0,1.1,0.5,1.1,1.1v35.7c0,0.6-0.5,1.1-1.1,1.1H445.2c-0.6,0-1.1-0.5-1.1-1.1v-35.7
	c0-0.6,0.5-1.1,1.1-1.1H578.8 M578.8,355.6H445.2c-6.1,0-11.1,5-11.1,11.1v35.7c0,6.1,5,11.1,11.1,11.1h133.5
	c6.1,0,11.1-5,11.1-11.1v-35.7C589.8,360.5,584.9,355.6,578.8,355.6L578.8,355.6z"/>
<path class="st2" d="M445.2,491.4c-3.3,0-6.1-2.7-6.1-6.1v-35.7c0-3.3,2.7-6.1,6.1-6.1h133.5c3.3,0,6.1,2.7,6.1,6.1v35.7
	c0,3.3-2.7,6.1-6.1,6.1H445.2z"/>
<path class="st3" d="M578.8,448.7c0.6,0,1.1,0.5,1.1,1.1v35.7c0,0.6-0.5,1.1-1.1,1.1H445.2c-0.6,0-1.1-0.5-1.1-1.1v-35.7
	c0-0.6,0.5-1.1,1.1-1.1H578.8 M578.8,438.7H445.2c-6.1,0-11.1,5-11.1,11.1v35.7c0,6.1,5,11.1,11.1,11.1h133.5
	c6.1,0,11.1-5,11.1-11.1v-35.7C589.8,443.6,584.9,438.7,578.8,438.7L578.8,438.7z"/>
<path class="st2" d="M445.2,574.6c-3.3,0-6.1-2.7-6.1-6.1v-35.7c0-3.3,2.7-6.1,6.1-6.1h133.5c3.3,0,6.1,2.7,6.1,6.1v35.7
	c0,3.3-2.7,6.1-6.1,6.1H445.2z"/>
<path class="st3" d="M578.8,531.8c0.6,0,1.1,0.5,1.1,1.1v35.7c0,0.6-0.5,1.1-1.1,1.1H445.2c-0.6,0-1.1-0.5-1.1-1.1v-35.7
	c0-0.6,0.5-1.1,1.1-1.1H578.8 M578.8,521.8H445.2c-6.1,0-11.1,5-11.1,11.1v35.7c0,6.1,5,11.1,11.1,11.1h133.5
	c6.1,0,11.1-5,11.1-11.1v-35.7C589.8,526.7,584.9,521.8,578.8,521.8L578.8,521.8z"/>
<path class="st2" d="M445.2,657.7c-3.3,0-6.1-2.7-6.1-6.1v-35.7c0-3.3,2.7-6.1,6.1-6.1h133.5c3.3,0,6.1,2.7,6.1,6.1v35.7
	c0,3.3-2.7,6.1-6.1,6.1H445.2z"/>
<path class="st3" d="M578.8,614.9c0.6,0,1.1,0.5,1.1,1.1v35.7c0,0.6-0.5,1.1-1.1,1.1H445.2c-0.6,0-1.1-0.5-1.1-1.1v-35.7
	c0-0.6,0.5-1.1,1.1-1.1H578.8 M578.8,604.9H445.2c-6.1,0-11.1,5-11.1,11.1v35.7c0,6.1,5,11.1,11.1,11.1h133.5
	c6.1,0,11.1-5,11.1-11.1v-35.7C589.8,609.8,584.9,604.9,578.8,604.9L578.8,604.9z"/>
<path class="st2" d="M445.2,740.8c-3.3,0-6.1-2.7-6.1-6.1v-35.7c0-3.3,2.7-6.1,6.1-6.1h133.5c3.3,0,6.1,2.7,6.1,6.1v35.7
	c0,3.3-2.7,6.1-6.1,6.1H445.2z"/>
<path class="st3" d="M578.8,698c0.6,0,1.1,0.5,1.1,1.1v35.7c0,0.6-0.5,1.1-1.1,1.1H445.2c-0.6,0-1.1-0.5-1.1-1.1v-35.7
	c0-0.6,0.5-1.1,1.1-1.1H578.8 M578.8,688H445.2c-6.1,0-11.1,5-11.1,11.1v35.7c0,6.1,5,11.1,11.1,11.1h133.5c6.1,0,11.1-5,11.1-11.1
	v-35.7C589.8,693,584.9,688,578.8,688L578.8,688z"/>
<linearGradient id="SVGID_2_" gradientUnits="userSpaceOnUse" x1="512" y1="100.667" x2="512" y2="923.333">
	<stop  offset="0" style="stop-color:#D776EA"/>
	<stop  offset="1" style="stop-color:#607AEA"/>
</linearGradient>
<circle class="st4" cx="512" cy="512" r="411.3"/>
</svg>
