<?xml version="1.0" encoding="utf-8"?>
<!-- Generator: Adobe Illustrator 24.2.1, SVG Export Plug-In . SVG Version: 6.00 Build 0)  -->
<svg version="1.1" id="图层_1" xmlns="http://www.w3.org/2000/svg" xmlns:xlink="http://www.w3.org/1999/xlink" x="0px" y="0px"
	 viewBox="0 0 1024 1024" style="enable-background:new 0 0 1024 1024;" xml:space="preserve">
<style type="text/css">
	.st0{fill:url(#SVGID_1_);}
	.st1{opacity:0.2;fill:#FFFFFF;}
	.st2{fill:#FFFFFF;}
	.st3{fill:#48BBD4;}
	.st4{opacity:0.2;fill:url(#SVGID_2_);}
</style>
<linearGradient id="SVGID_1_" gradientUnits="userSpaceOnUse" x1="512.3217" y1="64.3324" x2="512.3217" y2="960.3325">
	<stop  offset="0" style="stop-color:#3DDFAE"/>
	<stop  offset="1" style="stop-color:#4AB6DA"/>
</linearGradient>
<circle class="st0" cx="512.3" cy="512.3" r="448"/>
<path class="st1" d="M235.8,159.8l720.1,415.7c2.9-20.7,4.4-41.8,4.4-63.2c0-22-1.6-43.6-4.6-64.7L346.6,96
	C306.5,112,269.2,133.6,235.8,159.8z"/>
<path class="st1" d="M150.7,247.9l771.6,445.5c8.4-18.9,15.5-38.5,21.2-58.7L191,200.2C176.5,215.1,163,231.1,150.7,247.9z"/>
<path class="st1" d="M64.5,501.7l681.1,393.2c29.8-18.2,57.3-39.8,82-64.2L78.9,398.5C70.3,431.5,65.3,466.1,64.5,501.7z"/>
<path class="st2" d="M512.3,923.7c-55.5,0-109.4-10.9-160.1-32.3c-49-20.7-93-50.4-130.7-88.2c-37.8-37.8-67.4-81.8-88.2-130.7
	C111.9,621.7,101,567.9,101,512.3c0-55.5,10.9-109.4,32.3-160.1c20.7-49,50.4-93,88.2-130.7c37.8-37.8,81.8-67.4,130.7-88.2
	c50.7-21.4,104.6-32.3,160.1-32.3c55.5,0,109.4,10.9,160.1,32.3c49,20.7,93,50.4,130.7,88.2c37.8,37.8,67.4,81.8,88.2,130.7
	c21.4,50.7,32.3,104.6,32.3,160.1c0,55.5-10.9,109.4-32.3,160.1c-20.7,49-50.4,93-88.2,130.7s-81.8,67.4-130.7,88.2
	C621.7,912.8,567.8,923.7,512.3,923.7z M512.3,105C287.7,105,105,287.7,105,512.3s182.7,407.3,407.3,407.3s407.3-182.7,407.3-407.3
	S736.9,105,512.3,105z"/>
<path class="st2" d="M295.6,477.2c-18.3,0-33.2-14.9-33.2-33.2c0-18.3,14.9-33.2,33.2-33.2h345.4l-38.2-38.2
	c-6.2-6.2-9.7-14.6-9.7-23.5c0-8.9,3.4-17.3,9.7-23.5c6.2-6.2,14.6-9.7,23.5-9.7c8.9,0,17.3,3.4,23.5,9.7l94.7,94.7
	c6.2,6.2,9.7,14.6,9.7,23.5s-3.4,17.3-9.7,23.5c-0.8,0.8-1.7,1.6-2.6,2.3c-6,4.9-13.5,7.6-21.1,7.6H295.6z"/>
<path class="st3" d="M626.3,320.9c7.6,0,14.7,2.9,20,8.2l94.7,94.7c5.3,5.3,8.2,12.4,8.2,20c0,7.6-2.9,14.7-8.2,20
	c-0.7,0.7-1.4,1.3-2.2,2l0,0l0,0c-5,4.2-11.4,6.5-17.9,6.5H295.6c-15.6,0-28.2-12.7-28.2-28.2c0-15.6,12.7-28.2,28.2-28.2h333.3H653
	l-17.1-17.1l-29.6-29.6c-11-11-11-28.9,0-39.9C611.6,323.8,618.7,320.9,626.3,320.9 M626.3,310.9c-9.8,0-19.6,3.7-27,11.2l0,0
	c-14.9,14.9-14.9,39.2,0,54.1l29.6,29.6H295.6c-21,0-38.2,17.2-38.2,38.2v0c0,21,17.2,38.2,38.2,38.2h425.2c9.2,0,17.7-3.3,24.3-8.8
	c1-0.8,2-1.7,2.9-2.7h0c14.9-14.9,14.9-39.2,0-54.1l-94.7-94.7C645.9,314.6,636.1,310.9,626.3,310.9L626.3,310.9z"/>
<path class="st2" d="M390.2,711c-8.9,0-17.3-3.4-23.5-9.7L272,606.6c-6.2-6.2-9.7-14.6-9.7-23.5c0-8.9,3.4-17.3,9.7-23.5
	c0.8-0.8,1.7-1.6,2.6-2.3c6-4.9,13.5-7.6,21.1-7.6h425.2c18.3,0,33.2,14.9,33.2,33.2s-14.9,33.2-33.2,33.2H375.5l38.2,38.2
	c13,13,13,34,0,47C407.4,707.5,399.1,711,390.2,711z"/>
<path class="st3" d="M720.9,554.7c15.6,0,28.2,12.7,28.2,28.2c0,15.6-12.7,28.2-28.2,28.2H387.6h-24.1l17.1,17.1l29.6,29.6
	c5.3,5.3,8.2,12.4,8.2,20c0,7.6-2.9,14.7-8.2,20c-5.3,5.3-12.4,8.2-20,8.2c-7.6,0-14.7-2.9-20-8.2l-94.7-94.7
	c-5.3-5.3-8.2-12.4-8.2-20s2.9-14.7,8.2-20c0.7-0.7,1.4-1.3,2.2-2l0,0l0,0c5-4.2,11.4-6.5,17.9-6.5H720.9 M720.9,544.7H295.7
	c-9.2,0-17.7,3.3-24.3,8.8c-1,0.8-2,1.7-2.9,2.7c-14.9,14.9-14.9,39.2,0,54.1l94.7,94.7c7.4,7.4,17.2,11.2,27,11.2
	c9.8,0,19.6-3.7,27-11.2h0c14.9-14.9,14.9-39.2,0-54.1l-29.6-29.6h333.3c21,0,38.2-17.2,38.2-38.2v0
	C759.1,561.9,741.9,544.7,720.9,544.7L720.9,544.7z"/>
<linearGradient id="SVGID_2_" gradientUnits="userSpaceOnUse" x1="512" y1="100.667" x2="512" y2="923.333">
	<stop  offset="0" style="stop-color:#3DDFAE"/>
	<stop  offset="1" style="stop-color:#4AB6DA"/>
</linearGradient>
<circle class="st4" cx="512" cy="512" r="411.3"/>
</svg>
