<?xml version="1.0" encoding="utf-8"?>
<!-- Generator: Adobe Illustrator 24.2.1, SVG Export Plug-In . SVG Version: 6.00 Build 0)  -->
<svg version="1.1" id="图层_1" xmlns="http://www.w3.org/2000/svg" xmlns:xlink="http://www.w3.org/1999/xlink" x="0px" y="0px"
	 viewBox="0 0 1024 1024" style="enable-background:new 0 0 1024 1024;" xml:space="preserve">
<style type="text/css">
	.st0{fill:url(#SVGID_1_);}
	.st1{opacity:0.2;fill:#FFFFFF;}
	.st2{fill:#FFFFFF;}
	.st3{fill:#48BCD4;}
	.st4{fill:url(#SVGID_2_);}
	.st5{opacity:0.2;fill:url(#SVGID_3_);}
</style>
<linearGradient id="SVGID_1_" gradientUnits="userSpaceOnUse" x1="512.3312" y1="64.7817" x2="512.3312" y2="960.7817">
	<stop  offset="0" style="stop-color:#3DDFAE"/>
	<stop  offset="1" style="stop-color:#4AB6DA"/>
</linearGradient>
<circle class="st0" cx="512.3" cy="512.8" r="448"/>
<path class="st1" d="M235.8,160.3L955.9,576c2.9-20.7,4.4-41.8,4.4-63.2c0-22-1.6-43.6-4.6-64.7L346.6,96.4
	C306.5,112.4,269.3,134,235.8,160.3z"/>
<path class="st1" d="M150.7,248.3l771.6,445.5c8.4-18.9,15.5-38.5,21.2-58.7L191,200.6C176.5,215.6,163,231.5,150.7,248.3z"/>
<path class="st1" d="M64.5,502.1l681.1,393.2c29.8-18.2,57.3-39.8,82-64.2L78.9,398.9C70.3,432,65.3,466.5,64.5,502.1z"/>
<path class="st2" d="M512.3,924.1c-55.5,0-109.4-10.9-160.1-32.3c-49-20.7-93-50.4-130.7-88.2c-37.8-37.8-67.4-81.8-88.2-130.7
	C111.9,622.2,101,568.3,101,512.8c0-55.5,10.9-109.4,32.3-160.1c20.7-49,50.4-93,88.2-130.7c37.8-37.8,81.8-67.4,130.7-88.2
	c50.7-21.4,104.6-32.3,160.1-32.3c55.5,0,109.4,10.9,160.1,32.3c49,20.7,93,50.4,130.7,88.2c37.8,37.8,67.4,81.8,88.2,130.7
	c21.4,50.7,32.3,104.6,32.3,160.1c0,55.5-10.9,109.4-32.3,160.1c-20.7,49-50.4,93-88.2,130.7s-81.8,67.4-130.7,88.2
	C621.7,913.2,567.9,924.1,512.3,924.1z M512.3,105.4C287.7,105.4,105,288.2,105,512.8s182.7,407.3,407.3,407.3
	s407.3-182.7,407.3-407.3S736.9,105.4,512.3,105.4z"/>
<path class="st2" d="M350.5,740.3c-14.8,0-26.9-12.1-26.9-26.9V430.8c0-14.8,12.1-26.9,26.9-26.9h322.9c14.8,0,26.9,12.1,26.9,26.9
	v282.7c0,14.8-12.1,26.9-26.9,26.9H350.5z"/>
<path class="st3" d="M673.5,408.9c12.1,0,21.9,9.8,21.9,21.9v282.7c0,12.1-9.8,21.9-21.9,21.9H350.5c-12.1,0-21.9-9.8-21.9-21.9
	V430.8c0-12.1,9.8-21.9,21.9-21.9H673.5 M673.5,398.9H350.5c-17.5,0-31.9,14.3-31.9,31.9v282.7c0,17.5,14.3,31.9,31.9,31.9h322.9
	c17.5,0,31.9-14.3,31.9-31.9V430.8C705.3,413.3,691,398.9,673.5,398.9L673.5,398.9z"/>
<path class="st2" d="M617,403.9v-8.1c0-61.5-47.1-111.5-105-111.5c-57.9,0-105,50-105,111.5v8.1h-30v-8.1
	c0-79.5,60.6-144.2,135-144.2s135,64.7,135,144.2v8.1H617z"/>
<path class="st3" d="M512,256.7c71.7,0,130,62.4,130,139.2v3.1h-20v-3.1c0-64.3-49.3-116.5-110-116.5s-110,52.3-110,116.5v3.1h-20
	v-3.1C382,319.1,440.3,256.7,512,256.7 M512,246.7c-77.2,0-140,66.9-140,149.2v13.1h40v-13.1c0-58.7,44.9-106.5,100-106.5
	c55.1,0,100,47.8,100,106.5v13.1h40v-13.1C652,313.6,589.2,246.7,512,246.7L512,246.7z"/>
<linearGradient id="SVGID_2_" gradientUnits="userSpaceOnUse" x1="512" y1="470.7769" x2="512" y2="685">
	<stop  offset="0" style="stop-color:#3DDFAE"/>
	<stop  offset="1" style="stop-color:#4AB6DA"/>
</linearGradient>
<path class="st4" d="M512,685c-14.4,0-26.1-11.7-26.1-26.1v-78.7l-2.5-1.4c-18-10.3-29.1-29.5-29.1-50.2c0-31.9,25.9-57.8,57.8-57.8
	c31.9,0,57.8,25.9,57.8,57.8c0,20.7-11.2,39.9-29.1,50.2l-2.5,1.4v78.7C538.1,673.3,526.4,685,512,685z"/>
<path class="st3" d="M512,475.8c29.1,0,52.8,23.7,52.8,52.8c0,18.9-10.2,36.4-26.6,45.8l-5,2.9v5.8v75.8c0,11.6-9.5,21.1-21.1,21.1
	c-11.6,0-21.1-9.5-21.1-21.1v-75.8v-5.8l-5-2.9c-16.4-9.4-26.6-27-26.6-45.8C459.2,499.5,482.9,475.8,512,475.8 M512,465.8
	c-34.7,0-62.8,28.1-62.8,62.8c0,23.3,12.8,43.7,31.7,54.5v75.8c0,17.2,13.9,31.1,31.1,31.1h0c17.2,0,31.1-13.9,31.1-31.1v-75.8
	c18.9-10.8,31.7-31.2,31.7-54.5C574.8,493.9,546.7,465.8,512,465.8L512,465.8z"/>
<linearGradient id="SVGID_3_" gradientUnits="userSpaceOnUse" x1="512" y1="100.667" x2="512" y2="923.333">
	<stop  offset="0" style="stop-color:#3DDFAE"/>
	<stop  offset="1" style="stop-color:#4AB6DA"/>
</linearGradient>
<circle class="st5" cx="512" cy="512" r="411.3"/>
</svg>
