<?xml version="1.0" encoding="utf-8"?>
<!-- Generator: Adobe Illustrator 24.2.1, SVG Export Plug-In . SVG Version: 6.00 Build 0)  -->
<svg version="1.1" id="图层_1" xmlns="http://www.w3.org/2000/svg" xmlns:xlink="http://www.w3.org/1999/xlink" x="0px" y="0px"
	 viewBox="0 0 1024 1024" style="enable-background:new 0 0 1024 1024;" xml:space="preserve">
<style type="text/css">
	.st0{fill:url(#SVGID_1_);}
	.st1{opacity:0.2;fill:#FFFFFF;}
	.st2{fill:#FFFFFF;}
	.st3{fill:#FF3D60;}
	.st4{fill:url(#SVGID_2_);}
	.st5{fill:url(#SVGID_3_);}
	.st6{fill:url(#SVGID_4_);}
	.st7{fill:url(#SVGID_5_);}
	.st8{fill:url(#SVGID_6_);}
	.st9{fill:url(#SVGID_7_);}
	.st10{fill:url(#SVGID_8_);}
	.st11{fill:url(#SVGID_9_);}
	.st12{fill:url(#SVGID_10_);}
	.st13{fill:url(#SVGID_11_);}
	.st14{opacity:0.2;fill:url(#SVGID_12_);}
</style>
<linearGradient id="SVGID_1_" gradientUnits="userSpaceOnUse" x1="511.2393" y1="63.6561" x2="511.2393" y2="959.6561">
	<stop  offset="0" style="stop-color:#FFA8B4"/>
	<stop  offset="1" style="stop-color:#FF3358"/>
</linearGradient>
<circle class="st0" cx="511.2" cy="511.7" r="448"/>
<path class="st1" d="M234.7,159.1l720.1,415.7c2.9-20.7,4.4-41.8,4.4-63.2c0-22-1.6-43.6-4.6-64.7L345.5,95.3
	C305.4,111.3,268.2,132.9,234.7,159.1z"/>
<path class="st1" d="M149.6,247.2l771.6,445.5c8.4-18.9,15.5-38.5,21.2-58.7L189.9,199.5C175.4,214.5,161.9,230.4,149.6,247.2z"/>
<path class="st1" d="M63.4,501l681.1,393.2c29.8-18.2,57.3-39.8,82-64.2L77.8,397.8C69.2,430.9,64.2,465.4,63.4,501z"/>
<path class="st2" d="M511.2,923c-55.5,0-109.4-10.9-160.1-32.3c-49-20.7-93-50.4-130.7-88.2c-37.8-37.8-67.4-81.8-88.2-130.7
	c-21.4-50.7-32.3-104.6-32.3-160.1c0-55.5,10.9-109.4,32.3-160.1c20.7-49,50.4-93,88.2-130.7c37.8-37.8,81.8-67.4,130.7-88.2
	c50.7-21.4,104.6-32.3,160.1-32.3c55.5,0,109.4,10.9,160.1,32.3c49,20.7,93,50.4,130.7,88.2c37.8,37.8,67.4,81.8,88.2,130.7
	c21.4,50.7,32.3,104.6,32.3,160.1c0,55.5-10.9,109.4-32.3,160.1c-20.7,49-50.4,93-88.2,130.7s-81.8,67.4-130.7,88.2
	C620.6,912.1,566.8,923,511.2,923z M511.2,104.3c-224.6,0-407.3,182.7-407.3,407.3S286.6,919,511.2,919s407.3-182.7,407.3-407.3
	S735.8,104.3,511.2,104.3z"/>
<path class="st2" d="M512,784.3c-72.7,0-141.1-28.3-192.6-79.8C268,653.1,239.7,584.7,239.7,512c0-72.7,28.3-141.1,79.8-192.6
	s119.8-79.8,192.6-79.8c72.7,0,141.1,28.3,192.6,79.8c51.4,51.4,79.8,119.8,79.8,192.6c0,72.7-28.3,141.1-79.8,192.6
	C653.1,756,584.7,784.3,512,784.3z"/>
<path class="st3" d="M512,244.7c36.1,0,71.1,7.1,104.1,21c31.8,13.5,60.4,32.7,85,57.3c24.6,24.6,43.8,53.1,57.3,85
	c13.9,33,21,68,21,104.1s-7.1,71.1-21,104.1c-13.5,31.8-32.7,60.4-57.3,85c-24.6,24.6-53.1,43.8-85,57.3c-33,13.9-68,21-104.1,21
	c-36.1,0-71.1-7.1-104.1-21c-31.8-13.5-60.4-32.7-85-57.3c-24.6-24.6-43.8-53.1-57.3-85c-13.9-33-21-68-21-104.1s7.1-71.1,21-104.1
	c13.5-31.8,32.7-60.4,57.3-85c24.6-24.6,53.1-43.8,85-57.3C440.9,251.7,475.9,244.7,512,244.7 M512,234.7
	c-153.2,0-277.3,124.2-277.3,277.3S358.8,789.3,512,789.3S789.3,665.2,789.3,512S665.2,234.7,512,234.7L512,234.7z"/>
<linearGradient id="SVGID_2_" gradientUnits="userSpaceOnUse" x1="512" y1="262.9999" x2="512" y2="292.3332">
	<stop  offset="0" style="stop-color:#FFA8B4"/>
	<stop  offset="1" style="stop-color:#FF3358"/>
</linearGradient>
<path class="st4" d="M512,292.3L512,292.3c-4.7,0-8.4-3.8-8.4-8.4v-12.4c0-4.7,3.8-8.4,8.4-8.4l0,0c4.7,0,8.4,3.8,8.4,8.4v12.4
	C520.4,288.6,516.7,292.3,512,292.3z"/>
<linearGradient id="SVGID_3_" gradientUnits="userSpaceOnUse" x1="512" y1="731.4443" x2="512" y2="760.7776">
	<stop  offset="0" style="stop-color:#FFA8B4"/>
	<stop  offset="1" style="stop-color:#FF3358"/>
</linearGradient>
<path class="st5" d="M512,760.8L512,760.8c-4.7,0-8.4-3.8-8.4-8.4v-12.4c0-4.7,3.8-8.4,8.4-8.4l0,0c4.7,0,8.4,3.8,8.4,8.4v12.4
	C520.4,757,516.7,760.8,512,760.8z"/>
<linearGradient id="SVGID_4_" gradientUnits="userSpaceOnUse" x1="512" y1="262.9999" x2="512" y2="292.3332" gradientTransform="matrix(0.7071 -0.7071 0.7071 0.7071 -211.9987 511.9674)">
	<stop  offset="0" style="stop-color:#FFA8B4"/>
	<stop  offset="1" style="stop-color:#FF3358"/>
</linearGradient>
<path class="st6" d="M356.8,356.6L356.8,356.6c-3.3,3.3-8.6,3.3-11.9,0l-8.8-8.8c-3.3-3.3-3.3-8.6,0-11.9l0,0
	c3.3-3.3,8.6-3.3,11.9,0l8.8,8.8C360,348,360,353.3,356.8,356.6z"/>
<linearGradient id="SVGID_5_" gradientUnits="userSpaceOnUse" x1="512" y1="731.4443" x2="512" y2="760.7776" gradientTransform="matrix(0.7071 -0.7071 0.7071 0.7071 -211.9987 511.9674)">
	<stop  offset="0" style="stop-color:#FFA8B4"/>
	<stop  offset="1" style="stop-color:#FF3358"/>
</linearGradient>
<path class="st7" d="M688,687.9L688,687.9c-3.3,3.3-8.6,3.3-11.9,0l-8.8-8.8c-3.3-3.3-3.3-8.6,0-11.9l0,0c3.3-3.3,8.6-3.3,11.9,0
	l8.8,8.8C691.3,679.2,691.3,684.6,688,687.9z"/>
<linearGradient id="SVGID_6_" gradientUnits="userSpaceOnUse" x1="512" y1="262.9999" x2="512" y2="292.3332" gradientTransform="matrix(4.489659e-11 -1 1 4.489659e-11 0.1112 1023.8888)">
	<stop  offset="0" style="stop-color:#FFA8B4"/>
	<stop  offset="1" style="stop-color:#FF3358"/>
</linearGradient>
<path class="st8" d="M292.4,511.9L292.4,511.9c0,4.7-3.8,8.4-8.4,8.4h-12.4c-4.7,0-8.4-3.8-8.4-8.4l0,0c0-4.7,3.8-8.4,8.4-8.4H284
	C288.7,503.4,292.4,507.2,292.4,511.9z"/>
<linearGradient id="SVGID_7_" gradientUnits="userSpaceOnUse" x1="512" y1="731.4443" x2="512" y2="760.7776" gradientTransform="matrix(4.489659e-11 -1 1 4.489659e-11 0.1112 1023.8888)">
	<stop  offset="0" style="stop-color:#FFA8B4"/>
	<stop  offset="1" style="stop-color:#FF3358"/>
</linearGradient>
<path class="st9" d="M760.9,511.9L760.9,511.9c0,4.7-3.8,8.4-8.4,8.4H740c-4.7,0-8.4-3.8-8.4-8.4l0,0c0-4.7,3.8-8.4,8.4-8.4h12.4
	C757.1,503.4,760.9,507.2,760.9,511.9z"/>
<linearGradient id="SVGID_8_" gradientUnits="userSpaceOnUse" x1="512" y1="262.9999" x2="512" y2="292.3332" gradientTransform="matrix(-0.7071 -0.7071 0.7071 -0.7071 512.0786 1235.8875)">
	<stop  offset="0" style="stop-color:#FFA8B4"/>
	<stop  offset="1" style="stop-color:#FF3358"/>
</linearGradient>
<path class="st10" d="M356.8,667.1L356.8,667.1c3.3,3.3,3.3,8.6,0,11.9l-8.8,8.8c-3.3,3.3-8.6,3.3-11.9,0l0,0
	c-3.3-3.3-3.3-8.6,0-11.9l8.8-8.8C348.1,663.8,353.5,663.8,356.8,667.1z"/>
<linearGradient id="SVGID_9_" gradientUnits="userSpaceOnUse" x1="512" y1="731.4443" x2="512" y2="760.7776" gradientTransform="matrix(-0.7071 -0.7071 0.7071 -0.7071 512.0786 1235.8875)">
	<stop  offset="0" style="stop-color:#FFA8B4"/>
	<stop  offset="1" style="stop-color:#FF3358"/>
</linearGradient>
<path class="st11" d="M688,335.9L688,335.9c3.3,3.3,3.3,8.6,0,11.9l-8.8,8.8c-3.3,3.3-8.6,3.3-11.9,0v0c-3.3-3.3-3.3-8.6,0-11.9
	l8.8-8.8C679.3,332.6,684.7,332.6,688,335.9z"/>
<linearGradient id="SVGID_10_" gradientUnits="userSpaceOnUse" x1="511.2386" y1="346.4862" x2="511.2386" y2="503.3324" gradientTransform="matrix(0.7071 0.7071 -0.7071 0.7071 511.8737 -211.499)">
	<stop  offset="0" style="stop-color:#FFA8B4"/>
	<stop  offset="1" style="stop-color:#FF3358"/>
</linearGradient>
<polygon class="st12" points="484.1,472.5 628.4,395 550.9,539.3 "/>
<path class="st3" d="M616.1,407.3l-28.6,53.2L549.6,531L521,502.4l-28.6-28.6l70.6-37.9L616.1,407.3 M640.6,382.7L558.2,427
	l-82.4,44.3l38.2,38.2l38.2,38.2l44.3-82.4L640.6,382.7L640.6,382.7z"/>
<circle class="st2" cx="531.7" cy="491.7" r="7.3"/>
<linearGradient id="SVGID_11_" gradientUnits="userSpaceOnUse" x1="-1825.905" y1="666.4986" x2="-1825.905" y2="823.3441" gradientTransform="matrix(-0.7071 -0.7071 0.7071 -0.7071 -1368.2893 -190.5554)">
	<stop  offset="0" style="stop-color:#FFA8B4"/>
	<stop  offset="1" style="stop-color:#FF3358"/>
</linearGradient>
<polygon class="st13" points="471.6,485 538.4,551.8 394.1,629.3 "/>
<path class="st3" d="M472.8,493.3l28.6,28.6l28.6,28.6l-70.6,37.9L406.4,617l28.6-53.2L472.8,493.3 M470.4,476.7l-44.3,82.4
	l-44.3,82.4l82.4-44.3l82.4-44.3l-38.2-38.2L470.4,476.7L470.4,476.7z"/>
<circle class="st2" cx="490.8" cy="532.6" r="7.3"/>
<linearGradient id="SVGID_12_" gradientUnits="userSpaceOnUse" x1="512" y1="100.667" x2="512" y2="923.333">
	<stop  offset="0" style="stop-color:#FFA8B4"/>
	<stop  offset="1" style="stop-color:#FF3358"/>
</linearGradient>
<circle class="st14" cx="512" cy="512" r="411.3"/>
</svg>
