<?xml version="1.0" encoding="utf-8"?>
<!-- Generator: Adobe Illustrator 24.2.1, SVG Export Plug-In . SVG Version: 6.00 Build 0)  -->
<svg version="1.1" id="图层_1" xmlns="http://www.w3.org/2000/svg" xmlns:xlink="http://www.w3.org/1999/xlink" x="0px" y="0px"
	 viewBox="0 0 1024 1024" style="enable-background:new 0 0 1024 1024;" xml:space="preserve">
<style type="text/css">
	.st0{fill:url(#SVGID_1_);}
	.st1{opacity:0.2;fill:#FFFFFF;}
	.st2{fill:#FFFFFF;}
	.st3{fill:#FF3D60;}
	.st4{opacity:0.2;fill:url(#SVGID_2_);}
</style>
<linearGradient id="SVGID_1_" gradientUnits="userSpaceOnUse" x1="512.2144" y1="63.7752" x2="512.2144" y2="959.7752">
	<stop  offset="0" style="stop-color:#FFA8B4"/>
	<stop  offset="1" style="stop-color:#FF3358"/>
</linearGradient>
<circle class="st0" cx="512.2" cy="511.8" r="448"/>
<path class="st1" d="M235.7,159.3L955.8,575c2.9-20.7,4.4-41.8,4.4-63.2c0-22-1.6-43.6-4.6-64.7L346.5,95.4
	C306.4,111.4,269.1,133,235.7,159.3z"/>
<path class="st1" d="M150.6,247.3l771.6,445.5c8.4-18.9,15.5-38.5,21.2-58.7L190.9,199.6C176.4,214.6,162.9,230.5,150.6,247.3z"/>
<path class="st1" d="M64.3,501.1l681.1,393.2c29.8-18.2,57.3-39.8,82-64.2L78.8,397.9C70.2,431,65.2,465.5,64.3,501.1z"/>
<path class="st2" d="M512.2,923.1c-55.5,0-109.4-10.9-160.1-32.3c-49-20.7-93-50.4-130.7-88.2c-37.8-37.8-67.4-81.8-88.2-130.7
	c-21.4-50.7-32.3-104.6-32.3-160.1c0-55.5,10.9-109.4,32.3-160.1c20.7-49,50.4-93,88.2-130.7c37.8-37.8,81.8-67.4,130.7-88.2
	c50.7-21.4,104.6-32.3,160.1-32.3c55.5,0,109.4,10.9,160.1,32.3c49,20.7,93,50.4,130.7,88.2c37.8,37.8,67.4,81.8,88.2,130.7
	c21.4,50.7,32.3,104.6,32.3,160.1c0,55.5-10.9,109.4-32.3,160.1c-20.7,49-50.4,93-88.2,130.7s-81.8,67.4-130.7,88.2
	C621.6,912.2,567.7,923.1,512.2,923.1z M512.2,104.4c-224.6,0-407.3,182.7-407.3,407.3s182.7,407.3,407.3,407.3
	s407.3-182.7,407.3-407.3S736.8,104.4,512.2,104.4z"/>
<path class="st2" d="M585.8,726.2c-38.7,0-70.3-31.5-70.3-70.3s31.5-70.3,70.3-70.3c8,0,15.9,1.4,23.5,4l5.4,1.9l38.8-192.1H451.2
	l-52.8,261.6l0,0.3c-1.4,17.6-9.3,33.9-22.2,46c-13,12.1-30,18.8-47.8,18.8c-38.7,0-70.3-31.5-70.3-70.3s31.5-70.3,70.3-70.3
	c8,0,15.9,1.4,23.5,4l5.4,1.9l38.8-192.1h-0.6l11.2-76.5c2.2-15,15.2-26.2,30.4-26.2h251.7c8.9,0,17.4,3.9,23.2,10.6
	s8.4,15.7,7.1,24.5l-7.5,51l0,0.5c0,0.6,0,1.1-0.1,1.6l-0.8,4.1l-1.4,9.3c0,0.2-0.1,0.4-0.2,0.6l-0.6,0.8l-52.8,261.4l0,0.3
	c-1.4,17.6-9.3,33.9-22.2,46C620.5,719.5,603.6,726.2,585.8,726.2z"/>
<path class="st3" d="M688.7,301.8c7.5,0,14.5,3.2,19.4,8.9c4.9,5.6,7.1,13.1,6,20.5l-7.4,50.5l-0.1,1l0.1,1c0,0.2,0,0.3,0,0.3
	l-0.8,3.9l-0.1,0.3l0,0.3l-1.2,8.3l-0.7,1l-0.4,1.9L651,659.8l-0.1,0.6l0,0.6c-1.3,16.3-8.6,31.5-20.6,42.7
	c-12.1,11.3-27.9,17.5-44.4,17.5c-36,0-65.3-29.3-65.3-65.3c0-36,29.3-65.3,65.3-65.3c7.5,0,14.8,1.3,21.8,3.7l10.9,3.9l2.3-11.3
	l36.4-180.4l2.4-12h-12.2h-192h-8.2l-1.6,8l-51.9,257.3l-0.1,0.6l0,0.6c-1.3,16.3-8.6,31.5-20.6,42.7
	c-12.1,11.3-27.9,17.5-44.4,17.5c-36,0-65.3-29.3-65.3-65.3c0-36,29.3-65.3,65.3-65.3c7.5,0,14.8,1.3,21.8,3.7l10.9,3.9l2.3-11.3
	l36.4-180.4l2.4-12h-0.9l10.4-70.8c1.8-12.5,12.8-22,25.4-22H688.7 M688.7,291.8H437c-17.7,0-32.7,13-35.3,30.5l-12,82.2h0.3
	L353.5,585c-7.9-2.8-16.3-4.3-25.1-4.3c-41.6,0-75.3,33.7-75.3,75.3c0,41.6,33.7,75.3,75.3,75.3c39.6,0,72-30.6,75-69.4l51.9-257.3
	h192L610.9,585c-7.9-2.8-16.3-4.3-25.1-4.3c-41.6,0-75.3,33.7-75.3,75.3c0,41.6,33.7,75.3,75.3,75.3c39.6,0,72-30.6,75-69.4
	l52.5-260.1c0.5-0.8,0.9-1.7,1-2.6l1.3-9.2l0.8-3.9c0.2-1,0.2-1.9,0.2-2.8l7.4-50.5C727.2,311.1,710.5,291.8,688.7,291.8
	L688.7,291.8z"/>
<linearGradient id="SVGID_2_" gradientUnits="userSpaceOnUse" x1="512" y1="100.667" x2="512" y2="923.333">
	<stop  offset="0" style="stop-color:#FFA8B4"/>
	<stop  offset="1" style="stop-color:#FF3358"/>
</linearGradient>
<circle class="st4" cx="512" cy="512" r="411.3"/>
</svg>
