<?xml version="1.0" encoding="utf-8"?>
<!-- Generator: Adobe Illustrator 24.2.1, SVG Export Plug-In . SVG Version: 6.00 Build 0)  -->
<svg version="1.1" id="图层_1" xmlns="http://www.w3.org/2000/svg" xmlns:xlink="http://www.w3.org/1999/xlink" x="0px" y="0px"
	 viewBox="0 0 1024 1024" style="enable-background:new 0 0 1024 1024;" xml:space="preserve">
<style type="text/css">
	.st0{fill:url(#SVGID_1_);}
	.st1{opacity:0.2;fill:#FFFFFF;}
	.st2{fill:#FFFFFF;}
	.st3{fill:#FF3D60;}
	.st4{fill:url(#SVGID_2_);}
	.st5{opacity:0.2;fill:url(#SVGID_3_);}
</style>
<linearGradient id="SVGID_1_" gradientUnits="userSpaceOnUse" x1="512" y1="64" x2="512" y2="960">
	<stop  offset="0" style="stop-color:#FFA8B4"/>
	<stop  offset="1" style="stop-color:#FF3358"/>
</linearGradient>
<circle class="st0" cx="512" cy="512" r="448"/>
<path class="st1" d="M235.5,159.5l720.1,415.7c2.9-20.7,4.4-41.8,4.4-63.2c0-22-1.6-43.6-4.6-64.7L346.3,95.7
	C306.2,111.6,268.9,133.2,235.5,159.5z"/>
<path class="st1" d="M150.3,247.6L921.9,693c8.4-18.9,15.5-38.5,21.2-58.7L190.6,199.9C176.1,214.8,162.7,230.7,150.3,247.6z"/>
<path class="st1" d="M64.1,501.3l681.1,393.2c29.8-18.2,57.3-39.8,82-64.2L78.6,398.1C69.9,431.2,65,465.8,64.1,501.3z"/>
<path class="st2" d="M512,923.3c-55.5,0-109.4-10.9-160.1-32.3c-49-20.7-93-50.4-130.7-88.2c-37.8-37.8-67.4-81.8-88.2-130.7
	c-21.4-50.7-32.3-104.6-32.3-160.1c0-55.5,10.9-109.4,32.3-160.1c20.7-49,50.4-93,88.2-130.7c37.8-37.8,81.8-67.4,130.7-88.2
	c50.7-21.4,104.6-32.3,160.1-32.3c55.5,0,109.4,10.9,160.1,32.3c49,20.7,93,50.4,130.7,88.2c37.8,37.8,67.4,81.8,88.2,130.7
	c21.4,50.7,32.3,104.6,32.3,160.1c0,55.5-10.9,109.4-32.3,160.1c-20.7,49-50.4,93-88.2,130.7s-81.8,67.4-130.7,88.2
	C621.4,912.5,567.5,923.3,512,923.3z M512,104.7c-224.6,0-407.3,182.7-407.3,407.3S287.4,919.3,512,919.3S919.3,736.6,919.3,512
	S736.6,104.7,512,104.7z"/>
<path class="st2" d="M512,770.1c-19.9,0-67.8-53.3-111.4-123.9c-38.5-62.4-79.6-149-79.6-204.9c0-105.3,85.7-191,191-191
	c105.3,0,191,85.7,191,191c0,56.7-40.2,143-77.8,204.9C581.6,718,534,770.1,512,770.1z"/>
<path class="st3" d="M512,255.3c25.1,0,49.5,4.9,72.4,14.6c22.1,9.4,42,22.8,59.1,39.9c17.1,17.1,30.5,37,39.9,59.1
	c9.7,22.9,14.6,47.3,14.6,72.4c0,24-7.8,56.6-22.6,94.2C661.8,570,643,607.4,621,643.6c-21,34.5-43.7,65.7-63.8,87.8
	c-28.5,31.2-41.8,33.7-45.2,33.7c-2.1,0-14.2-1.6-43-33.6c-20.1-22.4-42.9-53.6-64.1-87.9c-22.5-36.5-41.8-73.9-55.6-108.2
	c-15.2-37.7-23.3-70.2-23.3-94.1c0-25.1,4.9-49.5,14.6-72.4c9.4-22.1,22.8-42,39.9-59.1c17.1-17.1,37-30.5,59.1-39.9
	C462.5,260.2,486.9,255.3,512,255.3 M512,245.3c-108.2,0-196,87.8-196,196c0,108.2,149,333.8,196,333.8c52,0,196-225.5,196-333.8
	C708,333.1,620.2,245.3,512,245.3L512,245.3z"/>
<linearGradient id="SVGID_2_" gradientUnits="userSpaceOnUse" x1="512" y1="334.5522" x2="512" y2="525.4414">
	<stop  offset="0" style="stop-color:#FFA8B4"/>
	<stop  offset="1" style="stop-color:#FF3358"/>
</linearGradient>
<circle class="st4" cx="512" cy="430" r="95.4"/>
<path class="st3" d="M512,339.6c49.9,0,90.4,40.6,90.4,90.4s-40.6,90.4-90.4,90.4c-49.9,0-90.4-40.6-90.4-90.4
	S462.1,339.6,512,339.6 M512,329.6c-55.5,0-100.4,45-100.4,100.4s45,100.4,100.4,100.4c55.5,0,100.4-45,100.4-100.4
	S567.5,329.6,512,329.6L512,329.6z"/>
<linearGradient id="SVGID_3_" gradientUnits="userSpaceOnUse" x1="512" y1="100.667" x2="512" y2="923.333">
	<stop  offset="0" style="stop-color:#FFA8B4"/>
	<stop  offset="1" style="stop-color:#FF3358"/>
</linearGradient>
<circle class="st5" cx="512" cy="512" r="411.3"/>
</svg>
