<?xml version="1.0" encoding="utf-8"?>
<!-- Generator: Adobe Illustrator 24.2.1, SVG Export Plug-In . SVG Version: 6.00 Build 0)  -->
<svg version="1.1" id="图层_1" xmlns="http://www.w3.org/2000/svg" xmlns:xlink="http://www.w3.org/1999/xlink" x="0px" y="0px"
	 viewBox="0 0 1024 1024" style="enable-background:new 0 0 1024 1024;" xml:space="preserve">
<style type="text/css">
	.st0{fill:url(#SVGID_1_);}
	.st1{opacity:0.2;fill:#FFFFFF;}
	.st2{fill:#FFFFFF;}
	.st3{fill:#48BCD4;}
	.st4{opacity:0.2;fill:url(#SVGID_2_);}
</style>
<linearGradient id="SVGID_1_" gradientUnits="userSpaceOnUse" x1="513.0153" y1="63.6706" x2="513.0153" y2="959.6706">
	<stop  offset="0" style="stop-color:#3DDFAE"/>
	<stop  offset="1" style="stop-color:#4AB6DA"/>
</linearGradient>
<circle class="st0" cx="513" cy="511.7" r="448"/>
<path class="st1" d="M236.5,159.2l720.1,415.7c2.9-20.7,4.4-41.8,4.4-63.2c0-22-1.6-43.6-4.6-64.7L347.3,95.3
	C307.2,111.3,269.9,132.9,236.5,159.2z"/>
<path class="st1" d="M151.4,247.2l771.6,445.5c8.4-18.9,15.5-38.5,21.2-58.7L191.7,199.5C177.2,214.5,163.7,230.4,151.4,247.2z"/>
<path class="st1" d="M65.1,501l681.1,393.2c29.8-18.2,57.3-39.8,82-64.2L79.6,397.8C71,430.9,66,465.4,65.1,501z"/>
<path class="st2" d="M513,923c-55.5,0-109.4-10.9-160.1-32.3c-49-20.7-93-50.4-130.7-88.2c-37.8-37.8-67.4-81.8-88.2-130.7
	c-21.4-50.7-32.3-104.6-32.3-160.1c0-55.5,10.9-109.4,32.3-160.1c20.7-49,50.4-93,88.2-130.7c37.8-37.8,81.8-67.4,130.7-88.2
	c50.7-21.4,104.6-32.3,160.1-32.3c55.5,0,109.4,10.9,160.1,32.3c49,20.7,93,50.4,130.7,88.2c37.8,37.8,67.4,81.8,88.2,130.7
	c21.4,50.7,32.3,104.6,32.3,160.1c0,55.5-10.9,109.4-32.3,160.1c-20.7,49-50.4,93-88.2,130.7s-81.8,67.4-130.7,88.2
	C622.4,912.1,568.5,923,513,923z M513,104.3c-224.6,0-407.3,182.7-407.3,407.3S288.4,919,513,919s407.3-182.7,407.3-407.3
	S737.6,104.3,513,104.3z"/>
<path class="st2" d="M633.6,779c-33.9-7.8-73.9-33.3-112.9-72.2c-41.7-41.6-79.2-95.7-105.6-152.4c-43.4-93.3-60.3-189.8-45.4-259.2
	l59-16.4l0,0l25.6-7.1c1.4-0.3,2.8-0.5,4.3-0.5c9.4,0,17.7,6.7,19.8,15.9l23.6,106.3c2.2,10,0.4,20.2-5.1,28.9
	c-5.5,8.6-14,14.6-24,16.8l-31.4,7l1.5,5.1c8.3,28.5,19,57.2,32.1,85.2c17.1,36.9,37.5,70.9,60.5,101.2l3.7,4.8l27.4-30.8
	c7.2-8.1,17.6-12.8,28.6-12.8c9.4,0,18.4,3.4,25.5,9.6l81.4,72.4c4.1,3.6,6.5,8.5,6.8,13.9c0.3,5.3-1.5,10.5-5,14.5L635.2,778
	l-0.5-0.4L633.6,779z"/>
<path class="st3" d="M458.6,276.4L458.6,276.4c7.1,0,13.4,5,14.9,12L497,394.6c3.9,18-7.4,35.8-25.3,39.7l-26.2,5.8l-10.4,2.3
	l3,10.2c8.3,28.7,19.2,57.6,32.3,85.9c17.3,37.2,37.8,71.5,61,102.1l7.4,9.7l8.1-9.1l23.4-26.3c6.3-7.1,15.3-11.1,24.9-11.1
	c8.2,0,16,3,22.1,8.3l81.4,72.4c3,2.7,4.8,6.4,5.1,10.5c0.2,4-1.1,7.8-3.7,10.8l-65.4,65.5l-1-0.7l-2.1,2.7
	c-32.4-8.4-70.2-33-107.4-70.1c-41.3-41.2-78.4-94.8-104.6-151c-21.8-46.8-37.3-95.8-44.8-141.7c-6.8-41.4-7.1-79.8-0.8-111.4
	l47.6-13.2l0,0l15.8-4.4l18.1-5C456.5,276.5,457.5,276.4,458.6,276.4 M458.6,266.4c-1.8,0-3.6,0.2-5.5,0.6l-18.4,5.1c0,0,0,0,0,0
	l-69.2,19.2c-15.6,67.8-0.9,166.5,45.1,265.3c56.1,120.6,153.1,213.6,225,228l0,0l0.1,0l71.7-71.8c9.3-10.4,8.3-26.4-2.1-35.6
	l-81.4-72.4c-8.3-7.3-18.5-10.9-28.8-10.9c-11.9,0-23.8,4.9-32.3,14.5l-23.4,26.3c-22-29-42.4-62.6-59.9-100.3
	c-13.2-28.5-23.8-56.9-31.8-84.5l26.2-5.8c23.3-5.1,38-28.3,32.9-51.6l-23.6-106.3C480.6,274.4,470.1,266.4,458.6,266.4L458.6,266.4
	z"/>
<linearGradient id="SVGID_2_" gradientUnits="userSpaceOnUse" x1="512" y1="100.667" x2="512" y2="923.333">
	<stop  offset="0" style="stop-color:#3DDFAE"/>
	<stop  offset="1" style="stop-color:#4AB6DA"/>
</linearGradient>
<circle class="st4" cx="512" cy="512" r="411.3"/>
</svg>
