<?xml version="1.0" encoding="utf-8"?>
<!-- Generator: Adobe Illustrator 24.2.1, SVG Export Plug-In . SVG Version: 6.00 Build 0)  -->
<svg version="1.1" id="图层_1" xmlns="http://www.w3.org/2000/svg" xmlns:xlink="http://www.w3.org/1999/xlink" x="0px" y="0px"
	 viewBox="0 0 1024 1024" style="enable-background:new 0 0 1024 1024;" xml:space="preserve">
<style type="text/css">
	.st0{fill:url(#SVGID_1_);}
	.st1{opacity:0.2;fill:#FFFFFF;}
	.st2{fill:#FFFFFF;}
	.st3{fill:#FF8002;}
	.st4{fill:url(#SVGID_2_);}
	.st5{opacity:0.2;fill:url(#SVGID_3_);}
</style>
<linearGradient id="SVGID_1_" gradientUnits="userSpaceOnUse" x1="512" y1="64.2256" x2="512" y2="960.2256">
	<stop  offset="0" style="stop-color:#FFDF00"/>
	<stop  offset="1" style="stop-color:#FF7002"/>
</linearGradient>
<circle class="st0" cx="512" cy="512.2" r="448"/>
<path class="st1" d="M235.5,159.7l720.1,415.7c2.9-20.7,4.4-41.8,4.4-63.2c0-22-1.6-43.6-4.6-64.7L346.3,95.9
	C306.2,111.9,268.9,133.5,235.5,159.7z"/>
<path class="st1" d="M150.3,247.8l771.6,445.5c8.4-18.9,15.5-38.5,21.2-58.7L190.6,200.1C176.1,215,162.7,231,150.3,247.8z"/>
<path class="st1" d="M64.1,501.6l681.1,393.2c29.8-18.2,57.3-39.8,82-64.2L78.6,398.4C69.9,431.4,65,466,64.1,501.6z"/>
<path class="st2" d="M512,923.6c-55.5,0-109.4-10.9-160.1-32.3c-49-20.7-93-50.4-130.7-88.2c-37.8-37.8-67.4-81.8-88.2-130.7
	c-21.4-50.7-32.3-104.6-32.3-160.1c0-55.5,10.9-109.4,32.3-160.1c20.7-49,50.4-93,88.2-130.7c37.8-37.8,81.8-67.4,130.7-88.2
	c50.7-21.4,104.6-32.3,160.1-32.3c55.5,0,109.4,10.9,160.1,32.3c49,20.7,93,50.4,130.7,88.2c37.8,37.8,67.4,81.8,88.2,130.7
	c21.4,50.7,32.3,104.6,32.3,160.1c0,55.5-10.9,109.4-32.3,160.1c-20.7,49-50.4,93-88.2,130.7s-81.8,67.4-130.7,88.2
	C621.4,912.7,567.5,923.6,512,923.6z M512,104.9c-224.6,0-407.3,182.7-407.3,407.3S287.4,919.6,512,919.6s407.3-182.7,407.3-407.3
	S736.6,104.9,512,104.9z"/>
<path class="st2" d="M501.9,401.6c-1.9-28.9,7.1-57.2,25.3-79.9c0.3-0.4,0.7-0.8,1-1.2L708,465.4c-0.3,0.4-0.6,0.8-1,1.2
	c-18.2,22.6-44,37.4-72.7,41.7L501.9,401.6z"/>
<path class="st3" d="M529,327.6l171.9,138.5c-16.8,19.6-39.7,32.6-65.2,36.9l-129-103.9C505.6,373.4,513.4,348.2,529,327.6
	 M527.6,313.6c-1.5,1.6-2.9,3.3-4.3,5c-20.2,25.1-28.7,55.8-26.2,85.6l135.8,109.4c29.6-3.9,57.8-18.8,78-43.8
	c1.4-1.7,2.7-3.5,4-5.2L527.6,313.6L527.6,313.6z"/>
<path class="st2" d="M554.8,296.7c18.6-12,40.7-18.6,63-18.6c26.2,0,51.9,9.1,72.3,25.5c39,31.4,53.2,84.4,35.6,130.7L554.8,296.7z"
	/>
<path class="st3" d="M617.8,283c25.4,0,49.3,8.4,69.2,24.4c35.5,28.6,49.5,75.8,36.3,118.5L563.5,297.2C580,288,598.8,283,617.8,283
	 M617.8,273c-25.3,0-50.4,7.9-71.3,23.3l181.3,146.1c21.7-48.7,9-107.7-34.5-142.7C671,281.8,644.3,273,617.8,273L617.8,273z"/>
<path class="st2" d="M411.6,718.3c-15.7,0-31.1-5.4-43.3-15.3c-28.4-22.9-34.1-64.1-13-93.8l131.9-185.5l128.6,103.6L462.7,695.7
	C449.6,710.1,431,718.3,411.6,718.3z"/>
<path class="st3" d="M488.2,431l120.4,97L459,692.4c-12.1,13.3-29.4,20.9-47.4,20.9c-14.5,0-28.8-5-40.1-14.2
	c-26.3-21.2-31.6-59.4-12-87L488.2,431 M486.2,416.5l-135,189.8c-22.7,31.9-16.6,76,13.9,100.5l0,0c13.6,11,30.1,16.4,46.4,16.4
	c20.2,0,40.2-8.2,54.8-24.2l156.8-172.3L486.2,416.5L486.2,416.5z"/>
<path class="st2" d="M336.3,744.9l-2.1-1.7c-4.7-3.7-5.4-10.6-1.6-15.2l26.3-32.6l18.9,15.3l-26.3,32.6
	C347.8,747.9,341,748.7,336.3,744.9z"/>
<path class="st3" d="M343.1,750.3c-3,0-6.1-1-8.7-3.1l-2.1-1.7c-2.9-2.3-4.7-5.6-5.1-9.3c-0.4-3.7,0.7-7.3,3-10.2l28.1-34.9l23.6,19
	l-28.1,34.9C351.1,748.6,347.1,750.3,343.1,750.3z M338.2,742.6c3.4,2.7,8.3,2.2,11-1.2l24.4-30.3l-14.3-11.5l-24.4,30.3
	c-1.3,1.6-1.9,3.7-1.7,5.7c0.2,2.1,1.2,3.9,2.9,5.3L338.2,742.6z"/>
<linearGradient id="SVGID_2_" gradientUnits="userSpaceOnUse" x1="524.9238" y1="487.5645" x2="524.9238" y2="570.515" gradientTransform="matrix(0.7788 0.6273 -0.6273 0.7788 430.5036 -210.9062)">
	<stop  offset="0" style="stop-color:#FFDF00"/>
	<stop  offset="1" style="stop-color:#FF7002"/>
</linearGradient>
<path class="st4" d="M493.7,567c-4.5,0-8.8-1.5-12.3-4.3c-4.1-3.3-6.6-8-7.2-13.2c-0.6-5.2,0.9-10.3,4.2-14.4l27.4-34
	c3.7-4.7,9.3-7.3,15.3-7.3c4.5,0,8.8,1.5,12.3,4.3c8.4,6.8,9.8,19.2,3,27.6l-27.4,34C505.3,564.4,499.7,567,493.7,567z"/>
<path class="st3" d="M521.1,488.7v10c3.4,0,6.5,1.1,9.2,3.2c3,2.5,5,6,5.4,9.8c0.4,3.9-0.7,7.7-3.2,10.8l-27.4,34
	c-2.8,3.5-7,5.5-11.4,5.5c-3.4,0-6.5-1.1-9.2-3.2c-3-2.5-5-6-5.4-9.8c-0.4-3.9,0.7-7.7,3.2-10.8l27.4-34c2.8-3.5,7-5.5,11.4-5.5
	L521.1,488.7 M521.1,488.7c-7.2,0-14.3,3.1-19.2,9.2l-27.4,34c-8.5,10.6-6.9,26.1,3.7,34.7h0c4.6,3.7,10,5.5,15.4,5.5
	c7.2,0,14.3-3.1,19.2-9.2l27.4-34c8.5-10.6,6.9-26.1-3.7-34.7v0C532,490.5,526.5,488.7,521.1,488.7L521.1,488.7z"/>
<linearGradient id="SVGID_3_" gradientUnits="userSpaceOnUse" x1="512" y1="100.667" x2="512" y2="923.333">
	<stop  offset="0" style="stop-color:#FFDF00"/>
	<stop  offset="1" style="stop-color:#FF7002"/>
</linearGradient>
<circle class="st5" cx="512" cy="512" r="411.3"/>
</svg>
