<?xml version="1.0" encoding="utf-8"?>
<!-- Generator: Adobe Illustrator 24.2.1, SVG Export Plug-In . SVG Version: 6.00 Build 0)  -->
<svg version="1.1" id="图层_1" xmlns="http://www.w3.org/2000/svg" xmlns:xlink="http://www.w3.org/1999/xlink" x="0px" y="0px"
	 viewBox="0 0 1024 1024" style="enable-background:new 0 0 1024 1024;" xml:space="preserve">
<style type="text/css">
	.st0{fill:url(#SVGID_1_);}
	.st1{opacity:0.2;fill:#FFFFFF;}
	.st2{fill:#FFFFFF;}
	.st3{fill:#48BBD4;}
	.st4{fill:url(#SVGID_2_);}
	.st5{fill:url(#SVGID_3_);}
	.st6{opacity:0.2;fill:url(#SVGID_4_);}
</style>
<linearGradient id="SVGID_1_" gradientUnits="userSpaceOnUse" x1="512" y1="64" x2="512" y2="960">
	<stop  offset="0" style="stop-color:#3DDFAE"/>
	<stop  offset="1" style="stop-color:#4AB6DA"/>
</linearGradient>
<circle class="st0" cx="512" cy="512" r="448"/>
<path class="st1" d="M235.5,159.5l720.1,415.7c2.9-20.7,4.4-41.8,4.4-63.2c0-22-1.6-43.6-4.6-64.7L346.3,95.7
	C306.2,111.6,268.9,133.2,235.5,159.5z"/>
<path class="st1" d="M150.3,247.6L921.9,693c8.4-18.9,15.5-38.5,21.2-58.7L190.6,199.9C176.1,214.8,162.7,230.7,150.3,247.6z"/>
<path class="st1" d="M64.1,501.3l681.1,393.2c29.8-18.2,57.3-39.8,82-64.2L78.6,398.1C69.9,431.2,65,465.8,64.1,501.3z"/>
<path class="st2" d="M512,923.3c-55.5,0-109.4-10.9-160.1-32.3c-49-20.7-93-50.4-130.7-88.2c-37.8-37.8-67.4-81.8-88.2-130.7
	c-21.4-50.7-32.3-104.6-32.3-160.1c0-55.5,10.9-109.4,32.3-160.1c20.7-49,50.4-93,88.2-130.7c37.8-37.8,81.8-67.4,130.7-88.2
	c50.7-21.4,104.6-32.3,160.1-32.3c55.5,0,109.4,10.9,160.1,32.3c49,20.7,93,50.4,130.7,88.2c37.8,37.8,67.4,81.8,88.2,130.7
	c21.4,50.7,32.3,104.6,32.3,160.1c0,55.5-10.9,109.4-32.3,160.1c-20.7,49-50.4,93-88.2,130.7s-81.8,67.4-130.7,88.2
	C621.4,912.5,567.5,923.3,512,923.3z M512,104.7c-224.6,0-407.3,182.7-407.3,407.3S287.4,919.3,512,919.3S919.3,736.6,919.3,512
	S736.6,104.7,512,104.7z"/>
<path class="st2" d="M309.7,689c-18.4,0-33.3-15-33.3-33.3V393.3h438c18.4,0,33.3,15,33.3,33.3v229c0,18.4-15,33.3-33.3,33.3H309.7z
	"/>
<path class="st3" d="M714.3,398.3c15.6,0,28.3,12.7,28.3,28.3v229c0,15.6-12.7,28.3-28.3,28.3H309.7c-15.6,0-28.3-12.7-28.3-28.3
	V398.3H714.3 M714.3,388.3h-443v267.3c0,21.2,17.2,38.3,38.3,38.3h404.6c21.2,0,38.3-17.2,38.3-38.3v-229
	C752.7,405.5,735.5,388.3,714.3,388.3L714.3,388.3z"/>
<path class="st2" d="M276.3,393.1v-33.8c0-19.8,13.9-35.9,30.9-35.9h99.9c5.6,0,10.9,3.2,14.3,8.5l38.4,61.2H276.3z"/>
<path class="st3" d="M407.2,328.4c3.9,0,7.6,2.3,10,6.2l33.6,53.6H281.3v-28.8c0-17.1,11.6-30.9,25.9-30.9H407.2 M407.2,318.4h-99.9
	c-19.8,0-35.9,18.3-35.9,40.9v38.8h197.6l-43.2-68.9C421.4,322.5,414.5,318.4,407.2,318.4L407.2,318.4z"/>
<linearGradient id="SVGID_2_" gradientUnits="userSpaceOnUse" x1="362.3335" y1="488.5552" x2="659" y2="488.5552">
	<stop  offset="0" style="stop-color:#3DDFAE"/>
	<stop  offset="1" style="stop-color:#4AB6DA"/>
</linearGradient>
<path class="st4" d="M373.3,499.6c-6.1,0-11-4.9-11-11s4.9-11,11-11H648c6.1,0,11,4.9,11,11s-4.9,11-11,11H373.3z"/>
<path class="st3" d="M648,482.6c3.3,0,6,2.7,6,6s-2.7,6-6,6H373.3c-3.3,0-6-2.7-6-6c0-3.3,2.7-6,6-6H648 M648,472.6H373.3
	c-8.8,0-16,7.2-16,16v0c0,8.8,7.2,16,16,16H648c8.8,0,16-7.2,16-16v0C664,479.7,656.8,472.6,648,472.6L648,472.6z"/>
<linearGradient id="SVGID_3_" gradientUnits="userSpaceOnUse" x1="362.3335" y1="588.2217" x2="659" y2="588.2217">
	<stop  offset="0" style="stop-color:#3DDFAE"/>
	<stop  offset="1" style="stop-color:#4AB6DA"/>
</linearGradient>
<path class="st5" d="M373.3,599.2c-6.1,0-11-4.9-11-11c0-6.1,4.9-11,11-11H648c6.1,0,11,4.9,11,11s-4.9,11-11,11H373.3z"/>
<path class="st3" d="M648,582.2c3.3,0,6,2.7,6,6c0,3.3-2.7,6-6,6H373.3c-3.3,0-6-2.7-6-6c0-3.3,2.7-6,6-6H648 M648,572.2H373.3
	c-8.8,0-16,7.2-16,16s7.2,16,16,16H648c8.8,0,16-7.2,16-16S656.8,572.2,648,572.2L648,572.2z"/>
<linearGradient id="SVGID_4_" gradientUnits="userSpaceOnUse" x1="512" y1="100.667" x2="512" y2="923.333">
	<stop  offset="0" style="stop-color:#3DDFAE"/>
	<stop  offset="1" style="stop-color:#4AB6DA"/>
</linearGradient>
<circle class="st6" cx="512" cy="512" r="411.3"/>
</svg>
