<?xml version="1.0" encoding="utf-8"?>
<!-- Generator: Adobe Illustrator 24.2.1, SVG Export Plug-In . SVG Version: 6.00 Build 0)  -->
<svg version="1.1" id="图层_1" xmlns="http://www.w3.org/2000/svg" xmlns:xlink="http://www.w3.org/1999/xlink" x="0px" y="0px"
	 viewBox="0 0 1024 1024" style="enable-background:new 0 0 1024 1024;" xml:space="preserve">
<style type="text/css">
	.st0{fill:url(#SVGID_1_);}
	.st1{opacity:0.2;fill:#FFFFFF;}
	.st2{fill:#FFFFFF;}
	.st3{fill:#48BBD4;}
	.st4{fill:url(#SVGID_2_);}
	.st5{fill:url(#SVGID_3_);}
	.st6{fill:url(#SVGID_4_);}
	.st7{fill:url(#SVGID_5_);}
	.st8{opacity:0.2;fill:url(#SVGID_6_);}
</style>
<linearGradient id="SVGID_1_" gradientUnits="userSpaceOnUse" x1="512" y1="64.2164" x2="512" y2="960.2164">
	<stop  offset="0" style="stop-color:#3DDFAE"/>
	<stop  offset="1" style="stop-color:#4AB6DA"/>
</linearGradient>
<circle class="st0" cx="512" cy="512.2" r="448"/>
<path class="st1" d="M235.5,159.7l720.1,415.7c2.9-20.7,4.4-41.8,4.4-63.2c0-22-1.6-43.6-4.6-64.7L346.3,95.9
	C306.2,111.9,268.9,133.4,235.5,159.7z"/>
<path class="st1" d="M150.3,247.8l771.6,445.5c8.4-18.9,15.5-38.5,21.2-58.7L190.6,200.1C176.1,215,162.7,230.9,150.3,247.8z"/>
<path class="st1" d="M64.1,501.6l681.1,393.2c29.8-18.2,57.3-39.8,82-64.2L78.6,398.4C69.9,431.4,65,466,64.1,501.6z"/>
<path class="st2" d="M512,923.5c-55.5,0-109.4-10.9-160.1-32.3c-49-20.7-93-50.4-130.7-88.2c-37.8-37.8-67.4-81.8-88.2-130.7
	c-21.4-50.7-32.3-104.6-32.3-160.1c0-55.5,10.9-109.4,32.3-160.1c20.7-49,50.4-93,88.2-130.7c37.8-37.8,81.8-67.4,130.7-88.2
	c50.7-21.4,104.6-32.3,160.1-32.3c55.5,0,109.4,10.9,160.1,32.3c49,20.7,93,50.4,130.7,88.2c37.8,37.8,67.4,81.8,88.2,130.7
	c21.4,50.7,32.3,104.6,32.3,160.1c0,55.5-10.9,109.4-32.3,160.1c-20.7,49-50.4,93-88.2,130.7s-81.8,67.4-130.7,88.2
	C621.4,912.7,567.5,923.5,512,923.5z M512,104.9c-224.6,0-407.3,182.7-407.3,407.3S287.4,919.5,512,919.5s407.3-182.7,407.3-407.3
	S736.6,104.9,512,104.9z"/>
<path class="st2" d="M512,545.2c-59,0-107-48-107-107v-90.7c0-59,48-107,107-107s107,48,107,107v90.7C619,497.2,571,545.2,512,545.2
	z"/>
<path class="st3" d="M512,245.6c56.2,0,102,45.8,102,102v90.7c0,56.2-45.8,102-102,102c-56.2,0-102-45.8-102-102v-90.7
	C410,291.3,455.8,245.6,512,245.6 M512,235.6L512,235.6c-61.9,0-112,50.1-112,112v90.7c0,61.9,50.1,112,112,112h0
	c61.9,0,112-50.1,112-112v-90.7C624,285.7,573.9,235.6,512,235.6L512,235.6z"/>
<path class="st2" d="M642.6,402.9v49.7c0,33.8-12.6,66.7-35.9,91.2c-23.9,25.2-56,39.5-90.4,40.6c-36,1.2-71.2-12.7-96.7-38.2
	c-24.6-24.7-38.2-57.4-38.2-92.3v-51c0-5.5-4.5-10-10-10l0,0c-5.5,0-10,4.5-10,10v51c0,83.2,67.4,150.6,150.6,150.6h0
	c83.2,0,150.6-67.4,150.6-150.6v-51c0-5.5-4.5-10-10-10l0,0C647.1,392.9,642.6,397.4,642.6,402.9z"/>
<rect x="502" y="603.9" class="st2" width="20" height="156.1"/>
<path class="st2" d="M434,769.5L434,769.5c0-5.5,4.5-10,10-10H580c5.5,0,10,4.5,10,10v0c0,5.5-4.5,10-10,10H444
	C438.4,779.5,434,775,434,769.5z"/>
<linearGradient id="SVGID_2_" gradientUnits="userSpaceOnUse" x1="441.4815" y1="327.7768" x2="581.3333" y2="327.7768">
	<stop  offset="0" style="stop-color:#3DDFAE"/>
	<stop  offset="1" style="stop-color:#4AB6DA"/>
</linearGradient>
<path class="st4" d="M573.6,335.5H449.2c-4.3,0-7.7-3.4-7.7-7.7v0c0-4.3,3.4-7.7,7.7-7.7h124.4c4.3,0,7.7,3.4,7.7,7.7v0
	C581.3,332,577.9,335.5,573.6,335.5z"/>
<linearGradient id="SVGID_3_" gradientUnits="userSpaceOnUse" x1="441.4815" y1="370.4435" x2="581.3333" y2="370.4435">
	<stop  offset="0" style="stop-color:#3DDFAE"/>
	<stop  offset="1" style="stop-color:#4AB6DA"/>
</linearGradient>
<path class="st5" d="M573.6,378.1H449.2c-4.3,0-7.7-3.4-7.7-7.7l0,0c0-4.3,3.4-7.7,7.7-7.7h124.4c4.3,0,7.7,3.4,7.7,7.7l0,0
	C581.3,374.7,577.9,378.1,573.6,378.1z"/>
<linearGradient id="SVGID_4_" gradientUnits="userSpaceOnUse" x1="441.4815" y1="413.1101" x2="581.3333" y2="413.1101">
	<stop  offset="0" style="stop-color:#3DDFAE"/>
	<stop  offset="1" style="stop-color:#4AB6DA"/>
</linearGradient>
<path class="st6" d="M573.6,420.8H449.2c-4.3,0-7.7-3.4-7.7-7.7v0c0-4.3,3.4-7.7,7.7-7.7h124.4c4.3,0,7.7,3.4,7.7,7.7v0
	C581.3,417.4,577.9,420.8,573.6,420.8z"/>
<linearGradient id="SVGID_5_" gradientUnits="userSpaceOnUse" x1="441.4815" y1="455.7768" x2="581.3333" y2="455.7768">
	<stop  offset="0" style="stop-color:#3DDFAE"/>
	<stop  offset="1" style="stop-color:#4AB6DA"/>
</linearGradient>
<path class="st7" d="M573.6,463.5H449.2c-4.3,0-7.7-3.4-7.7-7.7l0,0c0-4.3,3.4-7.7,7.7-7.7h124.4c4.3,0,7.7,3.4,7.7,7.7l0,0
	C581.3,460,577.9,463.5,573.6,463.5z"/>
<linearGradient id="SVGID_6_" gradientUnits="userSpaceOnUse" x1="512" y1="100.667" x2="512" y2="923.333">
	<stop  offset="0" style="stop-color:#3DDFAE"/>
	<stop  offset="1" style="stop-color:#4AB6DA"/>
</linearGradient>
<circle class="st8" cx="512" cy="512" r="411.3"/>
</svg>
