<?xml version="1.0" encoding="utf-8"?>
<!-- Generator: Adobe Illustrator 24.2.1, SVG Export Plug-In . SVG Version: 6.00 Build 0)  -->
<svg version="1.1" id="图层_1" xmlns="http://www.w3.org/2000/svg" xmlns:xlink="http://www.w3.org/1999/xlink" x="0px" y="0px"
	 viewBox="0 0 1024 1024" style="enable-background:new 0 0 1024 1024;" xml:space="preserve">
<style type="text/css">
	.st0{fill:url(#SVGID_1_);}
	.st1{opacity:0.2;fill:#FFFFFF;}
	.st2{fill:#FFFFFF;}
	.st3{fill:#FF3D60;}
	.st4{fill:url(#SVGID_2_);}
	.st5{fill:url(#SVGID_3_);}
	.st6{opacity:0.2;fill:url(#SVGID_4_);}
</style>
<linearGradient id="SVGID_1_" gradientUnits="userSpaceOnUse" x1="512.6625" y1="64.2152" x2="512.6625" y2="960.2152">
	<stop  offset="0" style="stop-color:#FFA8B4"/>
	<stop  offset="1" style="stop-color:#FF3358"/>
</linearGradient>
<circle class="st0" cx="512.7" cy="512.2" r="448"/>
<path class="st1" d="M236.2,159.7l720.1,415.7c2.9-20.7,4.4-41.8,4.4-63.2c0-22-1.6-43.6-4.6-64.7L346.9,95.9
	C306.8,111.9,269.6,133.4,236.2,159.7z"/>
<path class="st1" d="M151,247.8l771.6,445.5c8.4-18.9,15.5-38.5,21.2-58.7L191.3,200.1C176.8,215,163.3,230.9,151,247.8z"/>
<path class="st1" d="M64.8,501.6l681.1,393.2c29.8-18.2,57.3-39.8,82-64.2L79.3,398.4C70.6,431.4,65.6,466,64.8,501.6z"/>
<path class="st2" d="M512.7,923.5c-55.5,0-109.4-10.9-160.1-32.3c-49-20.7-93-50.4-130.7-88.2c-37.8-37.8-67.4-81.8-88.2-130.7
	c-21.4-50.7-32.3-104.6-32.3-160.1c0-55.5,10.9-109.4,32.3-160.1c20.7-49,50.4-93,88.2-130.7c37.8-37.8,81.8-67.4,130.7-88.2
	c50.7-21.4,104.6-32.3,160.1-32.3c55.5,0,109.4,10.9,160.1,32.3c49,20.7,93,50.4,130.7,88.2c37.8,37.8,67.4,81.8,88.2,130.7
	c21.4,50.7,32.3,104.6,32.3,160.1c0,55.5-10.9,109.4-32.3,160.1c-20.7,49-50.4,93-88.2,130.7s-81.8,67.4-130.7,88.2
	C622.1,912.7,568.2,923.5,512.7,923.5z M512.7,104.9c-224.6,0-407.3,182.7-407.3,407.3s182.7,407.3,407.3,407.3S920,736.8,920,512.2
	S737.3,104.9,512.7,104.9z"/>
<path class="st2" d="M364.2,741.3c-11.7,0-21.2-9.5-21.2-21.2v-54.2h11.9c16.7,0,30.3-13.6,30.3-30.3c0-16.7-13.6-30.3-30.3-30.3
	H343v-62.8h11.9c16.7,0,30.3-13.6,30.3-30.3c0-16.7-13.6-30.3-30.3-30.3H343V419h11.9c16.7,0,30.3-13.6,30.3-30.3
	c0-16.7-13.6-30.3-30.3-30.3H343v-39.1c0-11.7,9.5-21.2,21.2-21.2h311.6c11.7,0,21.2,9.5,21.2,21.2v400.9c0,11.7-9.5,21.2-21.2,21.2
	H364.2z"/>
<path class="st3" d="M675.8,303c8.9,0,16.2,7.3,16.2,16.2v400.9c0,8.9-7.3,16.2-16.2,16.2H364.2c-8.9,0-16.2-7.3-16.2-16.2v-49.2
	h6.9c19.5,0,35.3-15.9,35.3-35.3c0-19.5-15.9-35.3-35.3-35.3H348v-52.8h6.9c19.5,0,35.3-15.9,35.3-35.3c0-19.5-15.9-35.3-35.3-35.3
	H348V424h6.9c19.5,0,35.3-15.9,35.3-35.3c0-19.5-15.9-35.3-35.3-35.3H348v-34.1c0-8.9,7.3-16.2,16.2-16.2H675.8 M675.8,293H364.2
	c-14.5,0-26.2,11.7-26.2,26.2v44.1h16.9c13.9,0,25.3,11.4,25.3,25.3v0c0,13.9-11.4,25.3-25.3,25.3H338v72.8h16.9
	c13.9,0,25.3,11.4,25.3,25.3v0c0,13.9-11.4,25.3-25.3,25.3H338v72.8h16.9c13.9,0,25.3,11.4,25.3,25.3c0,13.9-11.4,25.3-25.3,25.3
	H338v59.2c0,14.5,11.7,26.2,26.2,26.2h311.6c14.5,0,26.2-11.7,26.2-26.2V319.2C702,304.7,690.3,293,675.8,293L675.8,293z"/>
<path class="st2" d="M303.3,400.6c-6.8,0-12.3-5.5-12.3-12.3s5.5-12.3,12.3-12.3h50.5c6.8,0,12.3,5.5,12.3,12.3s-5.5,12.3-12.3,12.3
	H303.3z"/>
<path class="st3" d="M353.8,381.1c4,0,7.3,3.3,7.3,7.3s-3.3,7.3-7.3,7.3h-50.5c-4,0-7.3-3.3-7.3-7.3s3.3-7.3,7.3-7.3H353.8
	 M353.8,371.1h-50.5c-9.5,0-17.3,7.8-17.3,17.3s7.8,17.3,17.3,17.3h50.5c9.5,0,17.3-7.8,17.3-17.3S363.3,371.1,353.8,371.1
	L353.8,371.1z"/>
<path class="st2" d="M303.3,524.2c-6.8,0-12.3-5.5-12.3-12.3s5.5-12.3,12.3-12.3h50.5c6.8,0,12.3,5.5,12.3,12.3s-5.5,12.3-12.3,12.3
	H303.3z"/>
<path class="st3" d="M353.8,504.6c4,0,7.3,3.3,7.3,7.3c0,4-3.3,7.3-7.3,7.3h-50.5c-4,0-7.3-3.3-7.3-7.3c0-4,3.3-7.3,7.3-7.3H353.8
	 M353.8,494.6h-50.5c-9.5,0-17.3,7.8-17.3,17.3c0,9.5,7.8,17.3,17.3,17.3h50.5c9.5,0,17.3-7.8,17.3-17.3
	C371.1,502.4,363.3,494.6,353.8,494.6L353.8,494.6z"/>
<path class="st2" d="M303.3,648.2c-6.8,0-12.3-5.5-12.3-12.3s5.5-12.3,12.3-12.3h50.5c6.8,0,12.3,5.5,12.3,12.3s-5.5,12.3-12.3,12.3
	H303.3z"/>
<path class="st3" d="M353.8,628.7c4,0,7.3,3.3,7.3,7.3s-3.3,7.3-7.3,7.3h-50.5c-4,0-7.3-3.3-7.3-7.3s3.3-7.3,7.3-7.3H353.8
	 M353.8,618.7h-50.5c-9.5,0-17.3,7.8-17.3,17.3l0,0c0,9.5,7.8,17.3,17.3,17.3h50.5c9.5,0,17.3-7.8,17.3-17.3l0,0
	C371.1,626.4,363.3,618.7,353.8,618.7L353.8,618.7z"/>
<linearGradient id="SVGID_2_" gradientUnits="userSpaceOnUse" x1="530.3331" y1="492.8359" x2="530.3331" y2="650.6016">
	<stop  offset="0" style="stop-color:#FFA8B4"/>
	<stop  offset="1" style="stop-color:#FF3358"/>
</linearGradient>
<path class="st4" d="M459.1,650.6c-3.6,0-7-1.5-9.3-4.2c-2.4-2.7-3.4-6.2-3-9.8l17.5-133c0.8-6.1,6.1-10.8,12.3-10.8h0.6
	c2.9,0,5.8,1.1,8.1,3.1c12.6,10.6,28.6,16.4,45.1,16.4s32.5-5.8,45.1-16.4c2.4-2,5.2-3.1,8.1-3.1h0.6c6.2,0,11.5,4.6,12.3,10.8
	l17.5,133c0.5,3.5-0.6,7.1-3,9.8s-5.7,4.2-9.3,4.2H459.1z"/>
<path class="st3" d="M584.1,497.8c3.7,0,6.8,2.8,7.3,6.4l17.5,133c0.4,2.9-0.9,4.9-1.8,5.8c-0.8,0.9-2.6,2.5-5.6,2.5H459.1
	c-2.9,0-4.7-1.6-5.6-2.5c-0.8-0.9-2.2-2.9-1.8-5.8l17.5-133c0.5-3.7,3.6-6.4,7.3-6.4h0.6c1.7,0,3.5,0.7,4.9,1.9
	c13.5,11.3,30.7,17.5,48.3,17.5c17.6,0,34.8-6.2,48.3-17.5c1.5-1.2,3.2-1.9,4.9-1.9H584.1 M584.1,487.8h-0.6
	c-4.2,0-8.2,1.5-11.4,4.2c-11.3,9.5-25.9,15.2-41.9,15.2c-15.9,0-30.5-5.7-41.9-15.2c-3.2-2.7-7.2-4.2-11.4-4.2h-0.6
	c-8.7,0-16.1,6.5-17.2,15.1l-17.5,133c-1.4,10.4,6.7,19.7,17.2,19.7h142.6c10.5,0,18.6-9.2,17.2-19.7l-17.5-133
	C600.2,494.3,592.9,487.8,584.1,487.8L584.1,487.8z"/>
<linearGradient id="SVGID_3_" gradientUnits="userSpaceOnUse" x1="530.333" y1="393.4028" x2="530.333" y2="490.4985">
	<stop  offset="0" style="stop-color:#FFA8B4"/>
	<stop  offset="1" style="stop-color:#FF3358"/>
</linearGradient>
<circle class="st5" cx="530.3" cy="442" r="48.5"/>
<path class="st3" d="M530.3,398.4c24,0,43.5,19.5,43.5,43.5s-19.5,43.5-43.5,43.5S486.8,466,486.8,442S506.3,398.4,530.3,398.4
	 M530.3,388.4c-29.6,0-53.5,24-53.5,53.5c0,29.6,24,53.5,53.5,53.5c29.6,0,53.5-24,53.5-53.5C583.9,412.4,559.9,388.4,530.3,388.4
	L530.3,388.4z"/>
<linearGradient id="SVGID_4_" gradientUnits="userSpaceOnUse" x1="512" y1="100.667" x2="512" y2="923.333">
	<stop  offset="0" style="stop-color:#FFA8B4"/>
	<stop  offset="1" style="stop-color:#FF3358"/>
</linearGradient>
<circle class="st6" cx="512" cy="512" r="411.3"/>
</svg>
