<?xml version="1.0" encoding="utf-8"?>
<!-- Generator: Adobe Illustrator 24.2.1, SVG Export Plug-In . SVG Version: 6.00 Build 0)  -->
<svg version="1.1" id="图层_1" xmlns="http://www.w3.org/2000/svg" xmlns:xlink="http://www.w3.org/1999/xlink" x="0px" y="0px"
	 viewBox="0 0 1024 1024" style="enable-background:new 0 0 1024 1024;" xml:space="preserve">
<style type="text/css">
	.st0{fill:url(#SVGID_1_);}
	.st1{opacity:0.2;fill:#FFFFFF;}
	.st2{fill:#FFFFFF;}
	.st3{fill:#44A5F7;}
	.st4{fill:url(#SVGID_2_);}
	.st5{fill:url(#SVGID_3_);}
	.st6{fill:url(#SVGID_4_);}
	.st7{opacity:0.2;fill:url(#SVGID_5_);}
</style>
<linearGradient id="SVGID_1_" gradientUnits="userSpaceOnUse" x1="511.9984" y1="64.5609" x2="511.9984" y2="960.5609">
	<stop  offset="0" style="stop-color:#62D0F1"/>
	<stop  offset="1" style="stop-color:#41A1F7"/>
</linearGradient>
<circle class="st0" cx="512" cy="512.6" r="448"/>
<path class="st1" d="M235.5,160l720.1,415.7c2.9-20.7,4.4-41.8,4.4-63.2c0-22-1.6-43.6-4.6-64.7L346.3,96.2
	C306.2,112.2,268.9,133.8,235.5,160z"/>
<path class="st1" d="M150.3,248.1l771.6,445.5c8.4-18.9,15.5-38.5,21.2-58.7L190.6,200.4C176.1,215.4,162.7,231.3,150.3,248.1z"/>
<path class="st1" d="M64.1,501.9l681.1,393.2c29.8-18.2,57.3-39.8,82-64.2L78.6,398.7C69.9,431.8,65,466.3,64.1,501.9z"/>
<path class="st2" d="M512,923.9c-55.5,0-109.4-10.9-160.1-32.3c-49-20.7-93-50.4-130.7-88.2c-37.8-37.8-67.4-81.8-88.2-130.7
	c-21.4-50.7-32.3-104.6-32.3-160.1c0-55.5,10.9-109.4,32.3-160.1c20.7-49,50.4-93,88.2-130.7c37.8-37.8,81.8-67.4,130.7-88.2
	c50.7-21.4,104.6-32.3,160.1-32.3c55.5,0,109.4,10.9,160.1,32.3c49,20.7,93,50.4,130.7,88.2c37.8,37.8,67.4,81.8,88.2,130.7
	c21.4,50.7,32.3,104.6,32.3,160.1c0,55.5-10.9,109.4-32.3,160.1c-20.7,49-50.4,93-88.2,130.7s-81.8,67.4-130.7,88.2
	C621.4,913,567.5,923.9,512,923.9z M512,105.2c-224.6,0-407.3,182.7-407.3,407.3S287.4,919.9,512,919.9s407.3-182.7,407.3-407.3
	S736.6,105.2,512,105.2z"/>
<path class="st2" d="M362.1,753.2c-17.8,0-32.3-14.5-32.3-32.3V303c0-17.8,14.5-32.3,32.3-32.3h187.5c14.3,0,27.8,5.6,37.9,15.7
	l91,91c10.1,10.1,15.7,23.6,15.7,37.9V721c0,17.8-14.5,32.3-32.3,32.3H362.1z"/>
<path class="st3" d="M549.6,275.8c13,0,25.2,5.1,34.3,14.2l91,91c9.2,9.2,14.2,21.4,14.2,34.3V721c0,15-12.2,27.3-27.3,27.3H362.1
	c-15,0-27.3-12.2-27.3-27.3V303c0-15,12.2-27.3,27.3-27.3H549.6 M549.6,265.8H362.1c-20.5,0-37.3,16.8-37.3,37.3V721
	c0,20.5,16.8,37.3,37.3,37.3h299.8c20.5,0,37.3-16.8,37.3-37.3V415.3c0-15.5-6.2-30.4-17.1-41.4l-91-91
	C580.1,271.9,565.2,265.8,549.6,265.8L549.6,265.8z"/>
<linearGradient id="SVGID_2_" gradientUnits="userSpaceOnUse" x1="377" y1="420.7036" x2="631" y2="420.7036">
	<stop  offset="0" style="stop-color:#62D0F1"/>
	<stop  offset="1" style="stop-color:#41A1F7"/>
</linearGradient>
<path class="st4" d="M394,437.7c-9.4,0-17-7.6-17-17s7.6-17,17-17h220c9.4,0,17,7.6,17,17s-7.6,17-17,17H394z"/>
<path class="st3" d="M614,408.7c6.6,0,12,5.4,12,12s-5.4,12-12,12H394c-6.6,0-12-5.4-12-12s5.4-12,12-12H614 M614,398.7H394
	c-12.2,0-22,9.8-22,22s9.8,22,22,22h220c12.2,0,22-9.8,22-22S626.2,398.7,614,398.7L614,398.7z"/>
<linearGradient id="SVGID_3_" gradientUnits="userSpaceOnUse" x1="377" y1="526.4814" x2="631" y2="526.4814">
	<stop  offset="0" style="stop-color:#62D0F1"/>
	<stop  offset="1" style="stop-color:#41A1F7"/>
</linearGradient>
<path class="st5" d="M394,543.5c-9.4,0-17-7.6-17-17s7.6-17,17-17h220c9.4,0,17,7.6,17,17s-7.6,17-17,17H394z"/>
<path class="st3" d="M614,514.5c6.6,0,12,5.4,12,12c0,6.6-5.4,12-12,12H394c-6.6,0-12-5.4-12-12s5.4-12,12-12H614 M614,504.5H394
	c-12.2,0-22,9.8-22,22v0c0,12.2,9.8,22,22,22h220c12.2,0,22-9.8,22-22v0C636,514.3,626.2,504.5,614,504.5L614,504.5z"/>
<linearGradient id="SVGID_4_" gradientUnits="userSpaceOnUse" x1="377" y1="632.2588" x2="631" y2="632.2588">
	<stop  offset="0" style="stop-color:#62D0F1"/>
	<stop  offset="1" style="stop-color:#41A1F7"/>
</linearGradient>
<path class="st6" d="M394,649.3c-9.4,0-17-7.6-17-17s7.6-17,17-17h220c9.4,0,17,7.6,17,17s-7.6,17-17,17H394z"/>
<path class="st3" d="M614,620.3c6.6,0,12,5.4,12,12s-5.4,12-12,12H394c-6.6,0-12-5.4-12-12c0-6.6,5.4-12,12-12H614 M614,610.3H394
	c-12.2,0-22,9.8-22,22v0c0,12.2,9.8,22,22,22h220c12.2,0,22-9.8,22-22v0C636,620.1,626.2,610.3,614,610.3L614,610.3z"/>
<linearGradient id="SVGID_5_" gradientUnits="userSpaceOnUse" x1="512" y1="100.667" x2="512" y2="923.333">
	<stop  offset="0" style="stop-color:#62D0F1"/>
	<stop  offset="1" style="stop-color:#41A1F7"/>
</linearGradient>
<circle class="st7" cx="512" cy="512" r="411.3"/>
</svg>
