<?xml version="1.0" encoding="utf-8"?>
<!-- Generator: Adobe Illustrator 24.2.1, SVG Export Plug-In . SVG Version: 6.00 Build 0)  -->
<svg version="1.1" id="图层_1" xmlns="http://www.w3.org/2000/svg" xmlns:xlink="http://www.w3.org/1999/xlink" x="0px" y="0px"
	 viewBox="0 0 1024 1024" style="enable-background:new 0 0 1024 1024;" xml:space="preserve">
<style type="text/css">
	.st0{fill:url(#SVGID_1_);}
	.st1{opacity:0.2;fill:#FFFFFF;}
	.st2{fill:#FFFFFF;}
	.st3{fill:#44A5F7;}
	.st4{opacity:0.2;fill:url(#SVGID_2_);}
</style>
<linearGradient id="SVGID_1_" gradientUnits="userSpaceOnUse" x1="512" y1="64" x2="512" y2="960">
	<stop  offset="0" style="stop-color:#62D0F1"/>
	<stop  offset="1" style="stop-color:#41A1F7"/>
</linearGradient>
<circle class="st0" cx="512" cy="512" r="448"/>
<path class="st1" d="M235.5,159.5l720.1,415.7c2.9-20.7,4.4-41.8,4.4-63.2c0-22-1.6-43.6-4.6-64.7L346.3,95.7
	C306.2,111.6,268.9,133.2,235.5,159.5z"/>
<path class="st1" d="M150.3,247.6L921.9,693c8.4-18.9,15.5-38.5,21.2-58.7L190.6,199.9C176.1,214.8,162.7,230.7,150.3,247.6z"/>
<path class="st1" d="M64.1,501.3l681.1,393.2c29.8-18.2,57.3-39.8,82-64.2L78.6,398.1C69.9,431.2,65,465.8,64.1,501.3z"/>
<path class="st2" d="M512,923.3c-55.5,0-109.4-10.9-160.1-32.3c-49-20.7-93-50.4-130.7-88.2c-37.8-37.8-67.4-81.8-88.2-130.7
	c-21.4-50.7-32.3-104.6-32.3-160.1c0-55.5,10.9-109.4,32.3-160.1c20.7-49,50.4-93,88.2-130.7c37.8-37.8,81.8-67.4,130.7-88.2
	c50.7-21.4,104.6-32.3,160.1-32.3c55.5,0,109.4,10.9,160.1,32.3c49,20.7,93,50.4,130.7,88.2c37.8,37.8,67.4,81.8,88.2,130.7
	c21.4,50.7,32.3,104.6,32.3,160.1c0,55.5-10.9,109.4-32.3,160.1c-20.7,49-50.4,93-88.2,130.7s-81.8,67.4-130.7,88.2
	C621.4,912.5,567.5,923.3,512,923.3z M512,104.7c-224.6,0-407.3,182.7-407.3,407.3S287.4,919.3,512,919.3S919.3,736.6,919.3,512
	S736.6,104.7,512,104.7z"/>
<path class="st2" d="M347.7,576.8c-50.2,0-91-40.8-91-91c0-36.9,22.1-69.9,56.4-84.1l3.7-1.5l-0.7-3.9c-0.9-5.3-1.4-10.8-1.4-16.2
	c0-53.1,43.2-96.3,96.3-96.3c23.5,0,46.1,8.6,63.8,24.1l4.6,4.1l3.1-5.3C504.6,268,546.1,244,590.5,244c68.8,0,124.8,56,124.8,124.8
	c0,9.9-1.2,19.9-3.5,29.5l-0.9,3.9l3.6,1.8c31.2,15.2,51.3,47.4,51.3,81.8c0,50.2-40.8,91-91,91H347.7z"/>
<path class="st3" d="M590.5,249c32,0,62.1,12.5,84.7,35.1s35.1,52.7,35.1,84.7c0,9.5-1.1,19.1-3.4,28.3l-1.9,7.8l7.2,3.5
	c14.3,7,26.4,17.8,35,31.2c8.8,13.8,13.5,29.7,13.5,46.1c0,22.9-9,44.4-25.3,60.7s-37.9,25.3-60.7,25.3H347.7
	c-22.9,0-44.4-9-60.7-25.3c-16.3-16.3-25.3-37.9-25.3-60.7c0-17.3,5.2-34,14.9-48.3c9.5-14,22.8-24.8,38.3-31.2l7.4-3.1l-1.3-7.9
	c-0.9-5.1-1.3-10.3-1.3-15.4c0-50.4,41-91.3,91.3-91.3c22.3,0,43.8,8.1,60.4,22.9l9.2,8.1l6.1-10.6c10.3-17.9,25.2-32.9,43-43.5
	C548.1,254.7,569.1,249,590.5,249 M590.5,239c-48.1,0-90.1,26.2-112.5,65c-17.9-15.8-41.3-25.4-67.1-25.4
	c-56,0-101.3,45.4-101.3,101.3c0,5.8,0.5,11.5,1.4,17.1c-34.8,14.5-59.4,48.8-59.4,88.7v0c0,52.8,43.2,96,96,96h327.1
	c52.8,0,96-43.2,96-96v0c0-37.8-22.2-70.7-54.1-86.3c2.4-9.8,3.7-20.1,3.7-30.7C720.3,297.1,662.2,239,590.5,239L590.5,239z"/>
<path class="st2" d="M385.2,729.7c-23.2,0-42-18.8-42-42c0-11.1,6.5-28.9,16.5-45.3c10.4-17.1,20.7-26,25.5-26
	c2.6,0.2,12.3,8.2,24.1,26.6c11,17.2,17.9,34.3,17.9,44.7C427.2,710.9,408.4,729.7,385.2,729.7z"/>
<path class="st3" d="M384.7,621.6c3.4,2,12.2,10.8,21.8,26.3c9.7,15.6,15.7,30.9,15.7,39.9c0,20.4-16.6,37-37,37s-37-16.6-37-37
	c0-9.9,5.9-26.2,15.1-41.6C373.1,629.8,381.5,622.8,384.7,621.6 M385.2,611.4c-16.8,0-47,50.4-47,76.3c0,26,21,47,47,47
	c26,0,47-21,47-47C432.2,661.8,397.3,611.4,385.2,611.4L385.2,611.4z"/>
<path class="st2" d="M534.6,789.1c-23.2,0-42-18.8-42-42c0-11.1,6.5-28.9,16.5-45.3c10.4-17.1,20.7-26,25.5-26
	c2.6,0.2,12.3,8.2,24.1,26.6c11,17.2,17.9,34.3,17.9,44.7C576.6,770.3,557.8,789.1,534.6,789.1z"/>
<path class="st3" d="M534.1,681c3.4,2,12.2,10.8,21.8,26.3c9.7,15.6,15.7,30.9,15.7,39.9c0,20.4-16.6,37-37,37s-37-16.6-37-37
	c0-9.9,5.9-26.2,15.1-41.6C522.5,689.2,530.9,682.2,534.1,681 M534.6,670.8c-16.8,0-47,50.4-47,76.3c0,26,21,47,47,47s47-21,47-47
	C581.6,721.2,546.7,670.8,534.6,670.8L534.6,670.8z"/>
<path class="st2" d="M674.6,733.3c-23.2,0-42-18.8-42-42c0-11.1,6.5-28.9,16.5-45.3c10.4-17.1,20.7-26,25.5-26
	c2.6,0.2,12.3,8.2,24.1,26.6c11,17.2,17.9,34.3,17.9,44.7C716.6,714.5,697.8,733.3,674.6,733.3z"/>
<path class="st3" d="M674.1,625.2c3.4,2,12.2,10.8,21.8,26.3c9.7,15.6,15.7,30.9,15.7,39.9c0,20.4-16.6,37-37,37s-37-16.6-37-37
	c0-9.9,5.9-26.2,15.1-41.6C662.5,633.4,670.9,626.4,674.1,625.2 M674.6,615c-16.8,0-47,50.4-47,76.3c0,26,21,47,47,47s47-21,47-47
	C721.6,665.4,686.7,615,674.6,615L674.6,615z"/>
<linearGradient id="SVGID_2_" gradientUnits="userSpaceOnUse" x1="512" y1="100.667" x2="512" y2="923.333">
	<stop  offset="0" style="stop-color:#62D0F1"/>
	<stop  offset="1" style="stop-color:#41A1F7"/>
</linearGradient>
<circle class="st4" cx="512" cy="512" r="411.3"/>
</svg>
