<?xml version="1.0" encoding="utf-8"?>
<!-- Generator: Adobe Illustrator 24.2.1, SVG Export Plug-In . SVG Version: 6.00 Build 0)  -->
<svg version="1.1" id="图层_1" xmlns="http://www.w3.org/2000/svg" xmlns:xlink="http://www.w3.org/1999/xlink" x="0px" y="0px"
	 viewBox="0 0 1024 1024" style="enable-background:new 0 0 1024 1024;" xml:space="preserve">
<style type="text/css">
	.st0{fill:url(#SVGID_1_);}
	.st1{opacity:0.2;fill:#FFFFFF;}
	.st2{fill:#FFFFFF;}
	.st3{fill:#FF3D60;}
	.st4{fill:url(#SVGID_2_);}
	.st5{opacity:0.2;fill:url(#SVGID_3_);}
</style>
<linearGradient id="SVGID_1_" gradientUnits="userSpaceOnUse" x1="511.5" y1="63.3345" x2="511.5" y2="959.3345">
	<stop  offset="0" style="stop-color:#FFA8B4"/>
	<stop  offset="1" style="stop-color:#FF3358"/>
</linearGradient>
<circle class="st0" cx="511.5" cy="511.3" r="448"/>
<path class="st1" d="M235,158.8l720.1,415.7c2.9-20.7,4.4-41.8,4.4-63.2c0-22-1.6-43.6-4.6-64.7L345.8,95
	C305.7,111,268.4,132.6,235,158.8z"/>
<path class="st1" d="M149.8,246.9l771.6,445.5c8.4-18.9,15.5-38.5,21.2-58.7L190.1,199.2C175.6,214.1,162.2,230.1,149.8,246.9z"/>
<path class="st1" d="M63.6,500.7l681.1,393.2c29.8-18.2,57.3-39.8,82-64.2L78.1,397.5C69.4,430.5,64.5,465.1,63.6,500.7z"/>
<path class="st2" d="M511.5,922.7c-55.5,0-109.4-10.9-160.1-32.3c-49-20.7-93-50.4-130.7-88.2c-37.8-37.8-67.4-81.8-88.2-130.7
	c-21.4-50.7-32.3-104.6-32.3-160.1c0-55.5,10.9-109.4,32.3-160.1c20.7-49,50.4-93,88.2-130.7c37.8-37.8,81.8-67.4,130.7-88.2
	C402.1,110.9,456,100,511.5,100c55.5,0,109.4,10.9,160.1,32.3c49,20.7,93,50.4,130.7,88.2c37.8,37.8,67.4,81.8,88.2,130.7
	c21.4,50.7,32.3,104.6,32.3,160.1c0,55.5-10.9,109.4-32.3,160.1c-20.7,49-50.4,93-88.2,130.7s-81.8,67.4-130.7,88.2
	C620.9,911.8,567,922.7,511.5,922.7z M511.5,104c-224.6,0-407.3,182.7-407.3,407.3s182.7,407.3,407.3,407.3s407.3-182.7,407.3-407.3
	S736.1,104,511.5,104z"/>
<path class="st2" d="M512,798.2c-16.3,0-67.7-50.6-122.3-132.5c-26.8-40.2-49.6-80.8-65.8-117.6c-18.7-42.5-28.2-78.1-28.2-106
	c0-57.8,22.5-112.1,63.4-153c40.9-40.9,95.2-63.4,153-63.4c57.8,0,112.1,22.5,153,63.4c40.9,40.9,63.4,95.2,63.4,153
	c0,52.4-34.6,136-92.5,223.6C581,748.7,529.8,798.2,512,798.2z"/>
<path class="st3" d="M512,230.8c28.5,0,56.2,5.6,82.3,16.6c25.2,10.6,47.8,25.9,67.2,45.3s34.7,42,45.3,67.2
	c11,26,16.6,53.7,16.6,82.3c0,26.9-9.4,62.8-27.3,104c-15.9,36.8-38.2,77.2-64.4,116.8c-24,36.4-49.9,69.8-72.9,94.1
	c-33.1,35.1-45.5,36.1-46.8,36.1c-0.5,0-11.7-0.4-45.1-36.1c-23-24.6-49-58.1-73.1-94.2c-26.7-39.9-49.3-80.3-65.4-116.9
	c-18.5-41.8-27.8-76.8-27.8-104c0-28.5,5.6-56.2,16.6-82.3c10.6-25.2,25.9-47.8,45.3-67.2c19.4-19.4,42-34.7,67.2-45.3
	C455.8,236.4,483.5,230.8,512,230.8 M512,220.8c-122.2,0-221.3,99.1-221.3,221.3c0,122.2,179.2,361.1,221.3,361.1
	c46.2,0,221.3-238.8,221.3-361.1C733.3,319.9,634.2,220.8,512,220.8L512,220.8z"/>
<linearGradient id="SVGID_2_" gradientUnits="userSpaceOnUse" x1="384.2495" y1="425.333" x2="638.75" y2="425.333">
	<stop  offset="0" style="stop-color:#FFA8B4"/>
	<stop  offset="1" style="stop-color:#FF3358"/>
</linearGradient>
<circle class="st4" cx="511.5" cy="425.3" r="127.3"/>
<path class="st3" d="M511.5,303.1c32.7,0,63.4,12.7,86.4,35.8c23.1,23.1,35.8,53.8,35.8,86.4s-12.7,63.4-35.8,86.4
	c-23.1,23.1-53.8,35.8-86.4,35.8s-63.4-12.7-86.4-35.8c-23.1-23.1-35.8-53.8-35.8-86.4s12.7-63.4,35.8-86.4
	C448.1,315.8,478.8,303.1,511.5,303.1 M511.5,293.1c-73,0-132.3,59.2-132.3,132.3s59.2,132.3,132.3,132.3s132.3-59.2,132.3-132.3
	S584.5,293.1,511.5,293.1L511.5,293.1z"/>
<path class="st2" d="M492.4,452.8L492.4,452.8c-7.1,0-12.9-5.8-12.9-12.9v-69.7c0-7.1,5.8-12.9,12.9-12.9l0,0
	c7.1,0,12.9,5.8,12.9,12.9v69.7C505.3,447.1,499.5,452.8,492.4,452.8z"/>
<path class="st2" d="M479.3,439.9L479.3,439.9c0-7.1,5.8-12.9,12.9-12.9h69.7c7.1,0,12.9,5.8,12.9,12.9v0c0,7.1-5.8,12.9-12.9,12.9
	h-69.7C485.1,452.8,479.3,447.1,479.3,439.9z"/>
<linearGradient id="SVGID_3_" gradientUnits="userSpaceOnUse" x1="512" y1="100.667" x2="512" y2="923.333">
	<stop  offset="0" style="stop-color:#FFA8B4"/>
	<stop  offset="1" style="stop-color:#FF3358"/>
</linearGradient>
<circle class="st5" cx="512" cy="512" r="411.3"/>
</svg>
