<?xml version="1.0" encoding="utf-8"?>
<!-- Generator: Adobe Illustrator 24.2.1, SVG Export Plug-In . SVG Version: 6.00 Build 0)  -->
<svg version="1.1" id="图层_1" xmlns="http://www.w3.org/2000/svg" xmlns:xlink="http://www.w3.org/1999/xlink" x="0px" y="0px"
	 viewBox="0 0 1024 1024" style="enable-background:new 0 0 1024 1024;" xml:space="preserve">
<style type="text/css">
	.st0{fill:url(#SVGID_1_);}
	.st1{opacity:0.2;fill:#FFFFFF;}
	.st2{fill:#FFFFFF;}
	.st3{fill:#667AEA;}
	.st4{fill:url(#SVGID_2_);}
	.st5{fill:url(#SVGID_3_);}
	.st6{fill:url(#SVGID_4_);}
	.st7{opacity:0.2;fill:url(#SVGID_5_);}
</style>
<linearGradient id="SVGID_1_" gradientUnits="userSpaceOnUse" x1="512" y1="64" x2="512" y2="960">
	<stop  offset="0" style="stop-color:#D776EA"/>
	<stop  offset="1" style="stop-color:#607AEA"/>
</linearGradient>
<circle class="st0" cx="512" cy="512" r="448"/>
<path class="st1" d="M235.5,159.5l720.1,415.7c2.9-20.7,4.4-41.8,4.4-63.2c0-22-1.6-43.6-4.6-64.7L346.3,95.7
	C306.2,111.6,268.9,133.2,235.5,159.5z"/>
<path class="st1" d="M150.3,247.6L921.9,693c8.4-18.9,15.5-38.5,21.2-58.7L190.6,199.9C176.1,214.8,162.7,230.7,150.3,247.6z"/>
<path class="st1" d="M64.1,501.3l681.1,393.2c29.8-18.2,57.3-39.8,82-64.2L78.6,398.1C69.9,431.2,65,465.8,64.1,501.3z"/>
<path class="st2" d="M512,923.3c-55.5,0-109.4-10.9-160.1-32.3c-49-20.7-93-50.4-130.7-88.2c-37.8-37.8-67.4-81.8-88.2-130.7
	c-21.4-50.7-32.3-104.6-32.3-160.1c0-55.5,10.9-109.4,32.3-160.1c20.7-49,50.4-93,88.2-130.7c37.8-37.8,81.8-67.4,130.7-88.2
	c50.7-21.4,104.6-32.3,160.1-32.3c55.5,0,109.4,10.9,160.1,32.3c49,20.7,93,50.4,130.7,88.2c37.8,37.8,67.4,81.8,88.2,130.7
	c21.4,50.7,32.3,104.6,32.3,160.1c0,55.5-10.9,109.4-32.3,160.1c-20.7,49-50.4,93-88.2,130.7s-81.8,67.4-130.7,88.2
	C621.4,912.5,567.5,923.3,512,923.3z M512,104.7c-224.6,0-407.3,182.7-407.3,407.3S287.4,919.3,512,919.3S919.3,736.6,919.3,512
	S736.6,104.7,512,104.7z"/>
<path class="st2" d="M302,665.8c-16.4,0-29.7-13.3-29.7-29.7V374.8c0-16.4,13.3-29.7,29.7-29.7h420c16.4,0,29.7,13.3,29.7,29.7
	v261.3c0,16.4-13.3,29.7-29.7,29.7H302z"/>
<path class="st3" d="M722,350.2c13.6,0,24.7,11.1,24.7,24.7v261.3c0,13.6-11.1,24.7-24.7,24.7H302c-13.6,0-24.7-11.1-24.7-24.7
	V374.8c0-13.6,11.1-24.7,24.7-24.7H722 M722,340.2H302c-19.1,0-34.7,15.6-34.7,34.7v261.3c0,19.1,15.6,34.7,34.7,34.7h420
	c19.1,0,34.7-15.6,34.7-34.7V374.8C756.7,355.8,741.1,340.2,722,340.2L722,340.2z"/>
<path class="st2" d="M512,735c-3.6,0-7.1-1.6-9.8-4.6l-58.6-64.5h136.6l-58.6,64.5C519.1,733.4,515.6,735,512,735z"/>
<path class="st3" d="M569,670.9L544.4,698l-26.3,29c-1.7,1.9-3.9,2.9-6.1,2.9s-4.3-1-6.1-2.9l-26.3-29L455,670.9h57H569
	 M591.6,660.9H512h-79.6l39.8,43.9l26.3,29c3.8,4.1,8.6,6.2,13.5,6.2c4.9,0,9.7-2.1,13.5-6.2l26.3-29L591.6,660.9L591.6,660.9z"/>
<linearGradient id="SVGID_2_" gradientUnits="userSpaceOnUse" x1="382.4487" y1="470.9888" x2="382.4487" y2="544.333">
	<stop  offset="0" style="stop-color:#D776EA"/>
	<stop  offset="1" style="stop-color:#607AEA"/>
</linearGradient>
<circle class="st4" cx="382.4" cy="507.7" r="36.7"/>
<path class="st3" d="M382.4,476c17.5,0,31.7,14.2,31.7,31.7c0,17.5-14.2,31.7-31.7,31.7c-17.5,0-31.7-14.2-31.7-31.7
	C350.8,490.2,365,476,382.4,476 M382.4,466c-23,0-41.7,18.7-41.7,41.7c0,23,18.7,41.7,41.7,41.7s41.7-18.7,41.7-41.7
	C424.1,484.6,405.5,466,382.4,466L382.4,466z"/>
<linearGradient id="SVGID_3_" gradientUnits="userSpaceOnUse" x1="512.7244" y1="470.9888" x2="512.7244" y2="544.333">
	<stop  offset="0" style="stop-color:#D776EA"/>
	<stop  offset="1" style="stop-color:#607AEA"/>
</linearGradient>
<circle class="st5" cx="512.7" cy="507.7" r="36.7"/>
<path class="st3" d="M512.7,476c17.5,0,31.7,14.2,31.7,31.7c0,17.5-14.2,31.7-31.7,31.7s-31.7-14.2-31.7-31.7
	C481.1,490.2,495.3,476,512.7,476 M512.7,466c-23,0-41.7,18.7-41.7,41.7c0,23,18.7,41.7,41.7,41.7c23,0,41.7-18.7,41.7-41.7
	C554.4,484.6,535.7,466,512.7,466L512.7,466z"/>
<linearGradient id="SVGID_4_" gradientUnits="userSpaceOnUse" x1="643" y1="470.9888" x2="643" y2="544.333">
	<stop  offset="0" style="stop-color:#D776EA"/>
	<stop  offset="1" style="stop-color:#607AEA"/>
</linearGradient>
<circle class="st6" cx="643" cy="507.7" r="36.7"/>
<path class="st3" d="M643,476c17.5,0,31.7,14.2,31.7,31.7c0,17.5-14.2,31.7-31.7,31.7s-31.7-14.2-31.7-31.7
	C611.3,490.2,625.5,476,643,476 M643,466c-23,0-41.7,18.7-41.7,41.7c0,23,18.7,41.7,41.7,41.7s41.7-18.7,41.7-41.7
	C684.7,484.6,666,466,643,466L643,466z"/>
<linearGradient id="SVGID_5_" gradientUnits="userSpaceOnUse" x1="512" y1="100.667" x2="512" y2="923.333">
	<stop  offset="0" style="stop-color:#D776EA"/>
	<stop  offset="1" style="stop-color:#607AEA"/>
</linearGradient>
<circle class="st7" cx="512" cy="512" r="411.3"/>
</svg>
