<?xml version="1.0" encoding="utf-8"?>
<!-- Generator: Adobe Illustrator 24.2.1, SVG Export Plug-In . SVG Version: 6.00 Build 0)  -->
<svg version="1.1" id="图层_1" xmlns="http://www.w3.org/2000/svg" xmlns:xlink="http://www.w3.org/1999/xlink" x="0px" y="0px"
	 viewBox="0 0 1024 1024" style="enable-background:new 0 0 1024 1024;" xml:space="preserve">
<style type="text/css">
	.st0{fill:url(#SVGID_1_);}
	.st1{opacity:0.2;fill:#FFFFFF;}
	.st2{fill:#FFFFFF;}
	.st3{fill:#48BCD4;}
	.st4{fill:url(#SVGID_2_);}
	.st5{opacity:0.2;fill:url(#SVGID_3_);}
</style>
<linearGradient id="SVGID_1_" gradientUnits="userSpaceOnUse" x1="512.5618" y1="64" x2="512.5618" y2="960">
	<stop  offset="0" style="stop-color:#3DDFAE"/>
	<stop  offset="1" style="stop-color:#4AB6DA"/>
</linearGradient>
<circle class="st0" cx="512.6" cy="512" r="448"/>
<path class="st1" d="M236.1,159.5l720.1,415.7c2.9-20.7,4.4-41.8,4.4-63.2c0-22-1.6-43.6-4.6-64.7L346.8,95.7
	C306.7,111.6,269.5,133.2,236.1,159.5z"/>
<path class="st1" d="M150.9,247.6L922.5,693c8.4-18.9,15.5-38.5,21.2-58.7L191.2,199.9C176.7,214.8,163.2,230.7,150.9,247.6z"/>
<path class="st1" d="M64.7,501.3l681.1,393.2c29.8-18.2,57.3-39.8,82-64.2L79.2,398.1C70.5,431.2,65.5,465.8,64.7,501.3z"/>
<path class="st2" d="M512.6,923.3c-55.5,0-109.4-10.9-160.1-32.3c-49-20.7-93-50.4-130.7-88.2c-37.8-37.8-67.4-81.8-88.2-130.7
	c-21.4-50.7-32.3-104.6-32.3-160.1c0-55.5,10.9-109.4,32.3-160.1c20.7-49,50.4-93,88.2-130.7c37.8-37.8,81.8-67.4,130.7-88.2
	c50.7-21.4,104.6-32.3,160.1-32.3c55.5,0,109.4,10.9,160.1,32.3c49,20.7,93,50.4,130.7,88.2c37.8,37.8,67.4,81.8,88.2,130.7
	c21.4,50.7,32.3,104.6,32.3,160.1c0,55.5-10.9,109.4-32.3,160.1c-20.7,49-50.4,93-88.2,130.7s-81.8,67.4-130.7,88.2
	C622,912.5,568.1,923.3,512.6,923.3z M512.6,104.7C288,104.7,105.2,287.4,105.2,512S288,919.3,512.6,919.3S919.9,736.6,919.9,512
	S737.2,104.7,512.6,104.7z"/>
<path class="st2" d="M377,740.5c-20.3,0-36.7-16.5-36.7-36.7V320.2c0-20.3,16.5-36.7,36.7-36.7H647c20.3,0,36.7,16.5,36.7,36.7
	v383.6c0,20.3-16.5,36.7-36.7,36.7H377z"/>
<path class="st3" d="M647,288.5c17.5,0,31.7,14.2,31.7,31.7v383.6c0,17.5-14.2,31.7-31.7,31.7H377c-17.5,0-31.7-14.2-31.7-31.7
	V320.2c0-17.5,14.2-31.7,31.7-31.7H647 M647,278.5H377c-23.1,0-41.7,18.7-41.7,41.7v383.6c0,23.1,18.7,41.7,41.7,41.7H647
	c23.1,0,41.7-18.7,41.7-41.7V320.2C688.8,297.1,670.1,278.5,647,278.5L647,278.5z"/>
<linearGradient id="SVGID_2_" gradientUnits="userSpaceOnUse" x1="510.1204" y1="659.5732" x2="510.1204" y2="372.7817">
	<stop  offset="0" style="stop-color:#3DDFAE"/>
	<stop  offset="1" style="stop-color:#4AB6DA"/>
</linearGradient>
<polygon class="st4" points="434.7,571.4 471.9,571.4 471.9,372.8 548.4,372.8 548.4,571.4 585.6,571.4 510.1,659.6 "/>
<path class="st3" d="M543.4,377.8v188.7v10h10h21.3l-29,33.9l-35.6,41.5l-35.6-41.5l-29-33.9h21.3h10v-10V377.8H543.4 M553.4,367.8
	h-86.5v198.7h-43.1l43.2,50.4l43.2,50.4l43.2-50.4l43.2-50.4h-43.1V367.8L553.4,367.8z"/>
<linearGradient id="SVGID_3_" gradientUnits="userSpaceOnUse" x1="512" y1="100.667" x2="512" y2="923.333">
	<stop  offset="0" style="stop-color:#3DDFAE"/>
	<stop  offset="1" style="stop-color:#4AB6DA"/>
</linearGradient>
<circle class="st5" cx="512" cy="512" r="411.3"/>
</svg>
