<?xml version="1.0" encoding="utf-8"?>
<!-- Generator: Adobe Illustrator 24.2.1, SVG Export Plug-In . SVG Version: 6.00 Build 0)  -->
<svg version="1.1" id="图层_1" xmlns="http://www.w3.org/2000/svg" xmlns:xlink="http://www.w3.org/1999/xlink" x="0px" y="0px"
	 viewBox="0 0 1024 1024" style="enable-background:new 0 0 1024 1024;" xml:space="preserve">
<style type="text/css">
	.st0{fill:url(#SVGID_1_);}
	.st1{opacity:0.2;fill:#FFFFFF;}
	.st2{fill:#FFFFFF;}
	.st3{fill:url(#SVGID_2_);}
	.st4{opacity:0.2;fill:url(#SVGID_3_);}
</style>
<linearGradient id="SVGID_1_" gradientUnits="userSpaceOnUse" x1="512" y1="64.2256" x2="512" y2="960.2256">
	<stop  offset="0" style="stop-color:#FFDF00"/>
	<stop  offset="1" style="stop-color:#FF7002"/>
</linearGradient>
<circle class="st0" cx="512" cy="512.2" r="448"/>
<path class="st1" d="M235.5,159.7l720.1,415.7c2.9-20.7,4.4-41.8,4.4-63.2c0-22-1.6-43.6-4.6-64.7L346.3,95.9
	C306.2,111.9,268.9,133.5,235.5,159.7z"/>
<path class="st1" d="M150.3,247.8l771.6,445.5c8.4-18.9,15.5-38.5,21.2-58.7L190.6,200.1C176.1,215,162.7,231,150.3,247.8z"/>
<path class="st1" d="M64.1,501.6l681.1,393.2c29.8-18.2,57.3-39.8,82-64.2L78.6,398.4C69.9,431.4,65,466,64.1,501.6z"/>
<path class="st2" d="M512,923.6c-55.5,0-109.4-10.9-160.1-32.3c-49-20.7-93-50.4-130.7-88.2c-37.8-37.8-67.4-81.8-88.2-130.7
	c-21.4-50.7-32.3-104.6-32.3-160.1c0-55.5,10.9-109.4,32.3-160.1c20.7-49,50.4-93,88.2-130.7c37.8-37.8,81.8-67.4,130.7-88.2
	c50.7-21.4,104.6-32.3,160.1-32.3c55.5,0,109.4,10.9,160.1,32.3c49,20.7,93,50.4,130.7,88.2c37.8,37.8,67.4,81.8,88.2,130.7
	c21.4,50.7,32.3,104.6,32.3,160.1c0,55.5-10.9,109.4-32.3,160.1c-20.7,49-50.4,93-88.2,130.7s-81.8,67.4-130.7,88.2
	C621.4,912.7,567.5,923.6,512,923.6z M512,104.9c-224.6,0-407.3,182.7-407.3,407.3S287.4,919.6,512,919.6s407.3-182.7,407.3-407.3
	S736.6,104.9,512,104.9z"/>
<g>
	<path class="st2" d="M527.6,313.6c-1.5,1.6-2.9,3.3-4.3,5c-20.2,25.1-28.7,55.8-26.2,85.6l135.8,109.4c29.6-3.9,57.8-18.8,78-43.8
		c1.4-1.7,2.7-3.5,4-5.2L527.6,313.6z"/>
</g>
<path class="st2" d="M727.8,442.4c21.7-48.7,9-107.7-34.5-142.7s-103.8-34.9-146.8-3.3L727.8,442.4z"/>
<path class="st2" d="M365.2,706.9L365.2,706.9c-30.5-24.6-36.6-68.6-13.9-100.5l135-189.8l136.9,110.3L466.4,699.1
	C440,728.1,395.7,731.5,365.2,706.9z"/>
<path class="st2" d="M336.3,744.9l-2.1-1.7c-4.7-3.7-5.4-10.6-1.6-15.2l23.9-29.6l18.9,15.3l-23.9,29.6
	C347.8,747.9,341,748.7,336.3,744.9z"/>
<linearGradient id="SVGID_2_" gradientUnits="userSpaceOnUse" x1="524.9236" y1="482.5646" x2="524.9236" y2="575.5152" gradientTransform="matrix(0.7788 0.6273 -0.6273 0.7788 430.5036 -210.9062)">
	<stop  offset="0" style="stop-color:#FFDF00"/>
	<stop  offset="1" style="stop-color:#FF7002"/>
</linearGradient>
<path class="st3" d="M478.3,566.6L478.3,566.6c-10.6-8.5-12.3-24.1-3.7-34.7l27.4-34c8.5-10.6,24.1-12.3,34.7-3.7l0,0
	c10.6,8.5,12.3,24.1,3.7,34.7l-27.4,34C504.4,573.4,488.9,575.1,478.3,566.6z"/>
<linearGradient id="SVGID_3_" gradientUnits="userSpaceOnUse" x1="512" y1="100.667" x2="512" y2="923.333">
	<stop  offset="0" style="stop-color:#FFDF00"/>
	<stop  offset="1" style="stop-color:#FF7002"/>
</linearGradient>
<circle class="st4" cx="512" cy="512" r="411.3"/>
</svg>
