<?xml version="1.0" encoding="utf-8"?>
<!-- Generator: Adobe Illustrator 24.2.1, SVG Export Plug-In . SVG Version: 6.00 Build 0)  -->
<svg version="1.1" id="图层_1" xmlns="http://www.w3.org/2000/svg" xmlns:xlink="http://www.w3.org/1999/xlink" x="0px" y="0px"
	 viewBox="0 0 1024 1024" style="enable-background:new 0 0 1024 1024;" xml:space="preserve">
<style type="text/css">
	.st0{fill:url(#SVGID_1_);}
	.st1{opacity:0.2;fill:#FFFFFF;}
	.st2{fill:#FFFFFF;}
	.st3{fill:url(#SVGID_2_);}
	.st4{opacity:0.2;fill:url(#SVGID_3_);}
</style>
<linearGradient id="SVGID_1_" gradientUnits="userSpaceOnUse" x1="512.7776" y1="64.695" x2="512.7776" y2="960.695">
	<stop  offset="0" style="stop-color:#D776EA"/>
	<stop  offset="1" style="stop-color:#607AEA"/>
</linearGradient>
<circle class="st0" cx="512.8" cy="512.7" r="448"/>
<path class="st1" d="M236.3,160.2l720.1,415.7c2.9-20.7,4.4-41.8,4.4-63.2c0-22-1.6-43.6-4.6-64.7L347.1,96.4
	C307,112.3,269.7,133.9,236.3,160.2z"/>
<path class="st1" d="M151.1,248.3l771.6,445.5c8.4-18.9,15.5-38.5,21.2-58.7L191.4,200.6C176.9,215.5,163.4,231.4,151.1,248.3z"/>
<path class="st1" d="M64.9,502L746,895.3c29.8-18.2,57.3-39.8,82-64.2L79.4,398.8C70.7,431.9,65.7,466.5,64.9,502z"/>
<path class="st2" d="M512.8,924c-55.5,0-109.4-10.9-160.1-32.3c-49-20.7-93-50.4-130.7-88.2c-37.8-37.8-67.4-81.8-88.2-130.7
	c-21.4-50.7-32.3-104.6-32.3-160.1c0-55.5,10.9-109.4,32.3-160.1c20.7-49,50.4-93,88.2-130.7c37.8-37.8,81.8-67.4,130.7-88.2
	c50.7-21.4,104.6-32.3,160.1-32.3c55.5,0,109.4,10.9,160.1,32.3c49,20.7,93,50.4,130.7,88.2c37.8,37.8,67.4,81.8,88.2,130.7
	c21.4,50.7,32.3,104.6,32.3,160.1c0,55.5-10.9,109.4-32.3,160.1c-20.7,49-50.4,93-88.2,130.7s-81.8,67.4-130.7,88.2
	C622.2,913.2,568.3,924,512.8,924z M512.8,105.4c-224.6,0-407.3,182.7-407.3,407.3S288.2,920,512.8,920s407.3-182.7,407.3-407.3
	S737.4,105.4,512.8,105.4z"/>
<circle class="st2" cx="512" cy="512" r="216"/>
<linearGradient id="SVGID_2_" gradientUnits="userSpaceOnUse" x1="512" y1="425.4749" x2="512" y2="598.5251">
	<stop  offset="0" style="stop-color:#D776EA"/>
	<stop  offset="1" style="stop-color:#607AEA"/>
</linearGradient>
<circle class="st3" cx="512" cy="512" r="86.5"/>
<path class="st2" d="M558.2,304.4h-88V254c0-7,5.7-12.7,12.7-12.7h62.7c7,0,12.7,5.7,12.7,12.7V304.4z"/>
<path class="st2" d="M470.2,719.6h88V770c0,7-5.7,12.7-12.7,12.7h-62.7c-7,0-12.7-5.7-12.7-12.7V719.6z"/>
<path class="st2" d="M398.6,334.1l-62.2,62.2l-35.7-35.7c-4.9-4.9-4.9-13,0-17.9l44.3-44.3c4.9-4.9,13-4.9,17.9,0L398.6,334.1z"/>
<path class="st2" d="M629.9,689.9l62.2-62.2l35.7,35.7c4.9,4.9,4.9,13,0,17.9l-44.3,44.3c-4.9,4.9-13,4.9-17.9,0L629.9,689.9z"/>
<path class="st2" d="M306.7,468v88h-50.4c-7,0-12.7-5.7-12.7-12.7v-62.7c0-7,5.7-12.7,12.7-12.7H306.7z"/>
<path class="st2" d="M721.8,556v-88h50.4c7,0,12.7,5.7,12.7,12.7v62.7c0,7-5.7,12.7-12.7,12.7H721.8z"/>
<path class="st2" d="M336.3,627.7l62.2,62.2l-35.7,35.7c-4.9,4.9-13,4.9-17.9,0l-44.3-44.3c-4.9-4.9-4.9-13,0-17.9L336.3,627.7z"/>
<path class="st2" d="M692.1,396.3l-62.2-62.2l35.7-35.7c4.9-4.9,13-4.9,17.9,0l44.3,44.3c4.9,4.9,4.9,13,0,17.9L692.1,396.3z"/>
<linearGradient id="SVGID_3_" gradientUnits="userSpaceOnUse" x1="512" y1="100.667" x2="512" y2="923.333">
	<stop  offset="0" style="stop-color:#D776EA"/>
	<stop  offset="1" style="stop-color:#607AEA"/>
</linearGradient>
<circle class="st4" cx="512" cy="512" r="411.3"/>
</svg>
