<?xml version="1.0" encoding="utf-8"?>
<!-- Generator: Adobe Illustrator 24.2.1, SVG Export Plug-In . SVG Version: 6.00 Build 0)  -->
<svg version="1.1" id="图层_1" xmlns="http://www.w3.org/2000/svg" xmlns:xlink="http://www.w3.org/1999/xlink" x="0px" y="0px"
	 viewBox="0 0 1024 1024" style="enable-background:new 0 0 1024 1024;" xml:space="preserve">
<style type="text/css">
	.st0{fill:url(#SVGID_1_);}
	.st1{opacity:0.2;fill:#FFFFFF;}
	.st2{fill:#FFFFFF;}
	.st3{fill:url(#SVGID_2_);}
	.st4{fill:url(#SVGID_3_);}
	.st5{opacity:0.2;fill:url(#SVGID_4_);}
</style>
<linearGradient id="SVGID_1_" gradientUnits="userSpaceOnUse" x1="512.6345" y1="64.3308" x2="512.6345" y2="960.3308">
	<stop  offset="0" style="stop-color:#FFDF00"/>
	<stop  offset="1" style="stop-color:#FF7002"/>
</linearGradient>
<circle class="st0" cx="512.6" cy="512.3" r="448"/>
<path class="st1" d="M236.1,159.8l720.1,415.7c2.9-20.7,4.4-41.8,4.4-63.2c0-22-1.6-43.6-4.6-64.7L346.9,96
	C306.8,112,269.6,133.6,236.1,159.8z"/>
<path class="st1" d="M151,247.9l771.6,445.5c8.4-18.9,15.5-38.5,21.2-58.7L191.3,200.2C176.8,215.1,163.3,231.1,151,247.9z"/>
<path class="st1" d="M64.8,501.7l681.1,393.2c29.8-18.2,57.3-39.8,82-64.2L79.2,398.5C70.6,431.5,65.6,466.1,64.8,501.7z"/>
<path class="st2" d="M512.6,923.7c-55.5,0-109.4-10.9-160.1-32.3c-49-20.7-93-50.4-130.7-88.2c-37.8-37.8-67.4-81.8-88.2-130.7
	c-21.4-50.7-32.3-104.6-32.3-160.1c0-55.5,10.9-109.4,32.3-160.1c20.7-49,50.4-93,88.2-130.7c37.8-37.8,81.8-67.4,130.7-88.2
	c50.7-21.4,104.6-32.3,160.1-32.3c55.5,0,109.4,10.9,160.1,32.3c49,20.7,93,50.4,130.7,88.2c37.8,37.8,67.4,81.8,88.2,130.7
	c21.4,50.7,32.3,104.6,32.3,160.1c0,55.5-10.9,109.4-32.3,160.1c-20.7,49-50.4,93-88.2,130.7s-81.8,67.4-130.7,88.2
	C622,912.8,568.2,923.7,512.6,923.7z M512.6,105C288,105,105.3,287.7,105.3,512.3S288,919.7,512.6,919.7S920,736.9,920,512.3
	S737.2,105,512.6,105z"/>
<path class="st2" d="M651.5,714.9H351.1c-19.3,0-34.3-15.8-32.1-33.9l30.1-242.8c1.9-15.3,15.7-26.9,32.1-26.9h240.2
	c16.4,0,30.2,11.5,32.1,26.9L683.6,681C685.8,699.1,670.8,714.9,651.5,714.9z"/>
<linearGradient id="SVGID_2_" gradientUnits="userSpaceOnUse" x1="421.3227" y1="458.0185" x2="421.3227" y2="512.3308">
	<stop  offset="0" style="stop-color:#FFDF00"/>
	<stop  offset="1" style="stop-color:#FF7002"/>
</linearGradient>
<circle class="st3" cx="421.3" cy="485.2" r="27.2"/>
<linearGradient id="SVGID_3_" gradientUnits="userSpaceOnUse" x1="581.5114" y1="458.0185" x2="581.5114" y2="512.3308">
	<stop  offset="0" style="stop-color:#FFDF00"/>
	<stop  offset="1" style="stop-color:#FF7002"/>
</linearGradient>
<circle class="st4" cx="581.5" cy="485.2" r="27.2"/>
<path class="st2" d="M418.3,411.4v-19.1c0-22.1,8.7-42.9,24.4-58.6c15.8-15.8,36.6-24.4,58.6-24.4c22.1,0,42.9,8.7,58.6,24.4
	c15.8,15.8,24.4,36.6,24.4,58.6v19.1h33v-19.1c0-63.8-52.2-116.1-116.1-116.1l0,0c-63.8,0-116.1,52.2-116.1,116.1v19.1L418.3,411.4
	L418.3,411.4z"/>
<linearGradient id="SVGID_4_" gradientUnits="userSpaceOnUse" x1="512" y1="100.667" x2="512" y2="923.333">
	<stop  offset="0" style="stop-color:#FFDF00"/>
	<stop  offset="1" style="stop-color:#FF7002"/>
</linearGradient>
<circle class="st5" cx="512" cy="512" r="411.3"/>
</svg>
