<?xml version="1.0" encoding="utf-8"?>
<!-- Generator: Adobe Illustrator 24.2.1, SVG Export Plug-In . SVG Version: 6.00 Build 0)  -->
<svg version="1.1" id="图层_1" xmlns="http://www.w3.org/2000/svg" xmlns:xlink="http://www.w3.org/1999/xlink" x="0px" y="0px"
	 viewBox="0 0 1024 1024" style="enable-background:new 0 0 1024 1024;" xml:space="preserve">
<style type="text/css">
	.st0{fill:url(#SVGID_1_);}
	.st1{opacity:0.2;fill:#FFFFFF;}
	.st2{fill:#FFFFFF;}
	.st3{fill:url(#SVGID_2_);}
	.st4{opacity:0.2;fill:url(#SVGID_3_);}
</style>
<linearGradient id="SVGID_1_" gradientUnits="userSpaceOnUse" x1="512.5001" y1="64.3352" x2="512.5001" y2="960.3352">
	<stop  offset="0" style="stop-color:#62D0F1"/>
	<stop  offset="1" style="stop-color:#41A1F7"/>
</linearGradient>
<circle class="st0" cx="512.5" cy="512.3" r="448"/>
<path class="st1" d="M236,159.8l720.1,415.7c2.9-20.7,4.4-41.8,4.4-63.2c0-22-1.6-43.6-4.6-64.7L346.8,96
	C306.7,112,269.4,133.6,236,159.8z"/>
<path class="st1" d="M150.8,247.9l771.6,445.5c8.4-18.9,15.5-38.5,21.2-58.7L191.1,200.2C176.6,215.1,163.2,231.1,150.8,247.9z"/>
<path class="st1" d="M64.6,501.7l681.1,393.2c29.8-18.2,57.3-39.8,82-64.2L79.1,398.5C70.4,431.5,65.5,466.1,64.6,501.7z"/>
<path class="st2" d="M512.5,923.7c-55.5,0-109.4-10.9-160.1-32.3c-49-20.7-93-50.4-130.7-88.2c-37.8-37.8-67.4-81.8-88.2-130.7
	c-21.4-50.7-32.3-104.6-32.3-160.1c0-55.5,10.9-109.4,32.3-160.1c20.7-49,50.4-93,88.2-130.7c37.8-37.8,81.8-67.4,130.7-88.2
	C403.1,111.9,457,101,512.5,101c55.5,0,109.4,10.9,160.1,32.3c49,20.7,93,50.4,130.7,88.2c37.8,37.8,67.4,81.8,88.2,130.7
	c21.4,50.7,32.3,104.6,32.3,160.1c0,55.5-10.9,109.4-32.3,160.1c-20.7,49-50.4,93-88.2,130.7s-81.8,67.4-130.7,88.2
	C621.9,912.8,568,923.7,512.5,923.7z M512.5,105c-224.6,0-407.3,182.7-407.3,407.3s182.7,407.3,407.3,407.3s407.3-182.7,407.3-407.3
	S737.1,105,512.5,105z"/>
<path class="st2" d="M567.7,767.1H456.3c-12.6,0-22.8-10.2-22.8-22.8V464h157v280.3C590.5,756.9,580.3,767.1,567.7,767.1z"/>
<polygon class="st2" points="590.5,464 433.5,464 398,370.9 626,370.9 "/>
<path class="st2" d="M626,370.9H398v-22c0-7.2,5.9-13.1,13.1-13.1h201.8c7.2,0,13.1,5.9,13.1,13.1V370.9z"/>
<path class="st2" d="M608.4,316.7H415.6c-9.7,0-17.6-7.9-17.6-17.6v0c0-9.7,7.9-17.6,17.6-17.6h192.9c9.7,0,17.6,7.9,17.6,17.6v0
	C626,308.8,618.1,316.7,608.4,316.7z"/>
<linearGradient id="SVGID_2_" gradientUnits="userSpaceOnUse" x1="512" y1="489.7778" x2="512" y2="589.3333">
	<stop  offset="0" style="stop-color:#62D0F1"/>
	<stop  offset="1" style="stop-color:#41A1F7"/>
</linearGradient>
<path class="st3" d="M512,589.3L512,589.3c-11.5,0-20.9-9.4-20.9-20.9v-57.8c0-11.5,9.4-20.9,20.9-20.9h0c11.5,0,20.9,9.4,20.9,20.9
	v57.8C532.9,579.9,523.5,589.3,512,589.3z"/>
<linearGradient id="SVGID_3_" gradientUnits="userSpaceOnUse" x1="512" y1="100.667" x2="512" y2="923.333">
	<stop  offset="0" style="stop-color:#62D0F1"/>
	<stop  offset="1" style="stop-color:#41A1F7"/>
</linearGradient>
<circle class="st4" cx="512" cy="512" r="411.3"/>
</svg>
