<?xml version="1.0" encoding="utf-8"?>
<!-- Generator: Adobe Illustrator 24.2.1, SVG Export Plug-In . SVG Version: 6.00 Build 0)  -->
<svg version="1.1" id="图层_1" xmlns="http://www.w3.org/2000/svg" xmlns:xlink="http://www.w3.org/1999/xlink" x="0px" y="0px"
	 viewBox="0 0 1024 1024" style="enable-background:new 0 0 1024 1024;" xml:space="preserve">
<style type="text/css">
	.st0{fill:url(#SVGID_1_);}
	.st1{opacity:0.2;fill:#FFFFFF;}
	.st2{fill:#FFFFFF;}
	.st3{fill:url(#SVGID_2_);}
	.st4{fill:url(#SVGID_3_);}
	.st5{opacity:0.2;fill:url(#SVGID_4_);}
</style>
<linearGradient id="SVGID_1_" gradientUnits="userSpaceOnUse" x1="512.6625" y1="64.2152" x2="512.6625" y2="960.2152">
	<stop  offset="0" style="stop-color:#FFA8B4"/>
	<stop  offset="1" style="stop-color:#FF3358"/>
</linearGradient>
<circle class="st0" cx="512.7" cy="512.2" r="448"/>
<path class="st1" d="M236.2,159.7l720.1,415.7c2.9-20.7,4.4-41.8,4.4-63.2c0-22-1.6-43.6-4.6-64.7L346.9,95.9
	C306.8,111.9,269.6,133.4,236.2,159.7z"/>
<path class="st1" d="M151,247.8l771.6,445.5c8.4-18.9,15.5-38.5,21.2-58.7L191.3,200.1C176.8,215,163.3,230.9,151,247.8z"/>
<path class="st1" d="M64.8,501.6l681.1,393.2c29.8-18.2,57.3-39.8,82-64.2L79.3,398.4C70.6,431.4,65.6,466,64.8,501.6z"/>
<path class="st2" d="M512.7,923.5c-55.5,0-109.4-10.9-160.1-32.3c-49-20.7-93-50.4-130.7-88.2c-37.8-37.8-67.4-81.8-88.2-130.7
	c-21.4-50.7-32.3-104.6-32.3-160.1c0-55.5,10.9-109.4,32.3-160.1c20.7-49,50.4-93,88.2-130.7c37.8-37.8,81.8-67.4,130.7-88.2
	c50.7-21.4,104.6-32.3,160.1-32.3c55.5,0,109.4,10.9,160.1,32.3c49,20.7,93,50.4,130.7,88.2c37.8,37.8,67.4,81.8,88.2,130.7
	c21.4,50.7,32.3,104.6,32.3,160.1c0,55.5-10.9,109.4-32.3,160.1c-20.7,49-50.4,93-88.2,130.7s-81.8,67.4-130.7,88.2
	C622.1,912.7,568.2,923.5,512.7,923.5z M512.7,104.9c-224.6,0-407.3,182.7-407.3,407.3s182.7,407.3,407.3,407.3S920,736.8,920,512.2
	S737.3,104.9,512.7,104.9z"/>
<path class="st2" d="M675.8,293H364.2c-14.5,0-26.2,11.7-26.2,26.2v44.1h16.9c13.9,0,25.3,11.4,25.3,25.3v0
	c0,13.9-11.4,25.3-25.3,25.3H338v72.8h16.9c13.9,0,25.3,11.4,25.3,25.3v0c0,13.9-11.4,25.3-25.3,25.3H338v72.8h16.9
	c13.9,0,25.3,11.4,25.3,25.3v0c0,13.9-11.4,25.3-25.3,25.3H338v59.2c0,14.5,11.7,26.2,26.2,26.2h311.6c14.5,0,26.2-11.7,26.2-26.2
	V319.2C702,304.7,690.3,293,675.8,293z"/>
<path class="st2" d="M353.8,405.6h-50.5c-9.5,0-17.3-7.8-17.3-17.3v0c0-9.5,7.8-17.3,17.3-17.3h50.5c9.5,0,17.3,7.8,17.3,17.3v0
	C371.1,397.9,363.3,405.6,353.8,405.6z"/>
<path class="st2" d="M353.8,529.2h-50.5c-9.5,0-17.3-7.8-17.3-17.3v0c0-9.5,7.8-17.3,17.3-17.3h50.5c9.5,0,17.3,7.8,17.3,17.3v0
	C371.1,521.4,363.3,529.2,353.8,529.2z"/>
<path class="st2" d="M353.8,653.2h-50.5c-9.5,0-17.3-7.8-17.3-17.3l0,0c0-9.5,7.8-17.3,17.3-17.3h50.5c9.5,0,17.3,7.8,17.3,17.3l0,0
	C371.1,645.5,363.3,653.2,353.8,653.2z"/>
<linearGradient id="SVGID_2_" gradientUnits="userSpaceOnUse" x1="530.333" y1="487.8362" x2="530.333" y2="655.6018">
	<stop  offset="0" style="stop-color:#FFA8B4"/>
	<stop  offset="1" style="stop-color:#FF3358"/>
</linearGradient>
<path class="st3" d="M584.1,487.8h-0.6c-4.2,0-8.2,1.5-11.4,4.2c-11.3,9.5-25.9,15.2-41.9,15.2c-15.9,0-30.5-5.7-41.9-15.2
	c-3.2-2.7-7.2-4.2-11.4-4.2h-0.6c-8.7,0-16.1,6.5-17.2,15.1l-17.5,133c-1.4,10.4,6.7,19.7,17.2,19.7h142.6
	c10.5,0,18.6-9.2,17.2-19.7l-17.5-133C600.2,494.3,592.9,487.8,584.1,487.8z"/>
<linearGradient id="SVGID_3_" gradientUnits="userSpaceOnUse" x1="530.333" y1="388.4026" x2="530.333" y2="495.4985">
	<stop  offset="0" style="stop-color:#FFA8B4"/>
	<stop  offset="1" style="stop-color:#FF3358"/>
</linearGradient>
<circle class="st4" cx="530.3" cy="442" r="53.5"/>
<linearGradient id="SVGID_4_" gradientUnits="userSpaceOnUse" x1="512" y1="100.667" x2="512" y2="923.333">
	<stop  offset="0" style="stop-color:#FFA8B4"/>
	<stop  offset="1" style="stop-color:#FF3358"/>
</linearGradient>
<circle class="st5" cx="512" cy="512" r="411.3"/>
</svg>
