<?xml version="1.0" encoding="utf-8"?>
<!-- Generator: Adobe Illustrator 24.2.1, SVG Export Plug-In . SVG Version: 6.00 Build 0)  -->
<svg version="1.1" id="图层_1" xmlns="http://www.w3.org/2000/svg" xmlns:xlink="http://www.w3.org/1999/xlink" x="0px" y="0px"
	 viewBox="0 0 1024 1024" style="enable-background:new 0 0 1024 1024;" xml:space="preserve">
<style type="text/css">
	.st0{fill:url(#SVGID_1_);}
	.st1{opacity:0.2;fill:#FFFFFF;}
	.st2{fill:#FFFFFF;}
	.st3{fill:url(#SVGID_2_);}
	.st4{fill:url(#SVGID_3_);}
	.st5{fill:url(#SVGID_4_);}
	.st6{fill:url(#SVGID_5_);}
	.st7{fill:url(#SVGID_6_);}
	.st8{fill:url(#SVGID_7_);}
	.st9{fill:url(#SVGID_8_);}
	.st10{fill:url(#SVGID_9_);}
	.st11{fill:url(#SVGID_10_);}
	.st12{fill:url(#SVGID_11_);}
	.st13{opacity:0.2;fill:url(#SVGID_12_);}
</style>
<linearGradient id="SVGID_1_" gradientUnits="userSpaceOnUse" x1="511.2393" y1="63.6561" x2="511.2393" y2="959.6561">
	<stop  offset="0" style="stop-color:#FFA8B4"/>
	<stop  offset="1" style="stop-color:#FF3358"/>
</linearGradient>
<circle class="st0" cx="511.2" cy="511.7" r="448"/>
<path class="st1" d="M234.7,159.1l720.1,415.7c2.9-20.7,4.4-41.8,4.4-63.2c0-22-1.6-43.6-4.6-64.7L345.5,95.3
	C305.4,111.3,268.2,132.9,234.7,159.1z"/>
<path class="st1" d="M149.6,247.2l771.6,445.5c8.4-18.9,15.5-38.5,21.2-58.7L189.9,199.5C175.4,214.5,161.9,230.4,149.6,247.2z"/>
<path class="st1" d="M63.4,501l681.1,393.2c29.8-18.2,57.3-39.8,82-64.2L77.8,397.8C69.2,430.9,64.2,465.4,63.4,501z"/>
<path class="st2" d="M511.2,923c-55.5,0-109.4-10.9-160.1-32.3c-49-20.7-93-50.4-130.7-88.2c-37.8-37.8-67.4-81.8-88.2-130.7
	c-21.4-50.7-32.3-104.6-32.3-160.1c0-55.5,10.9-109.4,32.3-160.1c20.7-49,50.4-93,88.2-130.7c37.8-37.8,81.8-67.4,130.7-88.2
	c50.7-21.4,104.6-32.3,160.1-32.3c55.5,0,109.4,10.9,160.1,32.3c49,20.7,93,50.4,130.7,88.2c37.8,37.8,67.4,81.8,88.2,130.7
	c21.4,50.7,32.3,104.6,32.3,160.1c0,55.5-10.9,109.4-32.3,160.1c-20.7,49-50.4,93-88.2,130.7s-81.8,67.4-130.7,88.2
	C620.6,912.1,566.8,923,511.2,923z M511.2,104.3c-224.6,0-407.3,182.7-407.3,407.3S286.6,919,511.2,919s407.3-182.7,407.3-407.3
	S735.8,104.3,511.2,104.3z"/>
<circle class="st2" cx="512" cy="512" r="277.3"/>
<linearGradient id="SVGID_2_" gradientUnits="userSpaceOnUse" x1="512" y1="262.9999" x2="512" y2="292.3332">
	<stop  offset="0" style="stop-color:#FFA8B4"/>
	<stop  offset="1" style="stop-color:#FF3358"/>
</linearGradient>
<path class="st3" d="M512,292.3L512,292.3c-4.7,0-8.4-3.8-8.4-8.4v-12.4c0-4.7,3.8-8.4,8.4-8.4l0,0c4.7,0,8.4,3.8,8.4,8.4v12.4
	C520.4,288.6,516.7,292.3,512,292.3z"/>
<linearGradient id="SVGID_3_" gradientUnits="userSpaceOnUse" x1="512" y1="731.4443" x2="512" y2="760.7776">
	<stop  offset="0" style="stop-color:#FFA8B4"/>
	<stop  offset="1" style="stop-color:#FF3358"/>
</linearGradient>
<path class="st4" d="M512,760.8L512,760.8c-4.7,0-8.4-3.8-8.4-8.4v-12.4c0-4.7,3.8-8.4,8.4-8.4l0,0c4.7,0,8.4,3.8,8.4,8.4v12.4
	C520.4,757,516.7,760.8,512,760.8z"/>
<linearGradient id="SVGID_4_" gradientUnits="userSpaceOnUse" x1="512" y1="262.9999" x2="512" y2="292.3332" gradientTransform="matrix(0.7071 -0.7071 0.7071 0.7071 -211.9987 511.9674)">
	<stop  offset="0" style="stop-color:#FFA8B4"/>
	<stop  offset="1" style="stop-color:#FF3358"/>
</linearGradient>
<path class="st5" d="M356.8,356.6L356.8,356.6c-3.3,3.3-8.6,3.3-11.9,0l-8.8-8.8c-3.3-3.3-3.3-8.6,0-11.9l0,0
	c3.3-3.3,8.6-3.3,11.9,0l8.8,8.8C360,348,360,353.3,356.8,356.6z"/>
<linearGradient id="SVGID_5_" gradientUnits="userSpaceOnUse" x1="512" y1="731.4443" x2="512" y2="760.7776" gradientTransform="matrix(0.7071 -0.7071 0.7071 0.7071 -211.9987 511.9674)">
	<stop  offset="0" style="stop-color:#FFA8B4"/>
	<stop  offset="1" style="stop-color:#FF3358"/>
</linearGradient>
<path class="st6" d="M688,687.9L688,687.9c-3.3,3.3-8.6,3.3-11.9,0l-8.8-8.8c-3.3-3.3-3.3-8.6,0-11.9l0,0c3.3-3.3,8.6-3.3,11.9,0
	l8.8,8.8C691.3,679.2,691.3,684.6,688,687.9z"/>
<linearGradient id="SVGID_6_" gradientUnits="userSpaceOnUse" x1="512" y1="262.9999" x2="512" y2="292.3332" gradientTransform="matrix(4.489659e-11 -1 1 4.489659e-11 0.1112 1023.8888)">
	<stop  offset="0" style="stop-color:#FFA8B4"/>
	<stop  offset="1" style="stop-color:#FF3358"/>
</linearGradient>
<path class="st7" d="M292.4,511.9L292.4,511.9c0,4.7-3.8,8.4-8.4,8.4h-12.4c-4.7,0-8.4-3.8-8.4-8.4l0,0c0-4.7,3.8-8.4,8.4-8.4H284
	C288.7,503.4,292.4,507.2,292.4,511.9z"/>
<linearGradient id="SVGID_7_" gradientUnits="userSpaceOnUse" x1="512" y1="731.4443" x2="512" y2="760.7776" gradientTransform="matrix(4.489659e-11 -1 1 4.489659e-11 0.1112 1023.8888)">
	<stop  offset="0" style="stop-color:#FFA8B4"/>
	<stop  offset="1" style="stop-color:#FF3358"/>
</linearGradient>
<path class="st8" d="M760.9,511.9L760.9,511.9c0,4.7-3.8,8.4-8.4,8.4H740c-4.7,0-8.4-3.8-8.4-8.4l0,0c0-4.7,3.8-8.4,8.4-8.4h12.4
	C757.1,503.4,760.9,507.2,760.9,511.9z"/>
<linearGradient id="SVGID_8_" gradientUnits="userSpaceOnUse" x1="512" y1="262.9999" x2="512" y2="292.3332" gradientTransform="matrix(-0.7071 -0.7071 0.7071 -0.7071 512.0786 1235.8875)">
	<stop  offset="0" style="stop-color:#FFA8B4"/>
	<stop  offset="1" style="stop-color:#FF3358"/>
</linearGradient>
<path class="st9" d="M356.8,667.1L356.8,667.1c3.3,3.3,3.3,8.6,0,11.9l-8.8,8.8c-3.3,3.3-8.6,3.3-11.9,0l0,0
	c-3.3-3.3-3.3-8.6,0-11.9l8.8-8.8C348.1,663.8,353.5,663.8,356.8,667.1z"/>
<linearGradient id="SVGID_9_" gradientUnits="userSpaceOnUse" x1="512" y1="731.4443" x2="512" y2="760.7776" gradientTransform="matrix(-0.7071 -0.7071 0.7071 -0.7071 512.0786 1235.8875)">
	<stop  offset="0" style="stop-color:#FFA8B4"/>
	<stop  offset="1" style="stop-color:#FF3358"/>
</linearGradient>
<path class="st10" d="M688,335.9L688,335.9c3.3,3.3,3.3,8.6,0,11.9l-8.8,8.8c-3.3,3.3-8.6,3.3-11.9,0v0c-3.3-3.3-3.3-8.6,0-11.9
	l8.8-8.8C679.3,332.6,684.7,332.6,688,335.9z"/>
<linearGradient id="SVGID_10_" gradientUnits="userSpaceOnUse" x1="511.2387" y1="329.1461" x2="511.2387" y2="508.3319" gradientTransform="matrix(0.7071 0.7071 -0.7071 0.7071 511.8737 -211.499)">
	<stop  offset="0" style="stop-color:#FFA8B4"/>
	<stop  offset="1" style="stop-color:#FF3358"/>
</linearGradient>
<polygon class="st11" points="596.4,465.2 640.6,382.7 558.2,427 475.8,471.3 513.9,509.4 552.1,547.6 "/>
<circle class="st2" cx="531.7" cy="491.7" r="7.3"/>
<linearGradient id="SVGID_11_" gradientUnits="userSpaceOnUse" x1="-1825.9054" y1="649.1581" x2="-1825.9054" y2="828.3439" gradientTransform="matrix(-0.7071 -0.7071 0.7071 -0.7071 -1368.2893 -190.5554)">
	<stop  offset="0" style="stop-color:#FFA8B4"/>
	<stop  offset="1" style="stop-color:#FF3358"/>
</linearGradient>
<polygon class="st12" points="426.1,559.1 381.8,641.5 464.3,597.3 546.7,553 508.5,514.8 470.4,476.7 "/>
<circle class="st2" cx="490.8" cy="532.6" r="7.3"/>
<linearGradient id="SVGID_12_" gradientUnits="userSpaceOnUse" x1="512" y1="100.667" x2="512" y2="923.333">
	<stop  offset="0" style="stop-color:#FFA8B4"/>
	<stop  offset="1" style="stop-color:#FF3358"/>
</linearGradient>
<circle class="st13" cx="512" cy="512" r="411.3"/>
</svg>
