<?xml version="1.0" encoding="utf-8"?>
<!-- Generator: Adobe Illustrator 24.2.1, SVG Export Plug-In . SVG Version: 6.00 Build 0)  -->
<svg version="1.1" id="图层_1" xmlns="http://www.w3.org/2000/svg" xmlns:xlink="http://www.w3.org/1999/xlink" x="0px" y="0px"
	 viewBox="0 0 1024 1024" style="enable-background:new 0 0 1024 1024;" xml:space="preserve">
<style type="text/css">
	.st0{fill:url(#SVGID_1_);}
	.st1{opacity:0.2;fill:#FFFFFF;}
	.st2{fill:#FFFFFF;}
	.st3{opacity:0.2;fill:url(#SVGID_2_);}
</style>
<linearGradient id="SVGID_1_" gradientUnits="userSpaceOnUse" x1="513.0153" y1="63.6706" x2="513.0153" y2="959.6706">
	<stop  offset="0" style="stop-color:#3DDFAE"/>
	<stop  offset="1" style="stop-color:#4AB6DA"/>
</linearGradient>
<circle class="st0" cx="513" cy="511.7" r="448"/>
<path class="st1" d="M236.5,159.2l720.1,415.7c2.9-20.7,4.4-41.8,4.4-63.2c0-22-1.6-43.6-4.6-64.7L347.3,95.3
	C307.2,111.3,269.9,132.9,236.5,159.2z"/>
<path class="st1" d="M151.4,247.2l771.6,445.5c8.4-18.9,15.5-38.5,21.2-58.7L191.7,199.5C177.2,214.5,163.7,230.4,151.4,247.2z"/>
<path class="st1" d="M65.1,501l681.1,393.2c29.8-18.2,57.3-39.8,82-64.2L79.6,397.8C71,430.9,66,465.4,65.1,501z"/>
<path class="st2" d="M513,923c-55.5,0-109.4-10.9-160.1-32.3c-49-20.7-93-50.4-130.7-88.2c-37.8-37.8-67.4-81.8-88.2-130.7
	c-21.4-50.7-32.3-104.6-32.3-160.1c0-55.5,10.9-109.4,32.3-160.1c20.7-49,50.4-93,88.2-130.7c37.8-37.8,81.8-67.4,130.7-88.2
	c50.7-21.4,104.6-32.3,160.1-32.3c55.5,0,109.4,10.9,160.1,32.3c49,20.7,93,50.4,130.7,88.2c37.8,37.8,67.4,81.8,88.2,130.7
	c21.4,50.7,32.3,104.6,32.3,160.1c0,55.5-10.9,109.4-32.3,160.1c-20.7,49-50.4,93-88.2,130.7s-81.8,67.4-130.7,88.2
	C622.4,912.1,568.5,923,513,923z M513,104.3c-224.6,0-407.3,182.7-407.3,407.3S288.4,919,513,919s407.3-182.7,407.3-407.3
	S737.6,104.3,513,104.3z"/>
<path class="st2" d="M668.2,742.6c-66-26.7-139.1-101.5-188.7-208.2c-45.5-97.9-59.7-194.6-44.8-262.3l-69.2,19.2
	c-15.6,67.8-0.9,166.5,45.1,265.3c56.1,120.6,153.1,213.6,225,228L668.2,742.6z"/>
<path class="st2" d="M473.9,444.1l-97,21.5l-11.3-174.3l87.5-24.3c13.6-3,27.1,5.6,30.1,19.2l23.6,106.3
	C511.9,415.8,497.2,439,473.9,444.1z"/>
<path class="st2" d="M562.8,608.4l-66,74.2l138.9,102l71.7-71.8c9.3-10.4,8.3-26.4-2.1-35.6l-81.4-72.4
	C606,589,578.6,590.6,562.8,608.4z"/>
<linearGradient id="SVGID_2_" gradientUnits="userSpaceOnUse" x1="512" y1="100.667" x2="512" y2="923.333">
	<stop  offset="0" style="stop-color:#3DDFAE"/>
	<stop  offset="1" style="stop-color:#4AB6DA"/>
</linearGradient>
<circle class="st3" cx="512" cy="512" r="411.3"/>
</svg>
