<?xml version="1.0" encoding="utf-8"?>
<!-- Generator: Adobe Illustrator 24.2.1, SVG Export Plug-In . SVG Version: 6.00 Build 0)  -->
<svg version="1.1" id="图层_1" xmlns="http://www.w3.org/2000/svg" xmlns:xlink="http://www.w3.org/1999/xlink" x="0px" y="0px"
	 viewBox="0 0 1024 1024" style="enable-background:new 0 0 1024 1024;" xml:space="preserve">
<style type="text/css">
	.st0{fill:url(#SVGID_1_);}
	.st1{opacity:0.2;fill:#FFFFFF;}
	.st2{fill:#FFFFFF;}
	.st3{opacity:0.2;fill:url(#SVGID_2_);}
</style>
<linearGradient id="SVGID_1_" gradientUnits="userSpaceOnUse" x1="512" y1="63.5" x2="512" y2="959.5">
	<stop  offset="0" style="stop-color:#FFA8B4"/>
	<stop  offset="1" style="stop-color:#FF3358"/>
</linearGradient>
<circle class="st0" cx="512" cy="511.5" r="448"/>
<path class="st1" d="M235.5,159l720.1,415.7c2.9-20.7,4.4-41.8,4.4-63.2c0-22-1.6-43.6-4.6-64.7L346.3,95.2
	C306.2,111.1,268.9,132.7,235.5,159z"/>
<path class="st1" d="M150.3,247.1l771.6,445.5c8.4-18.9,15.5-38.5,21.2-58.7L190.6,199.4C176.1,214.3,162.7,230.2,150.3,247.1z"/>
<path class="st1" d="M64.1,500.8l681.1,393.2c29.8-18.2,57.3-39.8,82-64.2L78.6,397.6C69.9,430.7,65,465.3,64.1,500.8z"/>
<path class="st2" d="M512,922.8c-55.5,0-109.4-10.9-160.1-32.3c-49-20.7-93-50.4-130.7-88.2c-37.8-37.8-67.4-81.8-88.2-130.7
	c-21.4-50.7-32.3-104.6-32.3-160.1c0-55.5,10.9-109.4,32.3-160.1c20.7-49,50.4-93,88.2-130.7c37.8-37.8,81.8-67.4,130.7-88.2
	c50.7-21.4,104.6-32.3,160.1-32.3c55.5,0,109.4,10.9,160.1,32.3c49,20.7,93,50.4,130.7,88.2c37.8,37.8,67.4,81.8,88.2,130.7
	c21.4,50.7,32.3,104.6,32.3,160.1c0,55.5-10.9,109.4-32.3,160.1c-20.7,49-50.4,93-88.2,130.7s-81.8,67.4-130.7,88.2
	C621.4,912,567.5,922.8,512,922.8z M512,104.2c-224.6,0-407.3,182.7-407.3,407.3S287.4,918.8,512,918.8s407.3-182.7,407.3-407.3
	S736.6,104.2,512,104.2z"/>
<path class="st2" d="M512,305.3c55.2,0,107.1,21.5,146.1,60.5s60.5,90.9,60.5,146.1c0,55.2-21.5,107.1-60.5,146.1
	s-90.9,60.5-146.1,60.5s-107.1-21.5-146.1-60.5s-60.5-90.9-60.5-146.1c0-55.2,21.5-107.1,60.5-146.1S456.8,305.3,512,305.3
	 M512,245.3c-147.3,0-266.7,119.4-266.7,266.7c0,147.3,119.4,266.7,266.7,266.7S778.7,659.3,778.7,512
	C778.7,364.7,659.3,245.3,512,245.3L512,245.3z"/>
<path class="st2" d="M531.5,394.8l24.9,50.4c3.2,6.4,9.3,10.8,16.3,11.9l55.6,8.1c17.8,2.6,24.9,24.5,12,37l-40.2,39.2
	c-5.1,5-7.4,12.2-6.2,19.2l9.5,55.4c3,17.7-15.6,31.2-31.5,22.9l-49.7-26.1c-6.3-3.3-13.9-3.3-20.2,0l-49.7,26.1
	c-15.9,8.4-34.5-5.1-31.5-22.9l9.5-55.4c1.2-7-1.1-14.2-6.2-19.2l-40.2-39.2c-12.9-12.6-5.8-34.4,12-37l55.6-8.1
	c7.1-1,13.2-5.5,16.3-11.9l24.9-50.4C500.5,378.6,523.5,378.6,531.5,394.8z"/>
<linearGradient id="SVGID_2_" gradientUnits="userSpaceOnUse" x1="512" y1="100.667" x2="512" y2="923.333">
	<stop  offset="0" style="stop-color:#FFA8B4"/>
	<stop  offset="1" style="stop-color:#FF3358"/>
</linearGradient>
<circle class="st3" cx="512" cy="512" r="411.3"/>
</svg>
