<?xml version="1.0" encoding="utf-8"?>
<!-- Generator: Adobe Illustrator 24.2.1, SVG Export Plug-In . SVG Version: 6.00 Build 0)  -->
<svg version="1.1" id="图层_1" xmlns="http://www.w3.org/2000/svg" xmlns:xlink="http://www.w3.org/1999/xlink" x="0px" y="0px"
	 viewBox="0 0 1024 1024" style="enable-background:new 0 0 1024 1024;" xml:space="preserve">
<style type="text/css">
	.st0{fill:url(#SVGID_1_);}
	.st1{opacity:0.2;fill:#FFFFFF;}
	.st2{fill:#FFFFFF;}
	.st3{opacity:0.2;fill:url(#SVGID_2_);}
</style>
<linearGradient id="SVGID_1_" gradientUnits="userSpaceOnUse" x1="512.2144" y1="63.7752" x2="512.2144" y2="959.7752">
	<stop  offset="0" style="stop-color:#FFA8B4"/>
	<stop  offset="1" style="stop-color:#FF3358"/>
</linearGradient>
<circle class="st0" cx="512.2" cy="511.8" r="448"/>
<path class="st1" d="M235.7,159.3L955.8,575c2.9-20.7,4.4-41.8,4.4-63.2c0-22-1.6-43.6-4.6-64.7L346.5,95.4
	C306.4,111.4,269.1,133,235.7,159.3z"/>
<path class="st1" d="M150.6,247.3l771.6,445.5c8.4-18.9,15.5-38.5,21.2-58.7L190.9,199.6C176.4,214.6,162.9,230.5,150.6,247.3z"/>
<path class="st1" d="M64.3,501.1l681.1,393.2c29.8-18.2,57.3-39.8,82-64.2L78.8,397.9C70.2,431,65.2,465.5,64.3,501.1z"/>
<path class="st2" d="M512.2,923.1c-55.5,0-109.4-10.9-160.1-32.3c-49-20.7-93-50.4-130.7-88.2c-37.8-37.8-67.4-81.8-88.2-130.7
	c-21.4-50.7-32.3-104.6-32.3-160.1c0-55.5,10.9-109.4,32.3-160.1c20.7-49,50.4-93,88.2-130.7c37.8-37.8,81.8-67.4,130.7-88.2
	c50.7-21.4,104.6-32.3,160.1-32.3c55.5,0,109.4,10.9,160.1,32.3c49,20.7,93,50.4,130.7,88.2c37.8,37.8,67.4,81.8,88.2,130.7
	c21.4,50.7,32.3,104.6,32.3,160.1c0,55.5-10.9,109.4-32.3,160.1c-20.7,49-50.4,93-88.2,130.7s-81.8,67.4-130.7,88.2
	C621.6,912.2,567.7,923.1,512.2,923.1z M512.2,104.4c-224.6,0-407.3,182.7-407.3,407.3s182.7,407.3,407.3,407.3
	s407.3-182.7,407.3-407.3S736.8,104.4,512.2,104.4z"/>
<path class="st2" d="M713.5,404.5H389.7l12-82.2c2.6-17.5,17.6-30.5,35.3-30.5h251.7c21.8,0,38.4,19.3,35.3,40.8L713.5,404.5z"/>
<rect x="367.1" y="365.4" transform="matrix(0.9802 0.1978 -0.1978 0.9802 110.9177 -68.6839)" class="st2" width="64.1" height="310.6"/>
<circle class="st2" cx="328.4" cy="655.9" r="75.3"/>
<rect x="624.5" y="365.4" transform="matrix(0.9802 0.1978 -0.1978 0.9802 116.005 -119.6028)" class="st2" width="64.1" height="310.6"/>
<circle class="st2" cx="585.8" cy="655.9" r="75.3"/>
<linearGradient id="SVGID_2_" gradientUnits="userSpaceOnUse" x1="512" y1="100.667" x2="512" y2="923.333">
	<stop  offset="0" style="stop-color:#FFA8B4"/>
	<stop  offset="1" style="stop-color:#FF3358"/>
</linearGradient>
<circle class="st3" cx="512" cy="512" r="411.3"/>
</svg>
